<!-- Generated by IcoMoon.io -->
<svg version="1.1" xmlns="http://www.w3.org/2000/svg" width="29" height="32" viewBox="0 0 29 32">
<title>cv</title>
<path d="M25.601 3.2h-6.688c-0.673-1.88-2.438-3.2-4.512-3.2s-3.84 1.321-4.502 3.167l-0.010 0.033h-6.688c-1.765 0.005-3.195 1.435-3.2 3.2v22.397c0.005 1.765 1.435 3.195 3.2 3.2h22.397c1.765-0.005 3.195-1.435 3.2-3.2v-22.397c-0.005-1.764-1.432-3.193-3.195-3.2h-0.001zM14.403 3.2c0.884 0 1.6 0.716 1.6 1.6s-0.716 1.6-1.6 1.6c-0.884 0-1.6-0.716-1.6-1.6v0c0.002-0.882 0.716-1.596 1.597-1.6h0zM14.403 9.601c2.651 0 4.8 2.149 4.8 4.8s-2.149 4.8-4.8 4.8c-2.651 0-4.8-2.149-4.8-4.8v0c0-0.003 0-0.006 0-0.009 0-2.647 2.146-4.793 4.793-4.793 0.002 0 0.003 0 0.005 0h-0zM24.002 28.801h-19.202v-2.24c0-3.2 6.401-4.96 9.599-4.96s9.599 1.761 9.599 4.96z"></path>
</svg>
