<!-- Generated by IcoMoon.io -->
<svg version="1.1" xmlns="http://www.w3.org/2000/svg" width="40" height="32" viewBox="0 0 40 32">
<title>fatwa</title>
<path d="M0 31.947c0.090-0.291 0.192-0.539 0.313-0.776l-0.013 0.027q1.336-2.194 2.703-4.369c0.321-0.508 0.642-0.946 0.989-1.36l-0.016 0.020c0.308-0.361 0.495-0.833 0.495-1.348 0-0.25-0.044-0.49-0.125-0.712l0.005 0.015c-0.144-0.454-0.271-1.006-0.356-1.572l-0.008-0.063 0.856 2.208c0.024-0.161 0.069-0.369 0.082-0.58-0-0.010-0-0.023-0-0.035 0-0.233 0.028-0.46 0.081-0.677l-0.004 0.019v1.166l0.101 0.021c0.045-0.166 0.078-0.361 0.092-0.561l0.001-0.011c-0.016-1.192-0.052-2.383-0.073-3.575-0.010-0.182-0.016-0.394-0.016-0.608 0-1.381 0.241-2.705 0.683-3.933l-0.025 0.081c0.347-0.79 0.748-1.47 1.219-2.095l-0.019 0.027c-0.642 1.971-0.096 3.902 0.119 5.842 0.101-0.781 0.15-1.573 0.314-2.34 0.261-1.34 0.57-2.482 0.949-3.59l-0.056 0.19c0.303-0.631 0.671-1.175 1.108-1.655l-0.005 0.005c0.089-0.118 0.321-0.128 0.488-0.188 0.027 0.108 0.043 0.231 0.043 0.359 0 0.054-0.003 0.108-0.008 0.161l0.001-0.007c-0.432 1.29-0.682 2.775-0.682 4.319 0 0.020 0 0.039 0 0.059v-0.003c0.048 0.634 0.122 1.204 0.224 1.764l-0.015-0.101 0.131-0.006c0-0.101 0-0.202 0-0.303-0.030-0.322-0.047-0.697-0.047-1.075 0-1.491 0.265-2.921 0.75-4.244l-0.027 0.086c0.539-1.301 1.387-2.382 2.456-3.185l0.019-0.014c2.17-1.647 4.663-3.038 7.34-4.055l0.205-0.068c0.107-0.042 0.214-0.080 0.329-0.117 0.012-0.002 0.025-0.003 0.039-0.003s0.027 0.001 0.040 0.003l-0.001-0c-0.37 0.535-0.768 1.062-1.102 1.622s-0.596 1.151-0.89 1.73l0.095 0.055c0.061-0.092 0.125-0.183 0.183-0.277 0.471-0.767 0.963-1.526 1.406-2.307 0.614-0.882 1.542-1.508 2.619-1.719l0.026-0.004-1.345 2.010 0.090 0.070c0.080-0.114 0.154-0.232 0.241-0.341 0.774-0.978 1.526-1.975 2.341-2.918 0.269-0.269 0.606-0.47 0.984-0.574l0.016-0.004c3.259-1.078 7.094-1.922 11.047-2.375l0.272-0.025c0.151-0.016 0.327-0.025 0.504-0.025 0.916 0 1.776 0.244 2.516 0.671l-0.024-0.013-1.307 1.007 0.072 0.127h0.701c-0.12 0.137-0.19 0.234-0.277 0.314-0.808 0.795-1.718 1.49-2.709 2.061l-0.065 0.034c-1.192 0.63-2.324 1.379-3.539 1.959-1.057 0.504-2.191 0.851-3.296 1.253-0.803 0.292-1.614 0.564-2.415 0.864 2.094-0.302 4.221-0.499 6.116-1.907-0.090 0.224-0.12 0.327-0.17 0.418-0.735 1.412-1.772 2.576-3.030 3.439l-0.032 0.021c-0.518 0.311-1.13 0.621-1.765 0.888l-0.098 0.037c-0.535 0.248-1.1 0.439-1.627 0.706-0.659 0.343-1.436 0.551-2.26 0.568l-0.005 0c-1.696 0.037-3.393 0.012-5.154 0.012 3.403-2.753 6.937-5.269 10.443-7.83-0.082 0.045-0.169 0.083-0.248 0.135-4.757 3.074-8.805 6.018-12.687 9.158l0.273-0.214c-3.307 2.634-6.254 5.412-8.955 8.414l-0.059 0.066c-1.835 1.993-3.469 4.221-4.841 6.619l-0.095 0.18c-0.332 0.625-0.555 1.307-0.848 1.954-0.069 0.157-0.179 0.284-0.318 0.373l-0.003 0.002c-0.443 0.246-0.905 0.457-1.361 0.682zM6.456 14.238c-0.037 0.086-0.083 0.168-0.112 0.257-0.229 0.731-0.361 1.571-0.361 2.443 0 0.29 0.015 0.577 0.043 0.86l-0.003-0.036q0.107 1.628 0.194 3.259c0.020 0.406 0 0.814 0 1.221h0.107c0.018-0.906 0.064-1.813 0.047-2.718-0.076-0.686-0.12-1.482-0.12-2.288 0-1.056 0.075-2.095 0.219-3.111l-0.014 0.117zM7.833 19.935c0.088-0.259 0.173-0.585 0.239-0.919l0.008-0.052c0.127-0.963 0.242-1.926 0.33-2.9 0.076-1.313 0.323-2.541 0.72-3.7l-0.029 0.097c-0.51 0.939-0.841 2.043-0.919 3.217l-0.001 0.024c-0.131 1.401-0.232 2.803-0.353 4.236zM8.783 17.846c-0-0.034-0-0.074-0-0.114 0-2.121 0.363-4.157 1.029-6.049l-0.039 0.127c-0.69 1.336-1.095 2.915-1.095 4.589 0 0.511 0.038 1.014 0.111 1.505l-0.007-0.056z"></path>
<path d="M8.527 21.925c0.73-0.805 1.391-1.659 2.182-2.383 2.381-2.198 4.801-4.354 7.228-6.502 0.257-0.205 0.584-0.333 0.94-0.345l0.003-0c0.899-0.032 1.802 0.015 2.703 0.031 0.567 0.010 1.136 0.061 1.699 0.019 0.54-0.041 1.070-0.18 1.627-0.278-0.107 0.127-0.214 0.271-0.338 0.403-1.375 1.382-2.863 2.647-4.452 3.781l-0.105 0.071c-0.557 0.411-1.048 0.844-1.499 1.316l-0.004 0.004c-1.835 2.076-4.444 3.432-7.37 3.614l-0.031 0.002c-0.849 0.052-1.695 0.171-2.581 0.265z"></path>
<path d="M6.027 25.074c0.185-0.266 0.331-0.494 0.495-0.707 0.366-0.419 0.726-0.878 1.061-1.355l0.035-0.053c0.343-0.54 0.937-0.893 1.614-0.893 0.075 0 0.149 0.004 0.222 0.013l-0.009-0.001c0.164 0.008 0.355 0.012 0.548 0.012 1.154 0 2.271-0.161 3.329-0.461l-0.086 0.021c0.436-0.147 0.861-0.321 1.293-0.486l0.107 0.082c-0.44 0.558-0.845 1.146-1.326 1.666-0.951 0.931-2.212 1.549-3.614 1.685l-0.024 0.002c-1.117 0.181-2.24 0.321-3.361 0.475-0.043 0.003-0.092 0.004-0.142 0.004s-0.1-0.001-0.149-0.004l0.007 0z"></path>
<path d="M7.269 26.077h-1.926c0.224-0.43 1.053-0.422 1.926 0z"></path>
<path d="M7.542 25.695l-1.772-0.228c0.203-0.323 1.245-0.187 1.772 0.228z"></path>
</svg>
