<!-- Generated by IcoMoon.io -->
<svg version="1.1" xmlns="http://www.w3.org/2000/svg" width="27" height="32" viewBox="0 0 27 32">
<title>magnify</title>
<path d="M23.758 3.685c-2.424-2.327-5.527-3.685-8.921-3.685v0c-1.649 0-3.297 0.291-4.848 0.97-4.752 1.939-7.855 6.594-7.855 11.636 0 3.394 1.358 6.594 3.685 8.921 0.194 0.194 0.388 0.388 0.582 0.582l-6.4 8.727 1.552 1.164 6.497-8.63c2.036 1.261 4.364 1.939 6.788 1.939 6.982 0 12.703-5.624 12.703-12.606-0.097-3.394-1.358-6.594-3.782-9.018zM22.4 20.267c-1.939 1.939-4.655 3.103-7.564 3.103s-5.527-1.067-7.564-3.103c-2.036-2.036-3.2-4.752-3.2-7.661 0-4.364 2.618-8.242 6.594-9.891 1.358-0.485 2.715-0.776 4.17-0.776v0c2.909 0 5.527 1.067 7.564 3.103s3.103 4.752 3.103 7.564c0 3.006-1.164 5.721-3.103 7.661z"></path>
</svg>
