<!-- Generated by IcoMoon.io -->
<svg version="1.1" xmlns="http://www.w3.org/2000/svg" width="22" height="32" viewBox="0 0 22 32">
<title>mic</title>
<path d="M10.885 20.211c2.593-0.107 4.654-2.234 4.654-4.844 0-0.073-0.002-0.146-0.005-0.219l0 0.010 0.016-10.099c0.003-0.060 0.004-0.13 0.004-0.2 0-2.618-2.068-4.753-4.66-4.859l-0.010-0c-2.601 0.107-4.67 2.242-4.67 4.86 0 0.068 0.001 0.135 0.004 0.202l-0-0.010v10.099c-0.003 0.060-0.004 0.13-0.004 0.2 0 2.618 2.068 4.753 4.66 4.859l0.010 0zM19.121 15.158c0.002 0.060 0.002 0.13 0.002 0.201 0 4.582-3.674 8.307-8.237 8.389l-0.008 0c-4.571-0.082-8.244-3.806-8.244-8.389 0-0.071 0.001-0.141 0.003-0.211l-0 0.010h-2.636c-0 0.014-0 0.031-0 0.048 0 5.578 3.982 10.226 9.258 11.258l0.072 0.012v5.521h3.11v-5.521c5.347-1.032 9.33-5.675 9.33-11.248 0-0.024-0-0.049-0-0.073l0 0.004z"></path>
</svg>
