<!-- Generated by IcoMoon.io -->
<svg version="1.1" xmlns="http://www.w3.org/2000/svg" width="18" height="32" viewBox="0 0 18 32">
<title>minbar</title>
<path d="M1.752 7.154c0.151 0 0.274-0.123 0.274-0.274v0c0.001-0.825 0.67-1.494 1.495-1.495h0c0.152 0 0.275-0.123 0.275-0.275s-0.123-0.275-0.275-0.275v0c-1.128 0.001-2.043 0.915-2.044 2.044v0c0 0 0 0 0 0 0 0.151 0.123 0.274 0.274 0.274 0 0 0.001 0 0.001 0h-0z"></path>
<path d="M17.85 19.661c-0-0.403-0.263-0.744-0.626-0.863l-0.006-0.002v-1.033c0-0.152-0.123-0.275-0.275-0.275s-0.275 0.123-0.275 0.275v1.034c-0.234 0.077-0.423 0.239-0.532 0.449l-0.002 0.005-3.997-2.944c0.072-0.127 0.115-0.28 0.115-0.442 0-0.403-0.263-0.744-0.626-0.862l-0.006-0.002v-1.034c0-0.152-0.123-0.275-0.275-0.275s-0.275 0.123-0.275 0.275v0 1.034c-0.15 0.049-0.277 0.13-0.379 0.236l-0 0-4.062-2.983v-5.375c0-0 0-0 0-0 0-1.62-1.239-2.95-2.821-3.094l-0.012-0.001v-1.216c0.37-0.12 0.634-0.461 0.634-0.865s-0.263-0.745-0.627-0.863l-0.006-0.002v-0.564c0-0.152-0.123-0.275-0.275-0.275s-0.275 0.123-0.275 0.275v0 0.564c-0.369 0.12-0.632 0.462-0.632 0.865s0.262 0.744 0.625 0.863l0.006 0.002v1.217c-1.593 0.147-2.831 1.477-2.833 3.095v10.237c-0.252 0.184-0.413 0.479-0.413 0.811v13.798c0 0.151 0.123 0.274 0.274 0.274v0h16.279c0.554-0.001 1.003-0.45 1.004-1.004v-5.448c0-0 0-0 0-0 0-0.299-0.131-0.567-0.338-0.751l-0.001-0.001v-4.271c0.369-0.121 0.631-0.462 0.632-0.864v-0zM16.943 19.303c0.198 0 0.358 0.16 0.358 0.358s-0.16 0.358-0.358 0.358c-0.198 0-0.358-0.16-0.358-0.358v0c0-0.198 0.16-0.358 0.358-0.358v0zM11.346 15.507c0.198 0 0.358 0.16 0.358 0.358s-0.16 0.358-0.358 0.358c-0.198 0-0.358-0.16-0.358-0.358v0c0-0.198 0.16-0.358 0.358-0.358v0zM10.449 15.74c-0.006 0.040-0.010 0.086-0.010 0.133 0 0.401 0.263 0.741 0.627 0.856l0.006 0.002v4.003h-4.026v-2.801c-0-0.333-0.163-0.628-0.413-0.81l-0.003-0.002v-4.184zM3.522 1.344c0.198 0 0.358 0.16 0.358 0.358s-0.16 0.358-0.358 0.358c-0.198 0-0.358-0.16-0.358-0.358v0c0-0.198 0.16-0.358 0.358-0.358v0zM0.963 6.879c0-1.413 1.146-2.559 2.559-2.559s2.559 1.146 2.559 2.559v10.046h-0.687v-8.403c-0-0.396-0.321-0.717-0.717-0.717h-2.303c-0.396 0-0.717 0.321-0.717 0.717v8.403h-0.69v-10.046zM4.841 16.923h-2.638v-8.403c0-0.094 0.076-0.17 0.17-0.17v0h2.303c0.094 0 0.17 0.076 0.17 0.17v0zM16.554 31.451h-2.254v-4.269c0-0.152-0.123-0.275-0.275-0.275s-0.275 0.123-0.275 0.275v0 4.269h-13.202v-1.131h8.534c0.152 0 0.275-0.123 0.275-0.275s-0.123-0.275-0.275-0.275v0h-8.534v-1.349h2.11c0.152 0 0.275-0.123 0.275-0.275s-0.123-0.275-0.275-0.275v0h-2.11v-8.892h0.745v5.782c0 0.152 0.123 0.275 0.275 0.275s0.275-0.123 0.275-0.275v0-5.782h1.004v1.648c0 0.152 0.123 0.275 0.275 0.275s0.275-0.123 0.275-0.275v0-1.648h1.358c0.152 0 0.275-0.123 0.275-0.275s-0.123-0.275-0.275-0.275v0h-4.202v-0.504c0-0.252 0.204-0.456 0.456-0.456v0h5.037c0.252 0 0.456 0.204 0.456 0.456v0 3.079c0 0.151 0.123 0.274 0.274 0.274h4.526c0.252 0 0.456 0.204 0.456 0.456v0 1.027h-2.916c-0.152 0-0.275 0.123-0.275 0.275s0.123 0.275 0.275 0.275v0h2.913v1.502c0 0.151 0.123 0.274 0.274 0.274v0h4.526c0.252 0 0.456 0.204 0.456 0.456v0 0.626h-2.815c-0.152 0-0.275 0.123-0.275 0.275s0.123 0.275 0.275 0.275v0h2.815v0.911h-1.502c-0.152 0-0.275 0.123-0.275 0.275s0.123 0.275 0.275 0.275v0h1.502v2.816c-0 0.251-0.204 0.455-0.456 0.455 0 0 0 0 0 0v0zM16.554 24.54h-4.252v-2.801c-0-0.438-0.281-0.811-0.672-0.948l-0.007-0.002v-4.059c0.043-0.014 0.079-0.029 0.113-0.046l-0.005 0.002 4.336 3.194c0.079 0.307 0.306 0.547 0.598 0.643l0.006 0.002v4.022c-0.035-0.004-0.076-0.007-0.117-0.007-0 0-0 0-0.001 0h0z"></path>
<path d="M2.852 9.283c-0.151 0-0.274 0.123-0.274 0.274v0 3.406c0 0.152 0.123 0.275 0.275 0.275s0.275-0.123 0.275-0.275v0-3.406c0 0 0 0 0 0 0-0.151-0.123-0.274-0.274-0.274-0 0-0.001 0-0.001 0h0z"></path>
</svg>
