<!-- Generated by IcoMoon.io -->
<svg version="1.1" xmlns="http://www.w3.org/2000/svg" width="34" height="32" viewBox="0 0 34 32">
<title>video</title>
<path d="M9.067 32c-0 0-0.001 0-0.001 0-0.368 0-0.666-0.298-0.666-0.666 0 0 0 0 0 0v0-3.333h-1.999c-0 0-0.001 0-0.001 0-0.368 0-0.666-0.298-0.666-0.666 0 0 0 0 0 0v0-2h-3.732c-1.105-0.001-2-0.896-2-2v-11.996c0-0.002 0-0.004 0-0.006 0-1.105 0.895-2.001 2-2.002h2.877c-1.112-0.982-1.81-2.411-1.81-4.003 0-2.944 2.387-5.331 5.331-5.331 1.999 0 3.742 1.101 4.654 2.729l0.014 0.027c0.926-1.655 2.669-2.756 4.668-2.756 2.944 0 5.331 2.387 5.331 5.331 0 1.592-0.698 3.021-1.804 3.998l-0.006 0.005h2.478c1.104 0.001 1.998 0.896 2 1.999v0.667h1.79l5.562-3.877c0.106-0.075 0.239-0.12 0.382-0.12 0.368 0 0.666 0.298 0.666 0.666 0 0 0 0 0 0v0 15.994c0 0 0 0 0 0 0 0.368-0.298 0.666-0.666 0.666-0.143 0-0.275-0.045-0.384-0.122l0.002 0.001-5.562-3.877h-1.791v1.999c-0.001 1.104-0.896 1.999-2 2h-3.333v2c0 0.368-0.298 0.666-0.666 0.666v0h-1.999v3.339c0 0 0 0 0 0 0 0.368-0.298 0.666-0.666 0.666-0 0-0.001 0-0.001 0h0zM9.733 30.667h6.664v-2.666h-6.664zM7.068 26.669h11.995v-1.333h-11.995zM1.333 11.333v11.995c0 0.369 0.299 0.668 0.668 0.668v0h21.734c0.369 0 0.668-0.299 0.668-0.668v0-11.995c-0.001-0.368-0.299-0.666-0.668-0.666 0 0 0 0 0 0h-21.734c0 0 0 0 0 0-0.368 0-0.667 0.298-0.668 0.666v0zM28.4 13.014v7.305l4.401 3.066v-13.441zM25.735 20h1.333v-6.671h-1.333zM13.739 5.339c0 2.208 1.79 3.999 3.998 3.999s3.998-1.79 3.998-3.998c0-2.208-1.79-3.998-3.998-3.998v0c-2.206 0.001-3.996 1.786-4.003 3.99v0.001zM11.922 9.337h2.289c-0.453-0.401-0.835-0.871-1.131-1.396l-0.014-0.027c-0.31 0.548-0.691 1.016-1.138 1.41l-0.006 0.005zM4.4 5.331c0 2.208 1.79 3.998 3.998 3.998s3.998-1.79 3.998-3.998c0-2.208-1.79-3.998-3.998-3.998v0c-2.207 0.003-3.995 1.792-3.998 3.998v0zM7.734 21.334c-0.012 0.001-0.026 0.001-0.040 0.001-0.369 0-0.668-0.299-0.668-0.668s0.299-0.668 0.668-0.668c0.014 0 0.028 0 0.042 0.001l-0.002-0h13.328c0.351 0.022 0.627 0.312 0.627 0.666s-0.276 0.645-0.625 0.666l-0.002 0zM4.401 20.666c0.001-0.368 0.299-0.665 0.666-0.665s0.666 0.298 0.666 0.666c0 0.368-0.298 0.666-0.665 0.666h-0c-0 0-0.001 0-0.001 0-0.368 0-0.667-0.298-0.668-0.666v-0zM20.395 18c0-0.368 0.298-0.666 0.666-0.666s0.666 0.298 0.666 0.666c0 0.368-0.298 0.666-0.665 0.666h-0c-0.366-0.003-0.662-0.3-0.663-0.666v-0zM5.062 18.667c-0 0-0.001 0-0.001 0-0.368 0-0.666-0.298-0.666-0.666 0 0 0 0 0 0v0-3.998c-0-0.002-0-0.005-0-0.007 0-0.368 0.298-0.666 0.666-0.666 0.002 0 0.004 0 0.006 0h9.329c0 0 0.001 0 0.001 0 0.368 0 0.666 0.298 0.666 0.666 0 0 0 0.001 0 0.001v-0 3.998c0 0 0 0 0 0 0 0.368-0.298 0.666-0.666 0.666-0 0-0.001 0-0.001 0h0zM5.729 17.334h7.997v-2.673h-7.997zM20.39 14.001c0-0.368 0.298-0.666 0.666-0.666s0.666 0.298 0.666 0.666c0 0.368-0.298 0.666-0.665 0.666h-0c-0.364-0.005-0.657-0.302-0.658-0.666v-0zM15.733 5.331c0-1.105 0.896-2 2-2s2 0.896 2 2c0 1.105-0.896 2-2 2v0c-1.104-0.001-1.999-0.896-2-2v-0zM17.066 5.331c0 0.368 0.298 0.666 0.666 0.666s0.666-0.298 0.666-0.666c0-0.368-0.298-0.666-0.666-0.666v0c-0.367 0.001-0.665 0.299-0.665 0.666v0zM6.404 5.331c0-1.105 0.896-2 2-2s2 0.896 2 2c0 1.105-0.896 2-2 2-0 0-0.001 0-0.001 0h0c-0 0-0.001 0-0.001 0-1.105 0-2.001-0.896-2.002-2v-0zM7.736 5.331c0 0.368 0.298 0.666 0.666 0.666s0.666-0.298 0.666-0.666c0-0.368-0.298-0.666-0.666-0.666v0c-0 0-0.001 0-0.001 0-0.368 0-0.667 0.298-0.668 0.666v0z"></path>
</svg>
