<!-- Generated by IcoMoon.io -->
<svg version="1.1" xmlns="http://www.w3.org/2000/svg" width="32" height="32" viewBox="0 0 32 32">
<title>video-side</title>
<path d="M17.689 12.446l-4.905-3.687v14.477l4.905-3.687 4.743-3.554zM17.689 12.446l-4.905-3.687v14.477l4.905-3.687 4.743-3.554zM17.689 12.446l-4.905-3.687v14.477l4.905-3.687 4.743-3.554zM14.393 3.249v-3.249c-3.286 0.338-6.22 1.624-8.584 3.575l0.027-0.022 2.283 2.3c1.736-1.366 3.874-2.298 6.21-2.598l0.064-0.007zM5.854 8.12l-2.3-2.283c-1.93 2.337-3.216 5.271-3.548 8.488l-0.006 0.068h3.249c0.307-2.399 1.239-4.537 2.626-6.301l-0.021 0.027zM3.249 17.607h-3.249c0.338 3.286 1.624 6.22 3.575 8.584l-0.022-0.027 2.3-2.3c-1.368-1.729-2.3-3.861-2.598-6.192l-0.007-0.063zM5.837 28.446c2.338 1.927 5.272 3.212 8.487 3.548l0.069 0.006v-3.249c-2.398-0.308-4.535-1.24-6.298-2.626l0.027 0.021-2.286 2.3zM32.079 16c-0.007 8.285-6.269 15.105-14.318 15.994l-0.072 0.006v-3.249c6.34-0.864 11.175-6.243 11.175-12.752s-4.834-11.888-11.108-12.744l-0.067-0.007v-3.247c8.121 0.895 14.383 7.715 14.39 15.999v0.001z"></path>
</svg>
