<!-- Generated by IcoMoon.io -->
<svg version="1.1" xmlns="http://www.w3.org/2000/svg" width="37" height="32" viewBox="0 0 37 32">
<title>write</title>
<path d="M33.418 0.946c-1.702-0.6-3.664-0.947-5.708-0.947-0.049 0-0.099 0-0.148 0.001l0.008-0c-0.195-0.010-0.423-0.015-0.653-0.015-3.219 0-6.189 1.066-8.576 2.865l0.036-0.026c-2.351-1.772-5.32-2.839-8.539-2.839-0.227 0-0.453 0.005-0.677 0.016l0.032-0.001c-0.195-0.010-0.423-0.015-0.653-0.015-3.219 0-6.189 1.066-8.576 2.865l0.036-0.026v27.578c0.003 0.484 0.364 0.882 0.83 0.946l0.005 0.001c0.168 0 0.25-0.095 0.418-0.095 2.304-1.223 5.023-1.98 7.909-2.077l0.031-0.001c0.195-0.010 0.423-0.015 0.653-0.015 3.219 0 6.189 1.066 8.576 2.865l-0.036-0.026c2.611-1.668 5.769-2.704 9.161-2.823l0.032-0.001c0.111-0.003 0.241-0.004 0.371-0.004 2.78 0 5.388 0.735 7.641 2.021l-0.076-0.040c0.1 0.062 0.221 0.098 0.35 0.098 0.024 0 0.047-0.001 0.070-0.004l-0.003 0c0.472-0.064 0.832-0.463 0.835-0.946v-27.477c-0.952-0.786-2.064-1.423-3.273-1.854l-0.077-0.024zM33.418 26.361c-1.688-0.6-3.635-0.947-5.663-0.947-0.065 0-0.13 0-0.195 0.001l0.010-0c-3.423 0.12-6.582 1.156-9.267 2.868l0.074-0.044v-21.651c2.611-1.668 5.769-2.704 9.161-2.823l0.032-0.001c0.055-0.001 0.12-0.001 0.185-0.001 2.028 0 3.975 0.347 5.785 0.985l-0.122-0.037z"></path>
</svg>
