<svg xmlns="http://www.w3.org/2000/svg" width="576.798" height="220.07" viewBox="0 0 576.798 220.07">
  <g id="Group_9" data-name="Group 9" transform="translate(-1261.585 -2381.231)">
    <text id="موقع_فضيلة_الشيخ_" data-name="موقع فضيلة الشيخ
" transform="translate(1751.275 2401.231)" fill="#dfb448" font-size="16" font-family="JFFlat-Regular, JF Flat"><tspan x="-66.27" y="0">موقع فضيلة الشيخ</tspan><tspan y="0"></tspan><tspan x="0" y="53"></tspan></text>
    <text id="حفظه_الله" data-name="حفظه الله" transform="translate(1297.585 2593.301)" fill="#dfb448" font-size="16" font-family="JFFlat-Regular, JF Flat"><tspan x="-35.094" y="0">حفظه الله</tspan></text>
    <g id="Group_7" data-name="Group 7" transform="translate(1261.913 2434.583)">
      <path id="Path_5" data-name="Path 5" d="M1310.136,831.305a14.8,14.8,0,0,0,.9-3.117c.394-6.089,4.083-10.906,9.63-14.983,2.823-2.075,5-1.96,7.668.275,1.625,1.365,3.127,2.819,4.65,4.255,3.878,3.656,9.547,3.391,12.549-.731a17.708,17.708,0,0,0,3.425-12.591c-1.117-10.275-2.633-20.523-3.942-30.786a90.1,90.1,0,0,1-1.071-10.825c-.012-2.267.928-4.538,2.054-6.984a5.93,5.93,0,0,1,1.032,1.638c1.478,6.993,2.989,13.982,4.3,20.995,1.737,9.308,2.627,18.748,5.182,27.915,1.657,5.944,7,10.449,14.872,12.782a118.922,118.922,0,0,0,37.692,4.834,123.311,123.311,0,0,0,17.258-2.082,26.115,26.115,0,0,0,14.4-7.71c.833-.845,1.863-1.576,2.8-2.359l.836.3c-.5,2.371-.993,4.742-1.485,7.094,6.741,1.04,14.2-2.545,15.79-7.343a51.208,51.208,0,0,1,2.034-5.553c.23-.494,1.342-.743,2.049-1.105.324.542.666,1.079.962,1.63.073.137,0,.319-.005.481-.092,1.407-.97,3.358-.105,4.1,1.555,1.34,4.154,1.956,7.21,3.254-1.64-4.631-.056-8.258,1.918-12.273,2.958,2.074,3.083,4.669,2.911,6.844-.307,3.91-1.522,7.78-2.407,11.66-.4,1.741-1.809,2.255-3.914,1.7-2.469-.653-4.971-1.249-7.373-2.027-1.728-.559-2.847-.5-3.845.89-2.939,4.1-7.658,6.013-13.607,6.281-3.938.177-7.9.207-11.807.576a39.026,39.026,0,0,0-7.218,1.512,63.6,63.6,0,0,1-17.685,2.794c-12.18.072-24.229-.367-35.786-3.776-8.782-2.591-15.79-6.582-18.851-13.818a15.384,15.384,0,0,0-1.526-2.084c-.832,3.219-1.505,5.817-2.175,8.416-1.174,4.561-6.146,8.445-11.077,8.13a13.657,13.657,0,0,1-5.964-2.158,62.521,62.521,0,0,1-6.3-5.053c-2.041-1.672-4.517-1.8-6.266-.122a22.9,22.9,0,0,0-5.045,6.761c-.475,1.051.738,3.063,1.993,3.973a65.513,65.513,0,0,0,9.665,5.718c2.725,1.33,3.892,2.572,3.1,5.272-1.695,5.754-1.407,5.715-8.6,3.917-10.513-2.628-16.5-8.388-18.583-16.465-1.887-7.328-3.1-14.765-4.413-22.174-2.22-12.527-4.191-25.08-6.495-37.6-.45-2.445-1.942-4.776-2.952-7.16l-1.446.053-2.45,12.63-1.125.059c-.411-.814-1.216-1.643-1.166-2.44a132.317,132.317,0,0,1,1.327-13.941c.309-1.813,1.756-3.589,3.056-5.2,1.5-1.858,2.583-1.758,4.1.089a25.943,25.943,0,0,1,5.306,12.778c2.2,13.58,4.143,27.186,6.4,40.759.994,5.976,2.394,11.916,3.86,17.836.381,1.538,1.708,2.936,2.6,4.4Z" transform="translate(-1080.425 -750.358)" fill="#dfb448"/>
      <path id="Path_6" data-name="Path 6" d="M1852.232,846.689c-5.625-5.056-13.321-4.169-20.483-6.11a28.273,28.273,0,0,1,2.388-4c3.5-4.258,10.144-5.349,15.5-2.51,4.392,2.33,8.613,4.852,12.932,7.265a62,62,0,0,0,18.524,6.9c2.305.448,2.586,1.195,1.726,2.739-2.923,5.244-2.922,5.352-10.023,3.807a51.362,51.362,0,0,0-36.358,4.914c-3.172,1.7-3.132,2.075.208,3.474,8.094,3.387,10.3,8.167,6.949,14.817-.754,1.5-1.642,1.771-3.534,1-4.716-1.916-8.676-4.429-11.568-8.414-.835.939-1.361,1.581-1.951,2.186a62.436,62.436,0,0,1-5.341,5.334c-5.354,4.314-14.989,2.74-17.111-3.052-1.686-4.6-2.2-9.457-3.144-14.21a15.732,15.732,0,0,1-.028-3.06l-.781-.165c-.375.671-.813,1.326-1.116,2.015-4.341,9.888-12.7,17.329-23.762,23.061a19.024,19.024,0,0,1-6.042,1.816c-3.492.468-6.056-.8-7.6-3.258-3.329-5.31-1.191-16.366,4.533-21.257a19.477,19.477,0,0,1,.133,2.531c-.263,2.9-.631,5.788-.876,8.685-.264,3.131,2.514,5.069,6.46,4.321a21.111,21.111,0,0,0,5.981-1.987c7.8-4.228,14.738-9.264,18.619-16.033,1.565-2.729,1.1-6.292.907-9.452-.392-6.305-3.981-11.849-8.305-17.013-3.883-4.637-1.491-8.9.687-13.581a20.633,20.633,0,0,1,1.779,1.939,68,68,0,0,1,12.706,34.113,65.567,65.567,0,0,0,2.474,11.9c.712,2.566,2.292,5.07,6.014,5.675,4.3.7,8.508.124,11.326-2.763,2.505-2.564,5.18-5.2,6.677-8.144,3.31-6.508,10.228-9.522,17.758-12.167Z" transform="translate(-1326.578 -782.929)" fill="#dfb448"/>
      <path id="Path_7" data-name="Path 7" d="M1595.12,860.686c-.46-1.415-.9-2.753-1.33-4.091l-1.066-.2c-.557,1.143-1.069,2.3-1.68,3.427-1.311,2.412-2.581,4.842-4.074,7.187a4.13,4.13,0,0,1-2.385,1.5c-3.735.786-4.442,2.989-4.873,5.5-.383,2.229-1.022,4.433-1.588,6.643-1.181,4.611-4.636,8.064-9.469,10.73a125.03,125.03,0,0,1-40.5,13.616,245.373,245.373,0,0,1-36.333,3.414,167.93,167.93,0,0,1-43.953-5.584c-11.935-3.029-18.59-9.947-23.226-18.384-.487-.886-.066-2.07-.066-3.115l.788-.279c1.505,1.051,3.1,2.037,4.5,3.164,8.895,7.134,20.22,10.628,32.29,13.151,15.51,3.243,31.221,2.858,47.017,2.058,15.927-.807,31.23-3.551,45.489-9.057a91.054,91.054,0,0,0,16.276-8.461c5.037-3.237,5.507-6.651,2.943-11.335-.813-1.484-1.766-2.925-2.706-4.365-1.715-2.627-1.344-7.135,2-10.677.715.98,1.415,1.967,2.148,2.94,3.036,4.031,11.581,2.294,13.208-1.486.921-2.138,1.81-4.289,2.882-6.382a38.894,38.894,0,0,1,2.515-3.774C1598.441,849.395,1598.992,857.866,1595.12,860.686Z" transform="translate(-1153.635 -798.061)" fill="#dfb448"/>
      <path id="Path_8" data-name="Path 8" d="M1063.923,878.385c.451-2.162.846-4.332,1.367-6.484s1.284-4.242,1.682-6.39a2.378,2.378,0,0,0-.861-2.283,4.573,4.573,0,0,0-3.141.079,25.347,25.347,0,0,0-4.159,2.533c-3.612,2.444-6.98,5.14-10.846,7.31-3.128,1.756-4.827,3.813-5.344,6.707-1.441,8.075-7.8,13.81-15.724,18.54a129.388,129.388,0,0,1-29.757,12.751,50.688,50.688,0,0,1-7.916,1.264c-4.809.6-9.635,1.122-14.455,1.67-1.189.135-2.382.248-3.574.371l-.424-.707a22.97,22.97,0,0,1,2.64-1.362c14.027-5.187,28.1-10.3,42.1-15.528,8.321-3.1,14.975-7.921,21.313-12.979a5.621,5.621,0,0,0,1.908-3.438c.434-2.988-.174-3.321-3.983-2.87-7.2.852-12.258-.823-12.961-5.334-.916-5.883.158-11.769,5.761-16.456,1.73-1.447,3.838-.869,5.784-.131,4.869,1.847,6.7,5.337,8.148,9.033,1.173,2.99,2,3.321,5.277,1.319,4.911-3,9.546-6.262,14.3-9.416,2.469-1.64,4.942-3.679,8.524-2,3.371,1.575,2.106,4.072,1.407,6.327q-2.436,7.866-4.984,15.712a10.406,10.406,0,0,1-1.192,1.981Zm-31.878-11.34c-.1-2.439-1.7-3.252-3.487-2.974-1.051.164-1.785,1.539-2.662,2.369,1.179.7,2.26,1.75,3.573,1.966C1030.275,868.539,1031.434,867.394,1032.045,867.045Z" transform="translate(-919.885 -801.74)" fill="#dfb448"/>
      <path id="Path_9" data-name="Path 9" d="M942.664,860.656c.186-1.113.06-2.328.611-3.318,2.181-3.922,4.585-7.771,6.878-11.656a15.171,15.171,0,0,0,1.6-3.137c.215-.71.22-1.8-.324-2.206a3.927,3.927,0,0,0-2.833-.122,112.3,112.3,0,0,0-10.679,4.5c-8.273,4.226-16.072,9.109-25.592,11.619-6.508,1.716-13.2,3.142-20.224,2.668-10.675-.72-25.682-8.917-22.417-21.412.35-1.338.435-2.716.753-4.06.412-1.745-.093-3.067-1.6-4.574a10.342,10.342,0,0,1-2.688-5.49c-1.488-8.741,1.815-16.732,6.995-24.371,1.46-2.152,2.9-4.31,4.352-6.465l1,.241a6.511,6.511,0,0,1-.336,2.062c-1.528,3-3.2,5.948-4.757,8.933-2.7,5.165-3.53,10.443-.923,15.757.522,1.064,2.071,1.827,3.147,2.73.984-.88,2.05-1.716,2.933-2.654.955-1.015,1.74-2.125,3.067-3.775.466,1.2.847,1.633.7,1.9-1.979,3.692-3.491,7.624-6.213,10.964-2.862,3.511-3.786,9.043-.8,12.595,5.455,6.486,13.7,8.549,23.132,8.751,12.018.257,21.94-3.91,31.542-8.841,6.082-3.123,12.286-6.106,18.482-9.094a15.435,15.435,0,0,1,3.741-1.177c2.962-.565,5.6.89,5.007,3.166a66.716,66.716,0,0,1-4.464,12.744c-2.172,4.433-5.206,8.615-7.9,12.9a6.445,6.445,0,0,1-1.094,1.045Z" transform="translate(-865.792 -770.141)" fill="#dfb448"/>
      <path id="Path_10" data-name="Path 10" d="M1149.568,872.652c0,2.188.106,4.379-.023,6.563-.234,3.992-1.224,7.962.958,11.887,2.849,5.124,7.4,8.1,14.857,8.519,19.524,1.093,34.6-5.5,47.6-15.949,2.916-2.344,3.41-4.791,1.531-7.683-1.868-2.875-3.542-5.825-5.426-8.95l-4.505,1.614-.885-.336c.471-.965.628-2.162,1.479-2.846,1.706-1.371,1.91-2.656,1.013-4.365-2.211-4.214-1.6-8.489-.308-13.081,4.024,2.372,3.494,6.95,8.442,8.7a6.6,6.6,0,0,0-.366,1.871c.088,1.365-.172,2.969.652,4.046,8.635,11.287,5.76,24.393-7.146,32.874a81.2,81.2,0,0,1-31.961,12.7c-8.9,1.455-17.443,1.162-24.161-4.289-4.869-3.952-7.354-8.694-6.2-14.359.939-4.612,1.486-9.271,2.329-13.9a14.707,14.707,0,0,1,1.356-3.1Z" transform="translate(-1009.579 -798.683)" fill="#dfb448"/>
      <path id="Path_11" data-name="Path 11" d="M2017.083,769.536c1.978.379,6.059,9.315,5.3,12.3,2.178.833,2.467,1.845,1,3.653a5.745,5.745,0,0,0-.772,4.6c1.966,9.307,4.48,18.55,6.178,27.883,1.436,7.89,1.049,15.868-2.979,23.334-1.595,2.955-4.583,5.5-7.186,8.078-1.258,1.247-3.031,1.361-5.061.473a9.309,9.309,0,0,0-4.064-.162,18.917,18.917,0,0,0-3.2.833l-.757-.544c.65-.656,1.128-1.529,1.979-1.93,3.031-1.427,6.139-2.771,9.31-4.005,5.094-1.983,7.245-5.179,7.76-9.5.673-5.634-.188-11.111-1.539-16.6-1.812-7.371-3.51-14.759-5.285-22.136-.243-1.012-.648-2-1.033-3.169l-3.846.966-.727-.482c.562-.917.847-2.064,1.742-2.7,1.979-1.417,2.519-2.925,2.074-4.964C2014.811,780.1,2014.025,774.728,2017.083,769.536Z" transform="translate(-1453.084 -758.24)" fill="#dfb448"/>
      <path id="Path_12" data-name="Path 12" d="M1171.8,780.525l-3.522,1.62-.715-.368c.354-.71.457-1.629,1.106-2.093,2.6-1.856,2.472-4.029,1.969-6.465-1.185-5.738-2.3-11.505-.4-17.292a9.3,9.3,0,0,1,.887-1.612c2.172,3.017,4.234,5.806,6.173,8.646a2.892,2.892,0,0,1,.214,1.819c-.1,1.353-1.226,2.876,1.469,3.641.325.092.49,1.5.093,1.979-3.763,4.563-2.122,9.337-1.151,14.1,2.464,12.1,5.776,24.123,5.513,36.481-.113,5.337-.844,10.652-4.742,15.074-2.1,2.378-5.93,3.856-9.05,5.669a2.005,2.005,0,0,1-1.576-.3,1.188,1.188,0,0,1,.229-1.311,28.579,28.579,0,0,1,3.887-3.48c6.566-4.529,8.3-10.247,7.125-16.709-1.585-8.692-3.226-17.379-4.82-26.07-.687-3.747-1.3-7.5-1.986-11.25A16.389,16.389,0,0,0,1171.8,780.525Z" transform="translate(-1021.291 -750.396)" fill="#dfb448"/>
      <path id="Path_13" data-name="Path 13" d="M1492.438,759.166A81.388,81.388,0,0,1,1494.5,751c1.16-3.2,3.684-4.439,6.384-3.516,2.918,1,3.807,3.985,1.964,6.6-5.928-1.322-6.557-.838-7.1,4.233-.377,3.555-.23,6.817,3,9.737a6.718,6.718,0,0,1,1.893,3.988c.459,3.21-.315,3.846-4.394,4.488-5.551.874-7.52,3.465-6.439,7.749,1.753,6.945,3.242,13.929,4.785,20.9a12.189,12.189,0,0,1,.026,2.617l-.8.138c-.263-.674-.567-1.341-.784-2.024-2.063-6.5-4.332-12.959-6.059-19.508a16.764,16.764,0,0,1-.136-8.365c.528-2.019,2.792-3.77,4.3-5.633.5-.625,1.052-1.23,1.58-1.843l-.737-.447-3.4,2.075c-2-1.792-1.1-3.551.088-4.956,2.585-3.054.782-5.319-1.768-7.511a5.689,5.689,0,0,0-5.2-1.448c-1.3.227-4.094-.719-4.3-1.457a10.6,10.6,0,0,1,.436-5.721c.084-.286,3.387-.587,4.379-.021a77.225,77.225,0,0,1,8.183,5.76A15.649,15.649,0,0,1,1492.438,759.166Z" transform="translate(-1180.819 -746.725)" fill="#dfb448"/>
      <path id="Path_14" data-name="Path 14" d="M1009.733,768.043l-3.668,1.1c-1.475-2.091-.308-3.765.932-5.15,2.611-2.915-.421-4.828-1.737-7.028-.974-1.629-2.689-1.482-4.771-1.2-1.185.159-3.439-.622-3.776-1.368a4.209,4.209,0,0,1,.41-4.039c.488-.621,3.436-.879,4.364-.349a36.791,36.791,0,0,1,5.942,4.795,15.319,15.319,0,0,1,1.723,2.144c.863-2.775,1.345-5.409,2.538-7.835a3.966,3.966,0,0,1,5.819-1.422,2.8,2.8,0,0,1,1.138,2.454c-.054.426-1.678,1.1-2.493,1.027-1.867-.173-2.821.218-3.021,1.66-.388,2.791-.847,5.578-1.109,8.376-.047.492.585,1.152,1.139,1.526,3.153,2.13,4.108,4.951,4.356,8,.128,1.562-.936,2.344-2.942,2.549a23.912,23.912,0,0,0-4.557.793c-2.554.789-4.043,2.305-3.738,4.516.532,3.848,1.355,7.674,1.755,11.529a70.572,70.572,0,0,1,.091,8.453,6.9,6.9,0,0,1-.614,1.907l-.843-.023c-.326-1.464-.685-2.925-.972-4.393-.84-4.3-1.6-8.619-2.489-12.916-1.117-5.383-.725-10.342,5.859-13.756a1.727,1.727,0,0,0,.579-.556C1009.735,768.7,1009.69,768.52,1009.733,768.043Z" transform="translate(-933.081 -746.616)" fill="#dfb448"/>
      <path id="Path_15" data-name="Path 15" d="M1607.591,768.624c-4.288,7.311-10.938,13.158-18.863,18.156-5.787,3.651-11.768,7.119-17.662,10.668l-.986-.6a10.437,10.437,0,0,1,1.665-1.99c7.668-5.713,15.585-11.237,23-17.134,3.737-2.971,6.6-6.6,9.852-9.932,1.351-1.383.765-2.474-.708-3.588-5.282-3.994-5.51-10.908-.236-14.983a8.247,8.247,0,0,1,5.413-1.553,4.61,4.61,0,0,1,2.9,3.51c.166,2.932-.574,5.888-.773,8.842-.077,1.151.445,2.32.463,3.483a17.111,17.111,0,0,1-.408,4.865c-.109.388-1.971.484-3.027.713Zm-.973-8.8,1.982-.939a13.428,13.428,0,0,0-.577-3.817,3.218,3.218,0,0,0-2.475-1.286c-1.7.349-2.47,1.473-1.536,2.83C1604.778,757.73,1605.742,758.761,1606.618,759.828Z" transform="translate(-1228.698 -746.941)" fill="#dfb448"/>
      <path id="Path_16" data-name="Path 16" d="M1219.4,819.673c1.4-5.173,8.693-5.453,11.641-9.964L1218,810.767c-1.064-4.066,4.1-9.407,9.282-9.342a37.162,37.162,0,0,1,9.165.932c4.305,1.186,4.86,4,2.6,7.177-3.021,4.234-7.838,6.488-13.379,8.148C1223.761,818.253,1221.886,818.881,1219.4,819.673Z" transform="translate(-1047.206 -774.671)" fill="#dfb448"/>
      <path id="Path_17" data-name="Path 17" d="M1735.661,770.676c2.933-4.994,10.371-5.5,13.03-10.075-4.856-1.423-9.416-2.388-14.327.848-.182-1.15-.66-1.979-.348-2.554,2.163-4,5.192-7.988,12.883-7.421,1.869.138,3.758.177,5.606.409,4.388.552,6.512,4.086,4.047,6.927a77.589,77.589,0,0,1-6.271,6.322C1746.666,768.435,1741.532,769.366,1735.661,770.676Z" transform="translate(-1313.118 -748.904)" fill="#dfb448"/>
      <path id="Path_18" data-name="Path 18" d="M1357.587,825.094c2.467-1.537,4.982-3.033,7.376-4.637a11.918,11.918,0,0,0,1.947-2.043,12.025,12.025,0,0,0-3.435-1.264,20.654,20.654,0,0,0-5.159.564c-2.319.486-2.89-.227-2.495-1.824.834-3.368,5.822-6.6,10.232-6.592a42.21,42.21,0,0,1,5.318.193c4.486.582,6.517,3.926,4.159,6.9-3.031,3.822-6.687,7.209-12.359,8.811a40.929,40.929,0,0,1-5.073.779Z" transform="translate(-1118.235 -778.729)" fill="#dfb448"/>
      <path id="Path_19" data-name="Path 19" d="M947.475,852.291a23.33,23.33,0,0,1,2.222-1.7c2.8-1.682,5.705-3.257,8.433-5,.673-.43,1.346-1.524,1.079-1.995a3.4,3.4,0,0,0-2.535-1.075c-3.492.246-6.955.729-10.554,1.139-1-2.844,4.286-8.361,9.427-8.659a37.091,37.091,0,0,1,8.316.692c2.521.436,3.38,1.972,2.958,3.933C965.569,845.442,955.9,852.19,947.475,852.291Z" transform="translate(-907.12 -791.952)" fill="#dfb448"/>
      <path id="Path_20" data-name="Path 20" d="M1072.617,765.383l-2.388-1.275c-5.674,7.4-14.008,12.434-22.743,17.132l-.835-.611c1.2-.991,2.37-2,3.6-2.968,5.272-4.122,10.678-8.146,15.8-12.374,3.285-2.709,3.1-2.935-.376-5.42-5.143-3.681-4.436-8.994,1.578-11.861,3.043-1.45,6.049-.456,6.263,2.344.17,2.212-.566,4.457-.659,6.694a12.522,12.522,0,0,0,.582,4.1C1073.9,762.64,1074.769,764.085,1072.617,765.383Zm-2.479-7.543c.384-2.464,2.39-4.7-.8-6.145-.682-.31-3.71,1-3.958,1.853C1064.63,756.126,1068.212,756.225,1070.138,757.84Z" transform="translate(-958.985 -746.804)" fill="#dfb448"/>
      <path id="Path_21" data-name="Path 21" d="M905.205,780.628a13.459,13.459,0,0,1,1.536-1.722c2.083-1.7,4.326-3.282,6.345-5.022,4.686-4.038,3.938-10.412-1.622-13.766a5.824,5.824,0,0,0-2.6-.372c-3.789-.038-5.958-2.667-4.019-5.195,1.382-1.8,3.458-1.083,5.162-.2a15.445,15.445,0,0,1,2.925,2.172c.877.756,1.628,1.6,2.935,2.9.468-2.564.516-4.654,1.317-6.555a5.443,5.443,0,0,1,3.307-3.032c2.33-.413,3.635,1.263,4.259,2.893.854,2.23-.133,2.979-3.135,2.521-.489-.075-.975-.162-2.19-.365-.181,2.964-.432,5.732-.5,8.5-.171,6.669-2.3,12.614-9.958,16.584-.92.477-1.965.811-2.952,1.211Z" transform="translate(-885.545 -748.056)" fill="#dfb448"/>
      <path id="Path_22" data-name="Path 22" d="M1386.547,960.966c-2.51-1.409-4.917-2.457-6.713-3.943-.575-.476.449-2.118.774-3.221a2.835,2.835,0,0,1,.415-.65c2.375-3.61,2.375-3.61,6.866-1.51,3.651,1.708,3.643,1.7,5.947-1.063,3.254-3.908,2.177-4.178,7.756-1.183,1.338.718,3.479,2.225,3.211,2.749a23.433,23.433,0,0,1-4.583,5.647c-.237.233-2.245-.377-3.217-.857-4.9-2.425-4.862-2.447-7.879,1.326C1388.445,959.11,1387.593,959.877,1386.547,960.966Z" transform="translate(-1130.579 -849.874)" fill="#dfb448"/>
      <path id="Path_23" data-name="Path 23" d="M1888.368,804.553l11.119-7.662c-4.4-2.572-8.174-1.808-11.933-.048-.644-4.33,5.3-9.5,10.495-9.011,2.979.278,6.727-.039,8.333,2.549s-.994,4.566-2.614,6.581a22.623,22.623,0,0,1-10.81,7.448c-1.26.415-2.639.615-3.963.913Z" transform="translate(-1392.262 -767.65)" fill="#dfb448"/>
      <path id="Path_24" data-name="Path 24" d="M1114.016,954.315c-1.671,2.288-2.928,4.121-4.364,5.866-.252.307-1.25.318-1.908.328a2.965,2.965,0,0,1-1.1-.429c-1.78-.806-3.736-2.4-5.281-2.192-1.366.186-2.385,2.335-3.354,3.7-1.027,1.449-2.29,1.663-4.119.961-5.4-2.074-6.058-6.353-1.319-9.351a4.688,4.688,0,0,1,2.22-.239c.354.008.689.336,1.047.5,5.046,2.333,5.047,2.332,7.731-1.584,1.708-2.492,1.97-2.583,5.149-.891C1110.51,951.941,1112.109,953.105,1114.016,954.315Z" transform="translate(-981.009 -851.149)" fill="#dfb448"/>
      <path id="Path_25" data-name="Path 25" d="M1977.332,752.475c-.5.645-.931,1.182-1.332,1.732-3.878,5.317-10.168,8.633-16.442,12.016-4.53,2.442-8.79,5.181-13.245,7.708a13.772,13.772,0,0,1-3.062.854c.249-.858.123-2.017.807-2.524,4.8-3.555,9.687-7.047,14.7-10.418,4.871-3.273,9.907-6.4,14.938-9.53a7.67,7.67,0,0,1,2.725-.728C1976.628,751.554,1976.984,752.12,1977.332,752.475Z" transform="translate(-1420.986 -748.989)" fill="#dfb448"/>
      <path id="Path_26" data-name="Path 26" d="M1091.825,798.416a31.054,31.054,0,0,0,1.192,5.339c.394.99,1.657,1.774,2.53,2.65,1.015-1.006,2.693-1.939,2.894-3.033.327-1.78-.393-3.663-.514-5.509a19.8,19.8,0,0,1,.277-3.17l1.406-.135c.608,2.013,1.36,4.01,1.782,6.046s1.3,3.673,4.726,4.368c.624-4.352-4.4-7.893-2.867-12.06l.979-.239a42.079,42.079,0,0,1,2.576,4.884c.859,2.288,1.874,4.642,1.939,6.982.109,3.97-2.6,4.985-7.212,3.243-.683-.258-2,.336-2.944.674-1.578.567-3.443,2-4.541,1.691a5.153,5.153,0,0,1-3.259-3.313c-.488-2.713-.15-5.514-.15-8.28Z" transform="translate(-981.592 -770.162)" fill="#dfb448"/>
      <path id="Path_27" data-name="Path 27" d="M1224.906,756.115c.267-.908.455-1.66.714-2.4a20.462,20.462,0,0,1,1.573-4.142c1.667-2.709,2.928-3.091,5.443-2.028,2.466,1.041,2.989,2.857,1.471,5.113a1.66,1.66,0,0,1-.608.018c-4.641-2-4.873-1.839-5.431,2.472-.366,2.83-.423,5.807-3.728,8.38-.545-1.046-.884-1.83-1.353-2.567a27.141,27.141,0,0,0-2.926-4.2c-.445-.476-1.83-.44-2.795-.61-1.717-.3-4.411-.187-4.942-.963a5.8,5.8,0,0,1-.346-4.747c.41-1.347,3.8-1.549,5.657-.257C1220.09,751.9,1222.215,753.893,1224.906,756.115Z" transform="translate(-1044.002 -746.627)" fill="#dfb448"/>
      <path id="Path_28" data-name="Path 28" d="M1570.395,751.208c4.369,2.8,6.881,5.9,6.708,9.907-.118,2.71-1.105,5.392-1.4,8.107-.142,1.317.416,2.678.657,4.019l4.768-1.41c1.223,1.8-1.38,7.344-4.174,8.034-2.169.536-4.5-.71-4.551-2.934a32.532,32.532,0,0,1,.839-8.843c.861-3.365.837-6.4-2.359-9.012C1568.036,756.745,1568.737,754.28,1570.395,751.208Z" transform="translate(-1228.115 -748.796)" fill="#dfb448"/>
      <path id="Path_29" data-name="Path 29" d="M1883.05,752.534a8.215,8.215,0,0,1-4.285,6.448c-7.05,4.293-14.24,8.451-21.4,12.63-2.29,1.336-4.674,2.576-7.4,4.071-.65-2.634,1.084-3.86,2.8-4.948,5.971-3.792,12.04-7.492,18.05-11.247,2.273-1.42,4.426-2.957,6.748-4.325C1879.036,754.29,1880.728,753.631,1883.05,752.534Z" transform="translate(-1372.843 -749.479)" fill="#dfb448"/>
      <path id="Path_30" data-name="Path 30" d="M972.562,768.142c-.556,2.452-.895,4.34-1.432,6.195a3.156,3.156,0,0,1-3.933,2.054c-1.433-.335-3.5-1.48-3.592-2.368a25.274,25.274,0,0,1,.466-8.817c1-3.876.838-7.322-2.843-10.329-1.994-1.629-1.648-3.532-.923-5.443.545-1.435,1.549-1.386,2.643-.367,3.663,3.411,5.962,7.136,4.7,11.754a39.789,39.789,0,0,0-1.3,6.675c-.082.857.741,1.766,1.153,2.652,1.057-.393,2.117-.78,3.169-1.181C971.032,768.833,971.366,768.669,972.562,768.142Z" transform="translate(-914.199 -747.311)" fill="#dfb448"/>
      <path id="Path_31" data-name="Path 31" d="M1818.944,758.344a65.845,65.845,0,0,1,2.54-7.054,4.143,4.143,0,0,1,2.921-2.007,9.706,9.706,0,0,1,4.283,1.689c.357.216.1,1.382-.315,1.907a2.592,2.592,0,0,1-1.991.634c-3.645-1.259-4.022.629-4.407,2.582-.421,2.139-.709,4.3-1.342,6.4-.246.818-1.276,1.5-1.95,2.237-.652-.714-1.377-1.4-1.94-2.149a39.247,39.247,0,0,0-3-4.17c-1.158-1.2-2.575-1.965-4.688-.536-1.546,1.045-3.534.443-3.752-1.129-.206-1.48-.011-3.435,1.12-4.424.714-.625,3.949-.352,5.208.382C1814.373,754.307,1816.571,756.457,1818.944,758.344Z" transform="translate(-1349.868 -747.803)" fill="#dfb448"/>
      <path id="Path_32" data-name="Path 32" d="M1253.843,961c5.11-2.456,10.174-4.972,15.344-7.35,4.726-2.174,8.341-5.018,10.515-8.98.86-1.568,1.679-3.622,4.615-3.367,3.347.291,2.892,2.608,3.12,4.363a6.953,6.953,0,0,1-.415,3.309c-.711,1.869-2.654,2.455-4.636,1.43-2.436-1.259-3.737-.451-5.213.926-5.407,5.044-13.286,7.092-20.49,9.946a11.258,11.258,0,0,1-2.573.346Z" transform="translate(-1065.747 -846.735)" fill="#dfb448"/>
      <path id="Path_33" data-name="Path 33" d="M1346.094,769.854a21.51,21.51,0,0,1,2.776-3.422c5.058-4.069,10.243-8.044,15.362-12.067,2.412-1.9,4.747-3.852,7.188-5.725a22.093,22.093,0,0,1,2.848-1.528C1373.8,752.642,1354.032,768.721,1346.094,769.854Z" transform="translate(-1113.282 -746.685)" fill="#dfb448"/>
      <path id="Path_34" data-name="Path 34" d="M1837.95,964.726c4.016-1.282,8.018-2.594,12.052-3.84,5.921-1.828,11.466-3.864,13.643-9.147.417-1.011,2.577-1.6,3.932-2.376.794,1.225,1.91,2.4,2.279,3.694a5.591,5.591,0,0,1-.6,3.3c-.909,2.333-1.852,2.553-4.792,1.678a3.884,3.884,0,0,0-2.692.242c-6.554,5.041-14.862,6.4-23.549,7.033Z" transform="translate(-1366.726 -850.901)" fill="#dfb448"/>
      <path id="Path_35" data-name="Path 35" d="M1584.776,924.676c.7-.248,1.432-.454,2.095-.753,5.552-2.5,11.2-4.889,16.59-7.586,3.278-1.641,6.2-3.363,10.247-1.42a2.849,2.849,0,0,0,2.213-.3c1.721-2.114,4.824-2.094,7.271-3.086.892,2.491-.55,4.55-3.422,5.178-1.269.278-2.406.972-3.681,1.162a40.957,40.957,0,0,1-5.19.258c-1.545.029-3.389-.453-4.586.039-3.841,1.58-7.286,3.758-11.188,5.22-3.07,1.15-6.591,1.582-9.913,2.333Z" transform="translate(-1236.271 -831.406)" fill="#dfb448"/>
      <path id="Path_36" data-name="Path 36" d="M1994.3,789.934c-1.938-.976-3.616-2.419-5.1-.158-.979,1.5-.669,2.544,1.721,2.7,2.718.175,5.423.268,7.6-1.453a5.315,5.315,0,0,1,2.821-.916c-1.2,4.856-7.816,6.126-10.218,10.131l-.791-.344c-.081-.433-.414-.969-.2-1.284,1.247-1.848-.2-2.481-2.091-2.911-3.045-.692-3.708-2.565-2.688-4.382a26.1,26.1,0,0,1,5.081-6.007,4.91,4.91,0,0,1,3.728-.83c.915.455,1.241,1.915,1.326,2.964C1995.546,788.19,1994.788,788.977,1994.3,789.934Z" transform="translate(-1442.449 -765.875)" fill="#dfb448"/>
      <path id="Path_37" data-name="Path 37" d="M1145.3,780.162c-1.779,4.773-9.554,5.715-11.41,10.439-.82-2.355-2.044-3.258-4.589-5.267a4.078,4.078,0,0,1-.944-4.089,9.921,9.921,0,0,1,3.479-4.488,7.512,7.512,0,0,1,4.755-.807c1.005.155,1.912,1.511,2.409,2.469.26.5-.462,1.3-.741,1.967a17.922,17.922,0,0,0-2.387-.582c-1.171-.13-2.629-.469-3.5-.088-1.9.831-1.567,2.178.53,2.787a9.651,9.651,0,0,0,7.642-1.022c1.237-.682,2.508-1.325,3.764-1.986Z" transform="translate(-1000.991 -761.504)" fill="#dfb448"/>
      <path id="Path_38" data-name="Path 38" d="M1958.631,798.181a10.825,10.825,0,0,1-.963,2.9c-1.21,1.826-1.607,3.295.238,5.226,2.589,2.709,1.5,7.37-1.663,9.824-1.931,1.5-3.784,1.3-4.9-.633-2.15-3.715-.672-7.316,1.069-10.769a64.584,64.584,0,0,1,4.677-6.945Zm-1.717,12.549-3.128-2.251c-1.086,1.826-1.657,3.209.624,4.443Z" transform="translate(-1424.603 -772.796)" fill="#dfb448"/>
      <path id="Path_39" data-name="Path 39" d="M1693.158,833.613c4.359.156,7.976,4.774,6.158,7.5-3.035,4.548-3.31,4.612-8.273,1.2-1.095-.753-2.855-1.993-2.618-2.639a27.654,27.654,0,0,1,3.58-5.793C1692.17,833.645,1692.938,833.659,1693.158,833.613Z" transform="translate(-1289.668 -791.257)" fill="#dfb448"/>
      <path id="Path_40" data-name="Path 40" d="M1462.909,819.011c.433,2.754-.966,4.822-2.956,6.541-.531.459-2.841.3-3.67-.213a5.39,5.39,0,0,1-1.9-2.944c-1.448-4.235,3.516-16.519,8.481-19.541-.8,1.979-1.546,3.973-2.429,5.931-.788,1.745-1.775,3.436-2.583,5.175a7.2,7.2,0,0,0-.669,2.351C1456.908,819.408,1458.792,820.416,1462.909,819.011Z" transform="translate(-1168.952 -775.408)" fill="#dfb448"/>
      <path id="Path_41" data-name="Path 41" d="M1235.618,895.817c-1.226,1.928-2.362,3.807-3.641,5.626a2.026,2.026,0,0,1-1.583.3,50.7,50.7,0,0,1-6.241-3.557,2.267,2.267,0,0,1-.427-2.4c2.368-5.538,5.219-6.046,10.444-1.918A9.366,9.366,0,0,1,1235.618,895.817Z" transform="translate(-1050.146 -820.9)" fill="#dfb448"/>
      <path id="Path_42" data-name="Path 42" d="M942.739,961.334c-2.7-1.48-4.959-2.612-7.029-3.921a1.713,1.713,0,0,1-.6-1.842,46.236,46.236,0,0,1,3.163-4.694c.186-.259.756-.646.889-.592a56.911,56.911,0,0,1,6.851,3.022,2.266,2.266,0,0,1,.424,2.519A55.163,55.163,0,0,1,942.739,961.334Z" transform="translate(-901.462 -851.374)" fill="#dfb448"/>
      <path id="Path_43" data-name="Path 43" d="M1737.269,949.1c-1.593,2.481-2.788,4.35-4,6.213-.084.129-.384.314-.462.285a49.1,49.1,0,0,1-6.161-2.511,2.4,2.4,0,0,1-.678-2.435,7.719,7.719,0,0,1,1.9-3.028c.771-.811,2.422-2.128,2.85-1.959A58.262,58.262,0,0,1,1737.269,949.1Z" transform="translate(-1308.982 -848.989)" fill="#dfb448"/>
      <path id="Path_44" data-name="Path 44" d="M1652.032,801.739c-.779,1.767-1.625,3.518-2.319,5.3-.66,1.7-2.228,3.405-.225,5.347l2.7-1.34c1.3,2.361-.962,6.963-3.8,7.7-.656.17-2.294-.384-2.423-.8-.586-1.9-1.334-3.921-1.032-5.8a17.948,17.948,0,0,1,6.2-10.671Z" transform="translate(-1267.232 -774.698)" fill="#dfb448"/>
      <path id="Path_45" data-name="Path 45" d="M1329.367,782.486c0-3.673.17-6.793-.042-9.9-.274-4.011-1.373-7.743-5.96-10.443-.928-.546-.487-2.478-.716-4.035C1331.112,760.432,1335.9,777.57,1329.367,782.486Z" transform="translate(-1101.201 -752.352)" fill="#dfb448"/>
      <path id="Path_46" data-name="Path 46" d="M1694.411,760.08c.217,4.146-5.483,7.414-2.262,11.58l3.557-.313a24.379,24.379,0,0,1-.3,3.175,4.8,4.8,0,0,1-1,1.766c-1.313,1.679-3.418,1.909-4.768.285-1.02-1.226-2.129-2.955-1.769-4.217a106.713,106.713,0,0,1,4.41-11.25c.114-.274.524-.5.853-.689A7.334,7.334,0,0,1,1694.411,760.08Z" transform="translate(-1289.352 -753.367)" fill="#dfb448"/>
      <path id="Path_47" data-name="Path 47" d="M1115.6,759.165c6.312-5.5,14.655-8.887,22.363-12.934l1,.609c-.71,1.021-1.145,2.273-2.189,3.013a66.183,66.183,0,0,1-6.483,3.736c-3.724,2.041-7.437,4.1-11.245,6.044a11.361,11.361,0,0,1-3.019.541Z" transform="translate(-994.515 -746.231)" fill="#dfb448"/>
      <path id="Path_48" data-name="Path 48" d="M1962.657,935.339c-.456,2.1-4.386,4.313-6.925,3.977-3.044-.4-2.905-2.357-2.511-3.981a28.339,28.339,0,0,1,2.3-5.472c.8-1.638.354-2.394-2.084-2.442a7.548,7.548,0,0,1-2.531-1.072c.669-.748,1.124-1.843,2.046-2.182,3.208-1.182,6,.387,5.476,3.11-.394,2.047-1.487,4.008-2.049,6.043-.794,2.878.261,3.526,3.917,2.583C1961.027,935.714,1961.767,935.551,1962.657,935.339Z" transform="translate(-1424.931 -837.712)" fill="#dfb448"/>
      <path id="Path_49" data-name="Path 49" d="M1547.581,835.169l2.874-1.166c1.009,1.9-1.278,6.674-3.521,6.923a3.924,3.924,0,0,1-3.057-1.659,7.555,7.555,0,0,1-.167-4.964,81.408,81.408,0,0,1,4.8-9.094c.2-.361.833-.578,1.622-1.1C1550.308,828.081,1545.548,830.989,1547.581,835.169Z" transform="translate(-1214.928 -786.362)" fill="#dfb448"/>
      <path id="Path_50" data-name="Path 50" d="M1751.584,816.227l3.607-.353a4.729,4.729,0,0,1-2.264,5.817c-1.616.792-3.152.85-4.234-.625-2.4-3.277.294-10.012,5.618-11.716C1753.457,811.5,1752.6,813.654,1751.584,816.227Z" transform="translate(-1320.278 -778.756)" fill="#dfb448"/>
      <path id="Path_51" data-name="Path 51" d="M1996.418,828.462c.454,3.682-3.816,6.776-1.847,10.806.943-.575,1.675-1.02,2.409-1.465,2.294,2.414,1.348,5.183-2.2,6.062a3.259,3.259,0,0,1-2.339-.6,4.1,4.1,0,0,1-1.368-2.381c-.433-4.4.36-8.585,4.375-12.039A4.166,4.166,0,0,1,1996.418,828.462Z" transform="translate(-1445.571 -788.603)" fill="#dfb448"/>
      <path id="Path_52" data-name="Path 52" d="M1873.559,840.541c-1.59,5.35-7.3,10.013-2.221,16.36l2.844-3.552c1.282,1.919-.257,6.164-2.457,6.45-1.086.141-3.287-.756-3.5-1.454-.681-2.229-1.4-4.715-.758-6.861,1.038-3.466,3.126-6.748,4.841-10.086C1872.49,841.041,1873.13,840.823,1873.559,840.541Z" transform="translate(-1381.807 -794.827)" fill="#dfb448"/>
      <path id="Path_53" data-name="Path 53" d="M903.428,944.779q-.373,3.953-.745,7.906l.82.135,2.352-1.515c2.293,1.155,1.657,2.72.763,4.006-.595.855-2.4,2.084-2.98,1.9-1.406-.459-3.116-1.515-3.449-2.568-1.1-3.477-.139-6.839,1.725-10Z" transform="translate(-883.275 -848.468)" fill="#dfb448"/>
      <path id="Path_54" data-name="Path 54" d="M1823.456,957.2c-.308-3.056,5.819-5.07,2.544-8.766l-2.623.667c-.241-2.079,1.62-4.357,3.918-4.838,1.966-.412,3.337.267,3.177,1.735a17.626,17.626,0,0,1-1.672,6.273c-1,1.919-2.848,3.574-4.324,5.344Z" transform="translate(-1359.206 -848.213)" fill="#dfb448"/>
      <path id="Path_55" data-name="Path 55" d="M976.757,934.219a6.377,6.377,0,0,1,2.76-6.222c1.891-1.344,3.663-.493,3.907,1.044a23.158,23.158,0,0,1-.124,7.347c-.255,1.545-1.408,3-2.158,4.5l-1.173-.247c.191-.921.359-1.845.578-2.762a22.913,22.913,0,0,0,.922-3.969c.03-.586-.859-1.2-1.331-1.8-.689.388-1.385.769-2.062,1.169C977.783,933.449,977.531,933.662,976.757,934.219Z" transform="translate(-922.955 -839.547)" fill="#dfb448"/>
      <path id="Path_56" data-name="Path 56" d="M914.53,862.227c3.177,2.569-1.09,5.111,1.2,7.457.973-.667,1.84-1.26,2.709-1.851a3.661,3.661,0,0,1-.836,5.632c-1.817,1-3.858.4-4.44-1.514C912.215,868.825,912.855,865.776,914.53,862.227Z" transform="translate(-889.975 -806.002)" fill="#dfb448"/>
      <path id="Path_57" data-name="Path 57" d="M1799.1,886.332l3.033-1.775c1.509,1.916,1.033,4.551-1.215,5.174a5.215,5.215,0,0,1-3.786-.9c-1.493-1.344-.8-7.444.661-8.84a1.8,1.8,0,0,1,1.255-.434c.414.185.882.691.837,1.022-.12.869-.612,1.705-.754,2.574A22.912,22.912,0,0,0,1799.1,886.332Z" transform="translate(-1345.266 -814.921)" fill="#dfb448"/>
    </g>
  </g>
</svg>
