<svg id="Group_54" data-name="Group 54" xmlns="http://www.w3.org/2000/svg" xmlns:xlink="http://www.w3.org/1999/xlink" width="21.03" height="37.701" viewBox="0 0 21.03 37.701">
  <defs>
    <linearGradient id="linear-gradient" x1="0.5" x2="0.5" y2="1" gradientUnits="objectBoundingBox">
      <stop offset="0" stop-color="#29b3ba"/>
      <stop offset="1" stop-color="#46eeaa"/>
    </linearGradient>
  </defs>
  <path id="Path_8199" data-name="Path 8199" d="M132.753,77.61a.323.323,0,0,0,.323-.323,1.763,1.763,0,0,1,1.761-1.761.323.323,0,0,0,0-.647,2.41,2.41,0,0,0-2.408,2.408A.323.323,0,0,0,132.753,77.61Z" transform="translate(-130.689 -69.181)" fill="url(#linear-gradient)"/>
  <path id="Path_8200" data-name="Path 8200" d="M130.575,23.164a1.071,1.071,0,0,0-.745-1.019V20.928a.323.323,0,1,0-.647,0v1.218a1.073,1.073,0,0,0-.629.535l-4.709-3.469a1.067,1.067,0,0,0-.61-1.538V16.456a.323.323,0,1,0-.647,0v1.218a1.069,1.069,0,0,0-.447.279l-4.786-3.515V8.105a3.661,3.661,0,0,0-3.338-3.647V3.025a1.068,1.068,0,0,0,0-2.037V.323a.323.323,0,1,0-.647,0V.988a1.069,1.069,0,0,0,0,2.037V4.459a3.666,3.666,0,0,0-3.338,3.647V20.167a1.181,1.181,0,0,0-.487.955V37.378a.323.323,0,0,0,.323.323h19.179a1.185,1.185,0,0,0,1.183-1.183V30.1a1.18,1.18,0,0,0-.4-.886V24.182A1.071,1.071,0,0,0,130.575,23.164Zm-1.069-.422a.422.422,0,1,1-.422.422A.422.422,0,0,1,129.506,22.742Zm-6.594-4.472a.422.422,0,1,1-.422.422A.422.422,0,0,1,122.912,18.27Zm-1.057.274a1.058,1.058,0,0,0,.734,1.167v4.716h-4.743v-3.3a1.182,1.182,0,0,0-.49-.957V15.24ZM113.694,1.584a.422.422,0,1,1-.422.422A.422.422,0,0,1,113.694,1.584Zm-3.015,6.521a3.015,3.015,0,1,1,6.03,0V19.941l-.046,0H115.9v-9.9a.846.846,0,0,0-.845-.845h-2.713a.846.846,0,0,0-.845.845v9.9h-.764l-.049,0V8.105Zm4.569,11.833H112.14v-9.9a.2.2,0,0,1,.2-.2h2.713a.2.2,0,0,1,.2.2Zm13.8,17.116h-2.655v-5.03a.323.323,0,0,0-.647,0v5.03H110.192V35.722h10.054a.323.323,0,0,0,0-.647H110.192V33.486h2.486a.323.323,0,0,0,0-.647h-2.486V22.363h.878v6.812a.323.323,0,1,0,.647,0V22.363H112.9v1.942a.323.323,0,0,0,.647,0V22.363h1.6a.323.323,0,0,0,0-.647h-4.951v-.594a.537.537,0,0,1,.537-.537h5.934a.537.537,0,0,1,.537.537v3.627a.323.323,0,0,0,.323.323h5.332a.537.537,0,0,1,.537.537v1.21H119.96a.323.323,0,0,0,0,.647h3.432v1.77a.323.323,0,0,0,.323.323h5.332a.537.537,0,0,1,.537.537v.737h-3.317a.323.323,0,0,0,0,.647h3.317v1.073h-1.769a.323.323,0,1,0,0,.647h1.769v3.318A.537.537,0,0,1,129.047,37.054Zm0-8.142h-5.009v-3.3a1.185,1.185,0,0,0-.8-1.12V19.71a1.048,1.048,0,0,0,.127-.051l5.108,3.763a1.072,1.072,0,0,0,.712.76v4.738A1.2,1.2,0,0,0,129.047,28.912Z" transform="translate(-109.545 0)" fill="url(#linear-gradient)"/>
  <path id="Path_8201" data-name="Path 8201" d="M149.8,143.73a.323.323,0,0,0-.323.323v4.013a.323.323,0,0,0,.647,0v-4.013A.323.323,0,0,0,149.8,143.73Z" transform="translate(-146.44 -132.793)" fill="url(#linear-gradient)"/>
</svg>
