<svg xmlns="http://www.w3.org/2000/svg" xmlns:xlink="http://www.w3.org/1999/xlink" width="19.546" height="21.718" viewBox="0 0 19.546 21.718">
  <defs>
    <linearGradient id="linear-gradient" x1="0.5" x2="0.5" y2="1" gradientUnits="objectBoundingBox">
      <stop offset="0" stop-color="#29b3ba"/>
      <stop offset="1" stop-color="#46eeaa"/>
    </linearGradient>
  </defs>
  <path id="ic_assignment_ind_24px" d="M20.375,3.172H15.836a3.245,3.245,0,0,0-6.125,0H5.172A2.178,2.178,0,0,0,3,5.344v15.2a2.178,2.178,0,0,0,2.172,2.172h15.2a2.178,2.178,0,0,0,2.172-2.172V5.344A2.178,2.178,0,0,0,20.375,3.172Zm-7.6,0a1.086,1.086,0,1,1-1.086,1.086A1.089,1.089,0,0,1,12.773,3.172Zm0,4.344a3.258,3.258,0,1,1-3.258,3.258A3.253,3.253,0,0,1,12.773,7.515Zm6.515,13.031H6.258v-1.52c0-2.172,4.344-3.366,6.515-3.366s6.515,1.195,6.515,3.366Z" transform="translate(-3 -1)" fill="url(#linear-gradient)"/>
</svg>
