<svg xmlns="http://www.w3.org/2000/svg" xmlns:xlink="http://www.w3.org/1999/xlink" width="37.055" height="29.903" viewBox="0 0 37.055 29.903">
  <defs>
    <linearGradient id="linear-gradient" x1="0.5" x2="0.5" y2="1" gradientUnits="objectBoundingBox">
      <stop offset="0" stop-color="#29b3ba"/>
      <stop offset="1" stop-color="#46eeaa"/>
    </linearGradient>
  </defs>
  <g id="Group_30" data-name="Group 30" transform="translate(0)">
    <path id="Path_110" data-name="Path 110" d="M-498.615,197.8a4.447,4.447,0,0,1,.281-.7q1.248-2.05,2.526-4.083a11.643,11.643,0,0,1,.909-1.253,1.948,1.948,0,0,0,.35-1.912,10.68,10.68,0,0,1-.34-1.528l.8,2.063c.022-.15.064-.345.077-.542a2.648,2.648,0,0,1,.072-.647v1.09l.094.02a3,3,0,0,0,.087-.534c-.015-1.114-.049-2.227-.068-3.341a10.844,10.844,0,0,1,.6-4.168,9.684,9.684,0,0,1,1.121-1.933c-.6,1.842-.09,3.646.111,5.459.094-.73.14-1.47.293-2.187a25.175,25.175,0,0,1,.834-3.178,6.315,6.315,0,0,1,1.031-1.541c.083-.11.3-.12.456-.176a1.411,1.411,0,0,1,.033.479,13.1,13.1,0,0,0-.637,4.088,15.425,15.425,0,0,0,.195,1.554l.122-.006c0-.094,0-.189,0-.283a11.527,11.527,0,0,1,.631-4.891,7.041,7.041,0,0,1,2.313-2.989,27.891,27.891,0,0,1,7.051-3.853c.1-.039.2-.075.307-.109a.226.226,0,0,1,.073,0c-.346.5-.718.992-1.03,1.516s-.557,1.076-.832,1.617l.089.051c.057-.086.117-.171.171-.259.44-.717.9-1.426,1.314-2.156a3.881,3.881,0,0,1,2.472-1.61l-1.257,1.878.084.065c.075-.107.144-.217.225-.319.723-.914,1.426-1.846,2.188-2.727a2.086,2.086,0,0,1,.934-.54,55.063,55.063,0,0,1,10.577-2.243,4.719,4.719,0,0,1,2.8.591l-1.221.941.067.119h.655c-.112.128-.178.219-.259.293a12.515,12.515,0,0,1-2.592,1.958c-1.114.589-2.172,1.289-3.307,1.831-.988.471-2.047.795-3.08,1.171-.75.273-1.508.527-2.257.807,1.957-.282,3.944-.466,5.715-1.782-.084.209-.112.306-.159.391a8.73,8.73,0,0,1-2.861,3.233,13.978,13.978,0,0,1-1.741.864c-.5.232-1.028.41-1.52.66a4.868,4.868,0,0,1-2.117.531c-1.585.035-3.171.011-4.816.011,3.18-2.573,6.482-4.924,9.759-7.317-.077.042-.158.078-.232.126a135.371,135.371,0,0,0-11.6,8.358,68.292,68.292,0,0,0-8.423,7.925,34.275,34.275,0,0,0-4.612,6.353c-.31.584-.519,1.221-.792,1.826a.78.78,0,0,1-.3.35c-.414.23-.846.427-1.272.637Zm6.033-16.548c-.035.08-.078.157-.105.24a7.883,7.883,0,0,0-.3,3.053q.1,1.521.181,3.045c.019.379,0,.761,0,1.141l.1,0c.017-.847.06-1.694.044-2.54A20.52,20.52,0,0,1-492.582,181.255Zm1.287,5.324a7.662,7.662,0,0,0,.231-.907c.119-.9.226-1.8.308-2.71a12.928,12.928,0,0,1,.646-3.367,7.458,7.458,0,0,0-.86,3.029C-491.092,183.93-491.187,185.24-491.3,186.579Zm.887-1.952a17.008,17.008,0,0,1,.925-5.64A9.5,9.5,0,0,0-490.409,184.627Z" transform="translate(498.615 -167.947)" fill="url(#linear-gradient)"/>
    <path id="Path_111" data-name="Path 111" d="M-400.928,319.606c.682-.752,1.3-1.55,2.039-2.227,2.225-2.054,4.486-4.069,6.754-6.076a1.5,1.5,0,0,1,.881-.322c.84-.03,1.684.014,2.526.029.53.009,1.062.057,1.588.018.505-.038,1-.168,1.52-.26-.1.119-.2.253-.316.377a32.267,32.267,0,0,1-4.259,3.6,10.58,10.58,0,0,0-1.405,1.234,10.021,10.021,0,0,1-6.916,3.379C-399.309,319.407-400.1,319.518-400.928,319.606Z" transform="translate(408.896 -299.118)" fill="url(#linear-gradient)"/>
    <path id="Path_112" data-name="Path 112" d="M-429.568,414.061c.173-.249.309-.462.463-.661a15.426,15.426,0,0,0,1.024-1.316,1.781,1.781,0,0,1,1.708-.823,11.367,11.367,0,0,0,3.543-.4c.407-.137.805-.3,1.208-.454l.1.077c-.411.521-.79,1.071-1.239,1.557a5.612,5.612,0,0,1-3.4,1.576c-1.044.169-2.093.3-3.141.444A2.392,2.392,0,0,1-429.568,414.061Z" transform="translate(435.2 -390.63)" fill="url(#linear-gradient)"/>
    <path id="Path_113" data-name="Path 113" d="M-435.573,463.334h-1.8C-437.164,462.932-436.389,462.94-435.573,463.334Z" transform="translate(442.366 -438.966)" fill="url(#linear-gradient)"/>
    <path id="Path_114" data-name="Path 114" d="M-430.857,458.034l-1.656-.213C-432.323,457.519-431.35,457.646-430.857,458.034Z" transform="translate(437.905 -434.023)" fill="url(#linear-gradient)"/>
  </g>
</svg>
