<svg xmlns="http://www.w3.org/2000/svg" width="1027.66" height="356.879" viewBox="0 0 1027.66 356.879">
  <g id="Group_21" data-name="Group 21" transform="translate(-361.779 -3686.764)" opacity="0.25">
    <g id="Group_12" data-name="Group 12" transform="translate(452.206 3843.079)">
      <g id="Group_11" data-name="Group 11">
        <path id="Path_58" data-name="Path 58" d="M484.448,3877.041l-3.071,2.382a1.5,1.5,0,0,0-.576,1.268l.221,3.88a1.5,1.5,0,0,1-2.335,1.322l-3.214-2.185a1.5,1.5,0,0,0-1.384-.157l-3.622,1.409a1.5,1.5,0,0,1-1.979-1.811l1.085-3.733a1.494,1.494,0,0,0-.278-1.364l-2.46-3.01a1.5,1.5,0,0,1,1.112-2.442l3.885-.122a1.5,1.5,0,0,0,1.212-.686l2.1-3.269a1.5,1.5,0,0,1,2.666.3l1.316,3.657a1.5,1.5,0,0,0,1.027.941l3.759.989A1.5,1.5,0,0,1,484.448,3877.041Z" transform="translate(-466.494 -3867.835)" fill="none" stroke="#f8a12b" stroke-linecap="round" stroke-linejoin="round" stroke-width="1"/>
        <path id="Path_59" data-name="Path 59" d="M468.793,3874.53l4.419.159a1.835,1.835,0,0,0,1.713-1.025l1.559-3.178" transform="translate(-466.809 -3868.198)" fill="none" stroke="#f8a12b" stroke-linecap="round" stroke-linejoin="round" stroke-width="1"/>
      </g>
    </g>
    <g id="Group_14" data-name="Group 14" transform="translate(930.311 3797.58)">
      <g id="Group_13" data-name="Group 13">
        <path id="Path_60" data-name="Path 60" d="M1029.935,3819.913l-1.6,1.243a.781.781,0,0,0-.3.661l.115,2.026a.781.781,0,0,1-1.218.69l-1.678-1.141a.782.782,0,0,0-.722-.082l-1.891.736a.781.781,0,0,1-1.033-.947l.566-1.948a.784.784,0,0,0-.145-.713l-1.284-1.571a.781.781,0,0,1,.58-1.274l2.028-.064a.781.781,0,0,0,.633-.358l1.1-1.707a.781.781,0,0,1,1.392.158l.687,1.91a.782.782,0,0,0,.536.49l1.962.517A.781.781,0,0,1,1029.935,3819.913Z" transform="translate(-1020.563 -3815.107)" fill="none" stroke="#f8a12b" stroke-linecap="round" stroke-linejoin="round" stroke-width="1"/>
        <path id="Path_61" data-name="Path 61" d="M1021.763,3818.6l2.307.083a.957.957,0,0,0,.894-.534l.815-1.659" transform="translate(-1020.728 -3815.297)" fill="none" stroke="#f8a12b" stroke-linecap="round" stroke-linejoin="round" stroke-width="1"/>
      </g>
    </g>
    <circle id="Ellipse_6" data-name="Ellipse 6" cx="1.667" cy="1.667" r="1.667" transform="translate(827.371 3741.568)" stroke-width="1" stroke="#f8a12b" stroke-linecap="round" stroke-linejoin="round" fill="none"/>
    <path id="Path_62" data-name="Path 62" d="M1150.822,3841.868a3.907,3.907,0,1,1-4.258,3.52A3.906,3.906,0,0,1,1150.822,3841.868Z" transform="translate(-107.524 -21.194)" fill="none" stroke="#f8a12b" stroke-linecap="round" stroke-linejoin="round" stroke-width="1"/>
    <g id="Group_20" data-name="Group 20" transform="translate(362.279 3687.264)">
      <g id="Group_19" data-name="Group 19">
        <g id="Group_18" data-name="Group 18">
          <ellipse id="Ellipse_7" data-name="Ellipse 7" cx="9.68" cy="8.241" rx="9.68" ry="8.241" transform="translate(200.721 190.482)" fill="none" stroke="#f8a12b" stroke-linecap="round" stroke-linejoin="round" stroke-width="1"/>
          <rect id="Rectangle_394" data-name="Rectangle 394" width="5.475" height="13.301" transform="translate(207.933 176.603)" stroke-width="1" stroke="#f8a12b" stroke-linecap="round" stroke-linejoin="round" fill="none"/>
          <path id="Path_63" data-name="Path 63" d="M608.591,3876.5l-2.526-21.119a.734.734,0,0,0-1.461.007l-2.318,21.117a5.465,5.465,0,0,0-3,4.756c0,3.074,2.758,5.566,6.16,5.566s6.159-2.492,6.159-5.566A5.468,5.468,0,0,0,608.591,3876.5Z" transform="translate(-394.773 -3710.223)" fill="none" stroke="#f8a12b" stroke-linecap="round" stroke-linejoin="round" stroke-width="1"/>
          <path id="Path_64" data-name="Path 64" d="M442.859,3970.912c0,2.88-2.743,5.215-6.127,5.215s-6.126-2.335-6.126-5.215,2.743-5.215,6.126-5.215S442.859,3968.032,442.859,3970.912Z" transform="translate(-371.647 -3725.438)" fill="none" stroke="#f8a12b" stroke-linecap="round" stroke-linejoin="round" stroke-width="1"/>
          <rect id="Rectangle_395" data-name="Rectangle 395" width="3.465" height="8.417" transform="translate(63.525 231.476)" stroke-width="1" stroke="#f8a12b" stroke-linecap="round" stroke-linejoin="round" fill="none"/>
          <path id="Path_65" data-name="Path 65" d="M439.277,3945.756l-1.6-13.365a.465.465,0,0,0-.925.005l-1.467,13.363a3.459,3.459,0,0,0-1.9,3.01,3.918,3.918,0,0,0,7.8,0A3.458,3.458,0,0,0,439.277,3945.756Z" transform="translate(-372.028 -3720.814)" fill="none" stroke="#f8a12b" stroke-linecap="round" stroke-linejoin="round" stroke-width="1"/>
          <path id="Path_66" data-name="Path 66" d="M362.279,4068.181h3.986V4040.85h9.881c-6.807-4.738-5.186-22.426-5.186-22.426,2.593-30.639,56.405-53.7,56.405-53.7s53.813,23.058,56.406,53.7c0,0,1.621,17.688-5.186,22.426l13.158.44c-10.757-7.487-8.2-35.437-8.2-35.437,4.1-48.415,89.132-84.851,89.132-84.851s85.034,36.436,89.133,84.851c0,0,2.561,27.951-8.2,35.438l8.463-.867,4.963-76.043,17.768-.045,4.032,67.124h5.125v-47.421H738.1v47.421h7.687l-.407-79.084h50.678l.407,58.65H825.1v-75.494l-5.512-3.526a21.129,21.129,0,0,1-9.743-17.8V3907.7h54.237v6.721a21.129,21.129,0,0,1-9.84,17.86l-4.569,2.888,1.372,75.855h12.745c-8.5-8-6.474-37.851-6.474-37.851,3.237-51.713,70.4-90.629,70.4-90.629s67.161,38.917,70.4,90.629c0,0,2.023,29.854-6.473,37.851l9.815-.386V3958.3l12.812.142v52.581h5.694V3983.17h3.7l-.206-1.2c-2.4-2.191-1.83-10.368-1.83-10.368.915-14.164,19.9-24.822,19.9-24.822s18.989,10.658,19.9,24.822c0,0,.572,8.177-1.83,10.368l-.636,1.677h4.177v49.735h6.454v-40.1h10.661v-22.775c-4.63-4.221-3.528-19.982-3.528-19.982,1.764-27.3,38.363-47.844,38.363-47.844s36.6,20.545,38.363,47.844c0,0,1.1,15.761-3.527,19.982v22.775h14.382v40.1h8.256v-32.868h19.076v32.868h17.936v-16.964l3.462-.221c-2.053-1.84-1.628-8.779-1.628-8.779.671-12.018,16.694-21.2,16.694-21.2s16.183,8.9,17.063,20.9c0,0,.546,6.93-1.475,8.8l3.465.49v28.5h6.559c-5.107-2.772-3.955-13.24-3.955-13.24,1.838-18.131,42.012-32,42.012-32s40.328,13.4,42.371,31.511c0,0,1.271,10.454-3.8,13.286v5.486l10.072.256c-2.726-1.937-1.74-8.63-1.74-8.63,1.617-11.6,24.241-19.288,24.241-19.288s21.8,9.843,22.322,21.543c0,0,.353,6.758-2.542,8.423h6.246v17.648" transform="translate(-362.279 -3714.038)" fill="none" stroke="#f8a12b" stroke-linecap="round" stroke-linejoin="round" stroke-width="1"/>
          <path id="Path_67" data-name="Path 67" d="M790.665,3994.136c2.973-2.191,2.264-10.368,2.264-10.368-1.132-14.163-24.632-24.822-24.632-24.822s-23.5,10.659-24.632,24.822c0,0-.708,8.177,2.265,10.368" transform="translate(-414.557 -3724.512)" fill="none" stroke="#f8a12b" stroke-linecap="round" stroke-linejoin="round" stroke-width="1"/>
          <path id="Path_68" data-name="Path 68" d="M927.63,3845.171c2.4-2.039,1.83-9.651,1.83-9.651-.916-13.183-19.9-23.1-19.9-23.1s-18.988,9.922-19.9,23.1c0,0-.572,7.612,1.83,9.651" transform="translate(-434.575 -3704.422)" fill="none" stroke="#f8a12b" stroke-linecap="round" stroke-linejoin="round" stroke-width="1"/>
          <path id="Path_69" data-name="Path 69" d="M857.8,3759.782c3.578-2.641,2.726-12.5,2.726-12.5-1.363-17.083-29.644-29.938-29.644-29.938s-28.281,12.855-29.644,29.938c0,0-.852,9.862,2.726,12.5" transform="translate(-422.449 -3691.387)" fill="none" stroke="#f8a12b" stroke-linecap="round" stroke-linejoin="round" stroke-width="1"/>
          <path id="Path_70" data-name="Path 70" d="M1023.8,3873.371c0,3.845-3.533,6.962-7.892,6.962s-7.892-3.117-7.892-6.962,3.534-6.962,7.892-6.962S1023.8,3869.526,1023.8,3873.371Z" transform="translate(-450.81 -3711.825)" fill="none" stroke="#f8a12b" stroke-linecap="round" stroke-linejoin="round" stroke-width="1"/>
          <rect id="Rectangle_396" data-name="Rectangle 396" width="4.464" height="14.207" transform="translate(563.082 140.292)" stroke-width="1" stroke="#f8a12b" stroke-linecap="round" stroke-linejoin="round" fill="none"/>
          <rect id="Rectangle_397" data-name="Rectangle 397" width="4.483" height="5.644" transform="translate(563.062 134.648)" stroke-width="1" stroke="#f8a12b" stroke-linecap="round" stroke-linejoin="round" fill="none"/>
          <path id="Path_71" data-name="Path 71" d="M1011.769,3827.342a16.893,16.893,0,0,1-4.529-16.615c-.081.083-.17.154-.25.239a16.789,16.789,0,0,0,.622,23.548,16.308,16.308,0,0,0,27.2-7.3A16.338,16.338,0,0,1,1011.769,3827.342Z" transform="translate(-450.05 -3704.191)" fill="none" stroke="#f8a12b" stroke-linecap="round" stroke-linejoin="round" stroke-width="1"/>
          <path id="Path_72" data-name="Path 72" d="M1238.206,3900.373a4.166,4.166,0,1,1-4.166-4.186A4.176,4.176,0,0,1,1238.206,3900.373Z" transform="translate(-481.228 -3715.908)" fill="none" stroke="#f8a12b" stroke-linecap="round" stroke-linejoin="round" stroke-width="1"/>
          <rect id="Rectangle_398" data-name="Rectangle 398" width="2.357" height="6.756" transform="translate(751.75 173.229)" stroke-width="1" stroke="#f8a12b" stroke-linecap="round" stroke-linejoin="round" fill="none"/>
          <rect id="Rectangle_399" data-name="Rectangle 399" width="2.367" height="2.98" transform="translate(751.74 169.925)" stroke-width="1" stroke="#f8a12b" stroke-linecap="round" stroke-linejoin="round" fill="none"/>
          <path id="Path_73" data-name="Path 73" d="M1231.79,3873.184a8.918,8.918,0,0,1,1.25-9.005c-.057.023-.115.04-.171.064a8.864,8.864,0,0,0-4.586,11.559,8.61,8.61,0,0,0,14.718,2.1A8.625,8.625,0,0,1,1231.79,3873.184Z" transform="translate(-480.914 -3711.519)" fill="none" stroke="#f8a12b" stroke-linecap="round" stroke-linejoin="round" stroke-width="1"/>
          <rect id="Rectangle_400" data-name="Rectangle 400" width="19.664" height="9.831" transform="translate(635.869 234.434)" stroke-width="1" stroke="#f8a12b" stroke-linecap="round" stroke-linejoin="round" fill="none"/>
          <rect id="Rectangle_401" data-name="Rectangle 401" width="9.965" height="17.349" transform="translate(640.933 217.085)" stroke-width="1" stroke="#f8a12b" stroke-linecap="round" stroke-linejoin="round" fill="none"/>
          <path id="Path_74" data-name="Path 74" d="M1097.794,3926.442H1120s1.423,10.7-6.833,10.7H1103.2S1095.8,3937.14,1097.794,3926.442Z" transform="translate(-463.073 -3720.056)" fill="none" stroke="#f8a12b" stroke-linecap="round" stroke-linejoin="round" stroke-width="1"/>
          <path id="Path_75" data-name="Path 75" d="M1107.736,3896.193c-1.116,8.293-2.752,19.987-3.352,24.272a1.456,1.456,0,0,0,1.45,1.657h8.205a1.463,1.463,0,0,0,1.435-1.75l-4.855-24.262A1.462,1.462,0,0,0,1107.736,3896.193Z" transform="translate(-464.021 -3715.736)" fill="none" stroke="#f8a12b" stroke-linecap="round" stroke-linejoin="round" stroke-width="1"/>
          <path id="Path_76" data-name="Path 76" d="M1311.637,3892.776l-2.837,31.844a.926.926,0,0,0,.922,1.009h5.832a.926.926,0,0,0,.922-1.013l-3-31.844A.926.926,0,0,0,1311.637,3892.776Z" transform="translate(-492.048 -3715.324)" fill="none" stroke="#f8a12b" stroke-linecap="round" stroke-linejoin="round" stroke-width="1"/>
          <path id="Path_77" data-name="Path 77" d="M1306.384,3930.983h9.767a4.919,4.919,0,0,1,4.919,4.92v2.2l-5.524,5.611h-7.863l-6.375-5.18.164-2.91A4.918,4.918,0,0,1,1306.384,3930.983Z" transform="translate(-491.022 -3720.678)" fill="none" stroke="#f8a12b" stroke-linecap="round" stroke-linejoin="round" stroke-width="1"/>
          <path id="Path_78" data-name="Path 78" d="M1305.59,3964.747h11.4a4.079,4.079,0,0,1,4.08,4.08v3.042l-5.524,5.612h-7.863l-6.375-5.18.208-3.7A4.081,4.081,0,0,1,1305.59,3964.747Z" transform="translate(-491.022 -3725.308)" fill="none" stroke="#f8a12b" stroke-linecap="round" stroke-linejoin="round" stroke-width="1"/>
          <path id="Path_79" data-name="Path 79" d="M1299.648,3998.823h20.881a6.428,6.428,0,0,1,6.429,6.428h0a6.43,6.43,0,0,1-2.442,5.044l-7.07,5.587H1303.91l-7.72-4.882a6.429,6.429,0,0,1-2.977-5.9l.023-.315A6.428,6.428,0,0,1,1299.648,3998.823Z" transform="translate(-489.909 -3729.979)" fill="none" stroke="#f8a12b" stroke-linecap="round" stroke-linejoin="round" stroke-width="1"/>
          <path id="Path_80" data-name="Path 80" d="M1316.559,3962.141H1308.7V3949.67a3.931,3.931,0,0,1,3.931-3.931h0a3.932,3.932,0,0,1,3.931,3.931Z" transform="translate(-492.034 -3722.702)" fill="none" stroke="#f8a12b" stroke-linecap="round" stroke-linejoin="round" stroke-width="1"/>
          <rect id="Rectangle_402" data-name="Rectangle 402" width="7.863" height="16.402" transform="translate(816.661 252.173)" stroke-width="1" stroke="#f8a12b" stroke-linecap="round" stroke-linejoin="round" fill="none"/>
          <rect id="Rectangle_403" data-name="Rectangle 403" width="7.099" height="11.326" transform="translate(926.155 274.577)" stroke-width="1" stroke="#f8a12b" stroke-linecap="round" stroke-linejoin="round" fill="none"/>
          <path id="Path_81" data-name="Path 81" d="M1439.135,3977.319l-3.549,24.289h7.1Z" transform="translate(-509.431 -3727.031)" fill="none" stroke="#f8a12b" stroke-linecap="round" stroke-linejoin="round" stroke-width="1"/>
          <rect id="Rectangle_404" data-name="Rectangle 404" width="6.296" height="22.361" transform="translate(722.31 257.856)" stroke-width="1" stroke="#f8a12b" stroke-linecap="round" stroke-linejoin="round" fill="none"/>
          <rect id="Rectangle_405" data-name="Rectangle 405" width="6.296" height="22.361" transform="translate(733.104 257.856)" stroke-width="1" stroke="#f8a12b" stroke-linecap="round" stroke-linejoin="round" fill="none"/>
          <rect id="Rectangle_406" data-name="Rectangle 406" width="6.296" height="22.361" transform="translate(743.897 257.856)" stroke-width="1" stroke="#f8a12b" stroke-linecap="round" stroke-linejoin="round" fill="none"/>
          <rect id="Rectangle_407" data-name="Rectangle 407" width="6.296" height="22.361" transform="translate(754.691 257.856)" stroke-width="1" stroke="#f8a12b" stroke-linecap="round" stroke-linejoin="round" fill="none"/>
          <rect id="Rectangle_408" data-name="Rectangle 408" width="6.296" height="22.361" transform="translate(765.484 257.856)" stroke-width="1" stroke="#f8a12b" stroke-linecap="round" stroke-linejoin="round" fill="none"/>
          <rect id="Rectangle_409" data-name="Rectangle 409" width="6.296" height="22.361" transform="translate(776.278 257.856)" stroke-width="1" stroke="#f8a12b" stroke-linecap="round" stroke-linejoin="round" fill="none"/>
          <rect id="Rectangle_410" data-name="Rectangle 410" width="52.387" height="7.518" transform="translate(447.849 140.748)" stroke-width="1" stroke="#f8a12b" stroke-linecap="round" stroke-linejoin="round" fill="none"/>
          <rect id="Rectangle_411" data-name="Rectangle 411" width="31.888" height="37.879" transform="translate(458.384 148.266)" stroke-width="1" stroke="#f8a12b" stroke-linecap="round" stroke-linejoin="round" fill="none"/>
          <rect id="Rectangle_412" data-name="Rectangle 412" width="62.636" height="6.94" transform="translate(443.863 186.145)" stroke-width="1" stroke="#f8a12b" stroke-linecap="round" stroke-linejoin="round" fill="none"/>
          <path id="Path_82" data-name="Path 82" d="M909.726,3810.862l2.79-20.8,2.39,20.8Z" transform="translate(-437.335 -3701.357)" fill="none" stroke="#f8a12b" stroke-linecap="round" stroke-linejoin="round" stroke-width="1"/>
          <path id="Path_83" data-name="Path 83" d="M832.026,3713.1c.564-.3,3.093-25.839,3.093-25.839l3.093,25.839Z" transform="translate(-426.682 -3687.264)" fill="none" stroke="#f8a12b" stroke-linecap="round" stroke-linejoin="round" stroke-width="1"/>
          <rect id="Rectangle_413" data-name="Rectangle 413" width="66.434" height="8.16" transform="translate(374.298 68.395)" stroke-width="1" stroke="#f8a12b" stroke-linecap="round" stroke-linejoin="round" fill="none"/>
          <rect id="Rectangle_414" data-name="Rectangle 414" width="46.408" height="34.41" transform="translate(385.213 76.555)" stroke-width="1" stroke="#f8a12b" stroke-linecap="round" stroke-linejoin="round" fill="none"/>
          <g id="Group_15" data-name="Group 15" transform="translate(391.789 80.984)">
            <path id="Path_84" data-name="Path 84" d="M820.089,3781.6s-.02-.714-.045-.411c-.024-.3-.045.411-.045.411-.221,2.055-.992,5.4-3.681,7.352v12.961a6.112,6.112,0,0,1,3.678,4.109s.022.878.048.584c.028.294.049-.584.049-.584a6.111,6.111,0,0,1,3.677-4.109v-12.961C821.082,3787,820.31,3783.655,820.089,3781.6Z" transform="translate(-816.318 -3781.115)" fill="none" stroke="#f8a12b" stroke-linecap="round" stroke-linejoin="round" stroke-width="1"/>
          </g>
          <g id="Group_16" data-name="Group 16" transform="translate(404.71 80.984)">
            <path id="Path_85" data-name="Path 85" d="M835.063,3781.6s-.02-.714-.045-.411c-.025-.3-.045.411-.045.411-.221,2.055-.992,5.4-3.681,7.352v12.961a6.111,6.111,0,0,1,3.677,4.109s.022.878.049.584c.028.294.049-.584.049-.584a6.109,6.109,0,0,1,3.677-4.109v-12.961C836.055,3787,835.284,3783.655,835.063,3781.6Z" transform="translate(-831.292 -3781.115)" fill="none" stroke="#f8a12b" stroke-linecap="round" stroke-linejoin="round" stroke-width="1"/>
          </g>
          <g id="Group_17" data-name="Group 17" transform="translate(417.632 80.984)">
            <path id="Path_86" data-name="Path 86" d="M850.037,3781.6s-.021-.714-.045-.411c-.025-.3-.046.411-.046.411-.221,2.055-.992,5.4-3.68,7.352v12.961a6.111,6.111,0,0,1,3.677,4.109s.022.878.049.584c.027.294.048-.584.048-.584a6.111,6.111,0,0,1,3.677-4.109v-12.961C851.029,3787,850.258,3783.655,850.037,3781.6Z" transform="translate(-846.266 -3781.115)" fill="none" stroke="#f8a12b" stroke-linecap="round" stroke-linejoin="round" stroke-width="1"/>
          </g>
          <rect id="Rectangle_415" data-name="Rectangle 415" width="62.494" height="13.405" transform="translate(376.529 110.965)" stroke-width="1" stroke="#f8a12b" stroke-linecap="round" stroke-linejoin="round" fill="none"/>
          <path id="Path_87" data-name="Path 87" d="M804.931,3839.1l-6.3-7.7h62.494l-5.49,7.7Z" transform="translate(-422.104 -3707.024)" fill="none" stroke="#f8a12b" stroke-linecap="round" stroke-linejoin="round" stroke-width="1"/>
          <rect id="Rectangle_416" data-name="Rectangle 416" width="50.798" height="79.087" transform="translate(382.735 132.073)" stroke-width="1" stroke="#f8a12b" stroke-linecap="round" stroke-linejoin="round" fill="none"/>
          <rect id="Rectangle_417" data-name="Rectangle 417" width="76.16" height="20.675" transform="translate(368.557 211.735)" stroke-width="1" stroke="#f8a12b" stroke-linecap="round" stroke-linejoin="round" fill="none"/>
          <rect id="Rectangle_418" data-name="Rectangle 418" width="67.715" height="4.771" transform="translate(374.298 232.41)" stroke-width="1" stroke="#f8a12b" stroke-linecap="round" stroke-linejoin="round" fill="none"/>
          <path id="Path_88" data-name="Path 88" d="M724.712,3742.062l-5.94,73.855H731.3l-5.94-73.855A.325.325,0,0,0,724.712,3742.062Z" transform="translate(-411.155 -3694.736)" fill="none" stroke="#f8a12b" stroke-linecap="round" stroke-linejoin="round" stroke-width="1"/>
          <rect id="Rectangle_419" data-name="Rectangle 419" width="14.519" height="31.347" transform="translate(306.729 141.882)" stroke-width="1" stroke="#f8a12b" stroke-linecap="round" stroke-linejoin="round" fill="none"/>
          <rect id="Rectangle_420" data-name="Rectangle 420" width="19.216" height="32.156" transform="translate(303.984 193.604)" stroke-width="1" stroke="#f8a12b" stroke-linecap="round" stroke-linejoin="round" fill="none"/>
          <path id="Path_89" data-name="Path 89" d="M711,3842.647l5.664,5.753H730.95l5.214-5.3a9.838,9.838,0,0,0,2.828-6.9v-5.857a2.644,2.644,0,0,0-2.643-2.644H710.816a2.644,2.644,0,0,0-2.643,2.644v5.4A9.838,9.838,0,0,0,711,3842.647Z" transform="translate(-409.702 -3706.518)" fill="none" stroke="#f8a12b" stroke-linecap="round" stroke-linejoin="round" stroke-width="1"/>
          <path id="Path_90" data-name="Path 90" d="M703.252,3899.9l10.537,8.489h17.723l9.979-8.039v-12.335h-38.24Z" transform="translate(-409.027 -3714.788)" fill="none" stroke="#f8a12b" stroke-linecap="round" stroke-linejoin="round" stroke-width="1"/>
          <path id="Path_91" data-name="Path 91" d="M703.252,3963.233l10.537,10.243h17.723l9.979-9.7v-14.883h-38.24Z" transform="translate(-409.027 -3723.134)" fill="none" stroke="#f8a12b" stroke-linecap="round" stroke-linejoin="round" stroke-width="1"/>
          <line id="Line_4" data-name="Line 4" y2="43.751" transform="translate(335.896 272.625)" fill="none" stroke="#f8a12b" stroke-linecap="round" stroke-linejoin="round" stroke-width="1"/>
          <line id="Line_5" data-name="Line 5" y2="29.339" transform="translate(338.984 287.037)" fill="none" stroke="#f8a12b" stroke-linecap="round" stroke-linejoin="round" stroke-width="1"/>
          <line id="Line_6" data-name="Line 6" x2="17.982" transform="translate(329.237 258.218)" fill="none" stroke="#f8a12b" stroke-linecap="round" stroke-linejoin="round" stroke-width="1"/>
          <line id="Line_7" data-name="Line 7" x2="10.867" transform="translate(332.75 252.029)" fill="none" stroke="#f8a12b" stroke-linecap="round" stroke-linejoin="round" stroke-width="1"/>
          <line id="Line_8" data-name="Line 8" x2="5.16" transform="translate(335.025 247.549)" fill="none" stroke="#f8a12b" stroke-linecap="round" stroke-linejoin="round" stroke-width="1"/>
          <line id="Line_9" data-name="Line 9" x2="21.875" transform="translate(379.733 59.877)" fill="none" stroke="#f8a12b" stroke-linecap="round" stroke-linejoin="round" stroke-width="1"/>
          <line id="Line_10" data-name="Line 10" x2="17.379" transform="translate(379.071 56.445)" fill="none" stroke="#f8a12b" stroke-linecap="round" stroke-linejoin="round" stroke-width="1"/>
          <line id="Line_11" data-name="Line 11" x2="25.657" transform="translate(379.818 52.962)" fill="none" stroke="#f8a12b" stroke-linecap="round" stroke-linejoin="round" stroke-width="1"/>
          <line id="Line_12" data-name="Line 12" x2="21.875" transform="translate(383.91 202.759)" fill="none" stroke="#f8a12b" stroke-linecap="round" stroke-linejoin="round" stroke-width="1"/>
          <line id="Line_13" data-name="Line 13" x2="17.379" transform="translate(383.249 199.327)" fill="none" stroke="#f8a12b" stroke-linecap="round" stroke-linejoin="round" stroke-width="1"/>
          <line id="Line_14" data-name="Line 14" x2="25.657" transform="translate(383.995 195.844)" fill="none" stroke="#f8a12b" stroke-linecap="round" stroke-linejoin="round" stroke-width="1"/>
          <line id="Line_15" data-name="Line 15" x2="21.875" transform="translate(383.91 192.416)" fill="none" stroke="#f8a12b" stroke-linecap="round" stroke-linejoin="round" stroke-width="1"/>
          <line id="Line_16" data-name="Line 16" x2="17.379" transform="translate(383.249 188.985)" fill="none" stroke="#f8a12b" stroke-linecap="round" stroke-linejoin="round" stroke-width="1"/>
          <line id="Line_17" data-name="Line 17" x2="25.657" transform="translate(383.995 185.501)" fill="none" stroke="#f8a12b" stroke-linecap="round" stroke-linejoin="round" stroke-width="1"/>
          <line id="Line_18" data-name="Line 18" x2="21.875" transform="translate(383.91 182.815)" fill="none" stroke="#f8a12b" stroke-linecap="round" stroke-linejoin="round" stroke-width="1"/>
          <line id="Line_19" data-name="Line 19" x2="17.379" transform="translate(383.249 179.384)" fill="none" stroke="#f8a12b" stroke-linecap="round" stroke-linejoin="round" stroke-width="1"/>
          <line id="Line_20" data-name="Line 20" x2="25.657" transform="translate(383.995 175.901)" fill="none" stroke="#f8a12b" stroke-linecap="round" stroke-linejoin="round" stroke-width="1"/>
          <path id="Path_92" data-name="Path 92" d="M897.281,3842.039s-1.106-12.267,8.922-18.412" transform="translate(-435.624 -3705.959)" fill="none" stroke="#f8a12b" stroke-linecap="round" stroke-linejoin="round" stroke-width="1"/>
          <line id="Line_21" data-name="Line 21" x2="10.823" transform="translate(458.384 182.815)" fill="none" stroke="#f8a12b" stroke-linecap="round" stroke-linejoin="round" stroke-width="1"/>
          <line id="Line_22" data-name="Line 22" x2="19.188" transform="translate(458.384 179.032)" fill="none" stroke="#f8a12b" stroke-linecap="round" stroke-linejoin="round" stroke-width="1"/>
          <line id="Line_23" data-name="Line 23" x2="10.823" transform="translate(458.384 173.229)" fill="none" stroke="#f8a12b" stroke-linecap="round" stroke-linejoin="round" stroke-width="1"/>
          <line id="Line_24" data-name="Line 24" x2="7.717" transform="translate(458.384 168.274)" fill="none" stroke="#f8a12b" stroke-linecap="round" stroke-linejoin="round" stroke-width="1"/>
          <path id="Path_93" data-name="Path 93" d="M884.96,3917.561s2,17.038,16.957,18.362" transform="translate(-433.939 -3718.838)" fill="none" stroke="#f8a12b" stroke-linecap="round" stroke-linejoin="round" stroke-width="1"/>
          <line id="Line_25" data-name="Line 25" x2="16.404" transform="translate(635.869 239.35)" fill="none" stroke="#f8a12b" stroke-linecap="round" stroke-linejoin="round" stroke-width="1"/>
          <line id="Line_26" data-name="Line 26" x2="12.878" transform="translate(634.419 210.741)" fill="none" stroke="#f8a12b" stroke-linecap="round" stroke-linejoin="round" stroke-width="1"/>
          <line id="Line_27" data-name="Line 27" x2="8.202" transform="translate(635.869 214.033)" fill="none" stroke="#f8a12b" stroke-linecap="round" stroke-linejoin="round" stroke-width="1"/>
          <line id="Line_28" data-name="Line 28" y2="42.893" transform="translate(695.509 273.998)" fill="none" stroke="#f8a12b" stroke-linecap="round" stroke-linejoin="round" stroke-width="1"/>
          <line id="Line_29" data-name="Line 29" y2="35.344" transform="translate(691.563 278.116)" fill="none" stroke="#f8a12b" stroke-linecap="round" stroke-linejoin="round" stroke-width="1"/>
          <line id="Line_30" data-name="Line 30" y2="9.093" transform="translate(686.073 289.611)" fill="none" stroke="#f8a12b" stroke-linecap="round" stroke-linejoin="round" stroke-width="1"/>
          <path id="Path_94" data-name="Path 94" d="M1132.236,3988.836s-4.29-16.246,13.9-25.366" transform="translate(-467.781 -3725.133)" fill="none" stroke="#f8a12b" stroke-linecap="round" stroke-linejoin="round" stroke-width="1"/>
          <path id="Path_95" data-name="Path 95" d="M1351.827,4031.8s-3.9-14.79,12.652-23.092" transform="translate(-497.893 -3731.334)" fill="none" stroke="#f8a12b" stroke-linecap="round" stroke-linejoin="round" stroke-width="1"/>
          <line id="Line_31" data-name="Line 31" x2="66.57" transform="translate(719.872 287.109)" fill="none" stroke="#f8a12b" stroke-linecap="round" stroke-linejoin="round" stroke-width="1"/>
          <line id="Line_32" data-name="Line 32" x2="17.473" transform="translate(719.872 293.042)" fill="none" stroke="#f8a12b" stroke-linecap="round" stroke-linejoin="round" stroke-width="1"/>
          <line id="Line_33" data-name="Line 33" x2="6.52" transform="translate(719.872 298.704)" fill="none" stroke="#f8a12b" stroke-linecap="round" stroke-linejoin="round" stroke-width="1"/>
          <line id="Line_34" data-name="Line 34" x1="5.027" transform="translate(847.298 318.263)" fill="none" stroke="#f8a12b" stroke-linecap="round" stroke-linejoin="round" stroke-width="1"/>
          <line id="Line_35" data-name="Line 35" x1="10.689" transform="translate(847.298 315.003)" fill="none" stroke="#f8a12b" stroke-linecap="round" stroke-linejoin="round" stroke-width="1"/>
          <line id="Line_36" data-name="Line 36" x1="5.344" transform="translate(847.298 312.258)" fill="none" stroke="#f8a12b" stroke-linecap="round" stroke-linejoin="round" stroke-width="1"/>
          <path id="Path_96" data-name="Path 96" d="M1400.125,4063.3s-16.936-19.673,30.193-38.889" transform="translate(-504.164 -3733.488)" fill="none" stroke="#f8a12b" stroke-linecap="round" stroke-linejoin="round" stroke-width="1"/>
          <path id="Path_97" data-name="Path 97" d="M1405.475,4063s-6.749-15.442,14.869-24.936" transform="translate(-505.166 -3735.36)" fill="none" stroke="#f8a12b" stroke-linecap="round" stroke-linejoin="round" stroke-width="1"/>
          <path id="Path_98" data-name="Path 98" d="M1501.6,4071.96s-6.062-14.412,13.841-19.445" transform="translate(-518.362 -3737.341)" fill="none" stroke="#f8a12b" stroke-linecap="round" stroke-linejoin="round" stroke-width="1"/>
          <path id="Path_99" data-name="Path 99" d="M1509.026,4072.815s-5.457-10.181,5.067-14.069" transform="translate(-519.306 -3738.195)" fill="none" stroke="#f8a12b" stroke-linecap="round" stroke-linejoin="round" stroke-width="1"/>
        </g>
      </g>
      <path id="Path_100" data-name="Path 100" d="M388.734,4053.478s-14.838-36.371,33.628-59.021" transform="translate(-365.613 -3729.381)" fill="none" stroke="#f8a12b" stroke-linecap="round" stroke-linejoin="round" stroke-width="1"/>
      <path id="Path_101" data-name="Path 101" d="M398.457,4048.052s-10.845-25.021,22.453-41.469" transform="translate(-367.008 -3731.043)" fill="none" stroke="#f8a12b" stroke-linecap="round" stroke-linejoin="round" stroke-width="1"/>
      <path id="Path_102" data-name="Path 102" d="M527.214,4046.366s-29.171-46.7,42.318-86.85" transform="translate(-384.084 -3724.59)" fill="none" stroke="#f8a12b" stroke-linecap="round" stroke-linejoin="round" stroke-width="1"/>
      <path id="Path_103" data-name="Path 103" d="M541.048,4037.465s-21.057-32,27.907-60.8" transform="translate(-386.171 -3726.942)" fill="none" stroke="#f8a12b" stroke-linecap="round" stroke-linejoin="round" stroke-width="1"/>
      <path id="Path_104" data-name="Path 104" d="M961.867,4008.929s-28.147-46.136,33.13-91.368" transform="translate(-443.599 -3718.838)" fill="none" stroke="#f8a12b" stroke-linecap="round" stroke-linejoin="round" stroke-width="1"/>
      <path id="Path_105" data-name="Path 105" d="M973.516,3999.163s-20.233-31.556,21.673-63.859" transform="translate(-445.411 -3721.271)" fill="none" stroke="#f8a12b" stroke-linecap="round" stroke-linejoin="round" stroke-width="1"/>
      <path id="Path_106" data-name="Path 106" d="M1205.7,3972.8s-14.074-23.068,16.565-45.684" transform="translate(-477.471 -3720.148)" fill="none" stroke="#f8a12b" stroke-linecap="round" stroke-linejoin="round" stroke-width="1"/>
      <path id="Path_107" data-name="Path 107" d="M1211.526,3967.914s-10.117-15.777,10.836-31.93" transform="translate(-478.378 -3721.364)" fill="none" stroke="#f8a12b" stroke-linecap="round" stroke-linejoin="round" stroke-width="1"/>
      <line id="Line_37" data-name="Line 37" x2="9.894" transform="translate(306.729 168.508)" fill="none" stroke="#f8a12b" stroke-linecap="round" stroke-linejoin="round" stroke-width="1"/>
      <line id="Line_38" data-name="Line 38" x2="7.26" transform="translate(306.729 164.535)" fill="none" stroke="#f8a12b" stroke-linecap="round" stroke-linejoin="round" stroke-width="1"/>
      <line id="Line_39" data-name="Line 39" x2="4.947" transform="translate(306.729 161.043)" fill="none" stroke="#f8a12b" stroke-linecap="round" stroke-linejoin="round" stroke-width="1"/>
      <line id="Line_40" data-name="Line 40" x2="13.74" transform="translate(304.255 221.494)" fill="none" stroke="#f8a12b" stroke-linecap="round" stroke-linejoin="round" stroke-width="1"/>
      <line id="Line_41" data-name="Line 41" x2="10.082" transform="translate(304.255 217.295)" fill="none" stroke="#f8a12b" stroke-linecap="round" stroke-linejoin="round" stroke-width="1"/>
      <line id="Line_42" data-name="Line 42" x2="10.082" transform="translate(304.161 212.575)" fill="none" stroke="#f8a12b" stroke-linecap="round" stroke-linejoin="round" stroke-width="1"/>
      <line id="Line_43" data-name="Line 43" x2="6.87" transform="translate(304.255 205.712)" fill="none" stroke="#f8a12b" stroke-linecap="round" stroke-linejoin="round" stroke-width="1"/>
      <line id="Line_44" data-name="Line 44" x2="10.226" y2="9.194" transform="translate(297.464 237.181)" fill="none" stroke="#f8a12b" stroke-linecap="round" stroke-linejoin="round" stroke-width="1"/>
    </g>
    <path id="Path_108" data-name="Path 108" d="M658.164,3790.44a3.906,3.906,0,1,1-4.258,3.52A3.906,3.906,0,0,1,658.164,3790.44Z" transform="translate(-39.98 -14.143)" fill="none" stroke="#f8a12b" stroke-linecap="round" stroke-linejoin="round" stroke-width="1"/>
  </g>
</svg>
