<?xml version="1.0"?>
<!--Icons from directory ""-->
<svg xmlns="http://www.w3.org/2000/svg" width="300" height="502" viewBox="0 0 300 502"><svg width="30" height="21" id="arrow" y="0"><defs><linearGradient id="arrow-a" x1=".5" x2=".5" y2="1" gradientUnits="objectBoundingBox"><stop offset="0" stop-color="#29b3ba"/><stop offset="1" stop-color="#46eeaa"/></linearGradient></defs><path d="M17.2 26.754V6L2.5 16.377zm.865-10.377l14.7 10.377V6z" transform="translate(-2.5 -6)" fill="url(#arrow-a)"/></svg><svg width="20" height="22" id="cv" y="21"><defs><linearGradient id="cv-a" x1=".5" x2=".5" y2="1" gradientUnits="objectBoundingBox"><stop offset="0" stop-color="#29b3ba"/><stop offset="1" stop-color="#46eeaa"/></linearGradient></defs><path d="M20.375 3.172h-4.539a3.245 3.245 0 0 0-6.125 0H5.172A2.178 2.178 0 0 0 3 5.344v15.2a2.178 2.178 0 0 0 2.172 2.172h15.2a2.178 2.178 0 0 0 2.172-2.172v-15.2a2.178 2.178 0 0 0-2.169-2.172zm-7.6 0a1.086 1.086 0 1 1-1.086 1.086 1.089 1.089 0 0 1 1.084-1.086zm0 4.344a3.258 3.258 0 1 1-3.258 3.258 3.253 3.253 0 0 1 3.256-3.259zm6.515 13.031H6.258v-1.52c0-2.172 4.344-3.366 6.515-3.366s6.515 1.195 6.515 3.366z" transform="translate(-3 -1)" fill="url(#cv-a)"/></svg><svg width="24" height="24" id="essays" y="43"><defs><linearGradient id="essays-a" x1=".5" x2=".5" y2="1" gradientUnits="objectBoundingBox"><stop offset="0" stop-color="#29b3ba"/><stop offset="1" stop-color="#46eeaa"/></linearGradient></defs><path d="M23.34 2H4.371A2.378 2.378 0 0 0 2 4.371V18.6a2.378 2.378 0 0 0 2.371 2.371h16.6l4.742 4.742V4.371A2.378 2.378 0 0 0 23.34 2zm-2.371 14.227H6.742v-2.371h14.227zm0-3.557H6.742V10.3h14.227zm0-3.557H6.742V6.742h14.227z" transform="translate(-2 -2)" fill="url(#essays-a)"/></svg><svg width="37" height="30" id="fatwa" y="67"><defs><linearGradient id="fatwa-a" x1=".5" x2=".5" y2="1" gradientUnits="objectBoundingBox"><stop offset="0" stop-color="#29b3ba"/><stop offset="1" stop-color="#46eeaa"/></linearGradient></defs><g data-name="Group 30" fill="url(#fatwa-a)"><path data-name="Path 110" d="M0 29.853a4.447 4.447 0 0 1 .281-.7q1.248-2.05 2.526-4.083a11.643 11.643 0 0 1 .909-1.253 1.948 1.948 0 0 0 .35-1.912 10.68 10.68 0 0 1-.34-1.528l.8 2.063c.022-.15.064-.345.077-.542a2.648 2.648 0 0 1 .072-.647v1.09l.094.02a3 3 0 0 0 .087-.534c-.015-1.114-.049-2.227-.068-3.341a10.844 10.844 0 0 1 .6-4.168 9.684 9.684 0 0 1 1.121-1.933c-.6 1.842-.09 3.646.111 5.459.094-.73.14-1.47.293-2.187a25.175 25.175 0 0 1 .834-3.178 6.315 6.315 0 0 1 1.031-1.541c.083-.11.3-.12.456-.176a1.411 1.411 0 0 1 .033.479 13.1 13.1 0 0 0-.637 4.088 15.425 15.425 0 0 0 .195 1.554l.122-.006v-.283a11.527 11.527 0 0 1 .631-4.891 7.041 7.041 0 0 1 2.313-2.989 27.891 27.891 0 0 1 7.051-3.853c.1-.039.2-.075.307-.109a.226.226 0 0 1 .073 0c-.346.5-.718.992-1.03 1.516s-.557 1.076-.832 1.617l.089.051c.057-.086.117-.171.171-.259.44-.717.9-1.426 1.314-2.156a3.881 3.881 0 0 1 2.472-1.61l-1.257 1.878.084.065c.075-.107.144-.217.225-.319.723-.914 1.426-1.846 2.188-2.727a2.086 2.086 0 0 1 .934-.54A55.063 55.063 0 0 1 34.257.025a4.719 4.719 0 0 1 2.8.591l-1.221.941.067.119h.655c-.112.128-.178.219-.259.293a12.515 12.515 0 0 1-2.592 1.958c-1.114.589-2.172 1.289-3.307 1.831-.988.471-2.047.795-3.08 1.171-.75.273-1.508.527-2.257.807 1.957-.282 3.944-.466 5.715-1.782-.084.209-.112.306-.159.391a8.73 8.73 0 0 1-2.861 3.233 13.978 13.978 0 0 1-1.741.864c-.5.232-1.028.41-1.52.66a4.868 4.868 0 0 1-2.117.531c-1.585.035-3.171.011-4.816.011 3.18-2.573 6.482-4.924 9.759-7.317-.077.042-.158.078-.232.126a135.371 135.371 0 0 0-11.6 8.358 68.292 68.292 0 0 0-8.423 7.925 34.275 34.275 0 0 0-4.612 6.353c-.31.584-.519 1.221-.792 1.826a.78.78 0 0 1-.3.35c-.414.23-.846.427-1.272.637zm6.033-16.548c-.035.08-.078.157-.105.24a7.883 7.883 0 0 0-.3 3.053q.1 1.521.181 3.045c.019.379 0 .761 0 1.141h.1c.017-.847.06-1.694.044-2.54a20.52 20.52 0 0 1 .08-4.936zm1.287 5.324a7.662 7.662 0 0 0 .231-.907c.119-.9.226-1.8.308-2.71a12.928 12.928 0 0 1 .646-3.367 7.458 7.458 0 0 0-.86 3.029c-.122 1.309-.217 2.619-.33 3.958zm.887-1.952a17.008 17.008 0 0 1 .925-5.64 9.5 9.5 0 0 0-.926 5.643z"/><path data-name="Path 111" d="M7.968 20.488c.682-.752 1.3-1.55 2.039-2.227a431.901 431.901 0 0 1 6.754-6.076 1.5 1.5 0 0 1 .881-.322c.84-.03 1.684.014 2.526.029.53.009 1.062.057 1.588.018.505-.038 1-.168 1.52-.26-.1.119-.2.253-.316.377a32.267 32.267 0 0 1-4.259 3.6 10.58 10.58 0 0 0-1.405 1.234 10.021 10.021 0 0 1-6.916 3.379c-.793.049-1.584.16-2.412.248z"/><path data-name="Path 112" d="M5.632 23.431c.173-.249.309-.462.463-.661a15.426 15.426 0 0 0 1.024-1.316 1.781 1.781 0 0 1 1.708-.823 11.367 11.367 0 0 0 3.543-.4c.407-.137.805-.3 1.208-.454l.1.077c-.411.521-.79 1.071-1.239 1.557a5.612 5.612 0 0 1-3.4 1.576c-1.044.169-2.093.3-3.141.444a2.392 2.392 0 0 1-.266 0z"/><path data-name="Path 113" d="M6.793 24.368h-1.8c.209-.402.984-.394 1.8 0z"/><path data-name="Path 114" d="M7.048 24.011l-1.656-.213c.19-.302 1.163-.175 1.656.213z"/></g></svg><svg width="300" height="104" viewBox="0 0 1028 357" id="foooter" y="97"><g data-name="Group 21" transform="translate(-361.779 -3686.764)" opacity=".25"><g data-name="Group 12"><g data-name="Group 11" fill="none" stroke="#f8a12b" stroke-linecap="round" stroke-linejoin="round"><path data-name="Path 58" d="M470.16 3852.285l-3.071 2.382a1.5 1.5 0 0 0-.576 1.268l.221 3.88a1.5 1.5 0 0 1-2.335 1.322l-3.214-2.185a1.5 1.5 0 0 0-1.384-.157l-3.622 1.409a1.5 1.5 0 0 1-1.979-1.811l1.085-3.733a1.494 1.494 0 0 0-.278-1.364l-2.46-3.01a1.5 1.5 0 0 1 1.112-2.442l3.885-.122a1.5 1.5 0 0 0 1.212-.686l2.1-3.269a1.5 1.5 0 0 1 2.666.3l1.316 3.657a1.5 1.5 0 0 0 1.027.941l3.759.989a1.5 1.5 0 0 1 .536 2.631z"/><path data-name="Path 59" d="M454.19 3849.411l4.419.159a1.835 1.835 0 0 0 1.713-1.025l1.559-3.178"/></g></g><g data-name="Group 14"><g data-name="Group 13" fill="none" stroke="#f8a12b" stroke-linecap="round" stroke-linejoin="round"><path data-name="Path 60" d="M939.683 3802.386l-1.6 1.243a.781.781 0 0 0-.3.661l.115 2.026a.781.781 0 0 1-1.218.69l-1.678-1.141a.782.782 0 0 0-.722-.082l-1.891.736a.781.781 0 0 1-1.033-.947l.566-1.948a.784.784 0 0 0-.145-.713l-1.284-1.571a.781.781 0 0 1 .58-1.274l2.028-.064a.781.781 0 0 0 .633-.358l1.1-1.707a.781.781 0 0 1 1.392.158l.687 1.91a.782.782 0 0 0 .536.49l1.962.517a.781.781 0 0 1 .272 1.374z"/><path data-name="Path 61" d="M931.346 3800.883l2.307.083a.957.957 0 0 0 .894-.534l.815-1.659"/></g></g><circle data-name="Ellipse 6" cx="1.667" cy="1.667" r="1.667" transform="translate(827.371 3741.568)" stroke="#f8a12b" stroke-linecap="round" stroke-linejoin="round" fill="none"/><path data-name="Path 62" d="M1043.298 3820.674a3.907 3.907 0 1 1-4.258 3.52 3.906 3.906 0 0 1 4.258-3.52z" fill="none" stroke="#f8a12b" stroke-linecap="round" stroke-linejoin="round"/><g data-name="Group 20"><g data-name="Group 19"><g data-name="Group 18" transform="translate(362.279 3687.264)"><ellipse data-name="Ellipse 7" cx="9.68" cy="8.241" rx="9.68" ry="8.241" transform="translate(200.721 190.482)" fill="none" stroke="#f8a12b" stroke-linecap="round" stroke-linejoin="round"/><path data-name="Rectangle 394" stroke="#f8a12b" stroke-linecap="round" stroke-linejoin="round" fill="none" d="M207.933 176.603h5.475v13.301h-5.475z"/><path data-name="Path 63" d="M213.818 166.277l-2.526-21.119a.734.734 0 0 0-1.461.007l-2.318 21.117a5.465 5.465 0 0 0-3 4.756c0 3.074 2.758 5.566 6.16 5.566s6.159-2.492 6.159-5.566a5.468 5.468 0 0 0-3.014-4.761z" fill="none" stroke="#f8a12b" stroke-linecap="round" stroke-linejoin="round"/><path data-name="Path 64" d="M71.212 245.474c0 2.88-2.743 5.215-6.127 5.215s-6.126-2.335-6.126-5.215 2.743-5.215 6.126-5.215 6.127 2.335 6.127 5.215z" fill="none" stroke="#f8a12b" stroke-linecap="round" stroke-linejoin="round"/><path data-name="Rectangle 395" stroke="#f8a12b" stroke-linecap="round" stroke-linejoin="round" fill="none" d="M63.525 231.476h3.465v8.417h-3.465z"/><path data-name="Path 65" d="M67.249 224.942l-1.6-13.365a.465.465 0 0 0-.925.005l-1.467 13.363a3.459 3.459 0 0 0-1.9 3.01 3.918 3.918 0 0 0 7.8 0 3.458 3.458 0 0 0-1.908-3.013z" fill="none" stroke="#f8a12b" stroke-linecap="round" stroke-linejoin="round"/><path data-name="Path 66" d="M0 354.143h3.986v-27.331h9.881c-6.807-4.738-5.186-22.426-5.186-22.426 2.593-30.639 56.405-53.7 56.405-53.7s53.813 23.058 56.406 53.7c0 0 1.621 17.688-5.186 22.426l13.158.44c-10.757-7.487-8.2-35.437-8.2-35.437 4.1-48.415 89.132-84.851 89.132-84.851s85.034 36.436 89.133 84.851c0 0 2.561 27.951-8.2 35.438l8.463-.867 4.963-76.043 17.768-.045 4.032 67.124h5.125v-47.421h44.141v47.421h7.687l-.407-79.084h50.678l.407 58.65h28.635v-75.494l-5.512-3.526a21.129 21.129 0 0 1-9.743-17.8v-6.506h54.237v6.721a21.129 21.129 0 0 1-9.84 17.86l-4.569 2.888 1.372 75.855h12.745c-8.5-8-6.474-37.851-6.474-37.851 3.237-51.713 70.4-90.629 70.4-90.629s67.161 38.917 70.4 90.629c0 0 2.023 29.854-6.473 37.851l9.815-.386v-52.338l12.812.142v52.581h5.694v-27.853h3.7l-.206-1.2c-2.4-2.191-1.83-10.368-1.83-10.368.915-14.164 19.9-24.822 19.9-24.822s18.989 10.658 19.9 24.822c0 0 .572 8.177-1.83 10.368l-.636 1.677h4.177v49.735h6.454v-40.1h10.661v-22.775c-4.63-4.221-3.528-19.982-3.528-19.982 1.764-27.3 38.363-47.844 38.363-47.844s36.6 20.545 38.363 47.844c0 0 1.1 15.761-3.527 19.982v22.775h14.382v40.1h8.256v-32.868h19.076v32.868h17.936V302.38l3.462-.221c-2.053-1.84-1.628-8.779-1.628-8.779.671-12.018 16.694-21.2 16.694-21.2s16.183 8.9 17.063 20.9c0 0 .546 6.93-1.475 8.8l3.465.49v28.5h6.559c-5.107-2.772-3.955-13.24-3.955-13.24 1.838-18.131 42.012-32 42.012-32s40.328 13.4 42.371 31.511c0 0 1.271 10.454-3.8 13.286v5.486l10.072.256c-2.726-1.937-1.74-8.63-1.74-8.63 1.617-11.6 24.241-19.288 24.241-19.288s21.8 9.843 22.322 21.543c0 0 .353 6.758-2.542 8.423h6.246v17.648" fill="none" stroke="#f8a12b" stroke-linecap="round" stroke-linejoin="round"/><path data-name="Path 67" d="M376.108 269.624c2.973-2.191 2.264-10.368 2.264-10.368-1.132-14.163-24.632-24.822-24.632-24.822s-23.5 10.659-24.632 24.822c0 0-.708 8.177 2.265 10.368" fill="none" stroke="#f8a12b" stroke-linecap="round" stroke-linejoin="round"/><path data-name="Path 68" d="M493.055 140.749c2.4-2.039 1.83-9.651 1.83-9.651-.916-13.183-19.9-23.1-19.9-23.1s-18.988 9.922-19.9 23.1c0 0-.572 7.612 1.83 9.651" fill="none" stroke="#f8a12b" stroke-linecap="round" stroke-linejoin="round"/><path data-name="Path 69" d="M435.351 68.395c3.578-2.641 2.726-12.5 2.726-12.5-1.363-17.083-29.644-29.938-29.644-29.938s-28.281 12.855-29.644 29.938c0 0-.852 9.862 2.726 12.5" fill="none" stroke="#f8a12b" stroke-linecap="round" stroke-linejoin="round"/><path data-name="Path 70" d="M572.99 161.546c0 3.845-3.533 6.962-7.892 6.962s-7.892-3.117-7.892-6.962 3.534-6.962 7.892-6.962 7.892 3.117 7.892 6.962z" fill="none" stroke="#f8a12b" stroke-linecap="round" stroke-linejoin="round"/><path data-name="Rectangle 396" stroke="#f8a12b" stroke-linecap="round" stroke-linejoin="round" fill="none" d="M563.082 140.292h4.464v14.207h-4.464z"/><path data-name="Rectangle 397" stroke="#f8a12b" stroke-linecap="round" stroke-linejoin="round" fill="none" d="M563.062 134.648h4.483v5.644h-4.483z"/><path data-name="Path 71" d="M561.719 123.151a16.893 16.893 0 0 1-4.529-16.615c-.081.083-.17.154-.25.239a16.789 16.789 0 0 0 .622 23.548 16.308 16.308 0 0 0 27.2-7.3 16.338 16.338 0 0 1-23.043.128z" fill="none" stroke="#f8a12b" stroke-linecap="round" stroke-linejoin="round"/><path data-name="Path 72" d="M756.978 184.465a4.166 4.166 0 1 1-4.166-4.186 4.176 4.176 0 0 1 4.166 4.186z" fill="none" stroke="#f8a12b" stroke-linecap="round" stroke-linejoin="round"/><path data-name="Rectangle 398" stroke="#f8a12b" stroke-linecap="round" stroke-linejoin="round" fill="none" d="M751.75 173.229h2.357v6.756h-2.357z"/><path data-name="Rectangle 399" stroke="#f8a12b" stroke-linecap="round" stroke-linejoin="round" fill="none" d="M751.74 169.925h2.367v2.98h-2.367z"/><path data-name="Path 73" d="M750.876 161.665a8.918 8.918 0 0 1 1.25-9.005c-.057.023-.115.04-.171.064a8.864 8.864 0 0 0-4.586 11.559 8.61 8.61 0 0 0 14.718 2.1 8.625 8.625 0 0 1-11.211-4.718z" fill="none" stroke="#f8a12b" stroke-linecap="round" stroke-linejoin="round"/><path data-name="Rectangle 400" stroke="#f8a12b" stroke-linecap="round" stroke-linejoin="round" fill="none" d="M635.869 234.434h19.664v9.831h-19.664z"/><path data-name="Rectangle 401" stroke="#f8a12b" stroke-linecap="round" stroke-linejoin="round" fill="none" d="M640.933 217.085h9.965v17.349h-9.965z"/><path data-name="Path 74" d="M634.721 206.386h22.206s1.423 10.7-6.833 10.7h-9.967s-7.4-.002-5.406-10.7z" fill="none" stroke="#f8a12b" stroke-linecap="round" stroke-linejoin="round"/><path data-name="Path 75" d="M643.715 180.457a5303.284 5303.284 0 0 1-3.352 24.272 1.456 1.456 0 0 0 1.45 1.657h8.205a1.463 1.463 0 0 0 1.435-1.75l-4.855-24.262a1.462 1.462 0 0 0-2.883.083z" fill="none" stroke="#f8a12b" stroke-linecap="round" stroke-linejoin="round"/><path data-name="Path 76" d="M819.589 177.452l-2.837 31.844a.926.926 0 0 0 .922 1.009h5.832a.926.926 0 0 0 .922-1.013l-3-31.844a.926.926 0 0 0-1.839.004z" fill="none" stroke="#f8a12b" stroke-linecap="round" stroke-linejoin="round"/><path data-name="Path 77" d="M815.362 210.305h9.767a4.919 4.919 0 0 1 4.919 4.92v2.2l-5.524 5.611h-7.863l-6.375-5.18.164-2.91a4.918 4.918 0 0 1 4.912-4.641z" fill="none" stroke="#f8a12b" stroke-linecap="round" stroke-linejoin="round"/><path data-name="Path 78" d="M814.568 239.439h11.4a4.079 4.079 0 0 1 4.08 4.08v3.042l-5.524 5.612h-7.863l-6.375-5.18.208-3.7a4.081 4.081 0 0 1 4.074-3.854z" fill="none" stroke="#f8a12b" stroke-linecap="round" stroke-linejoin="round"/><path data-name="Path 79" d="M809.739 268.844h20.881a6.428 6.428 0 0 1 6.429 6.428 6.43 6.43 0 0 1-2.442 5.044l-7.07 5.587h-13.536l-7.72-4.882a6.429 6.429 0 0 1-2.977-5.9l.023-.315a6.428 6.428 0 0 1 6.412-5.962z" fill="none" stroke="#f8a12b" stroke-linecap="round" stroke-linejoin="round"/><path data-name="Path 80" d="M824.525 239.439h-7.859v-12.471a3.931 3.931 0 0 1 3.931-3.931 3.932 3.932 0 0 1 3.931 3.931z" fill="none" stroke="#f8a12b" stroke-linecap="round" stroke-linejoin="round"/><path data-name="Rectangle 402" stroke="#f8a12b" stroke-linecap="round" stroke-linejoin="round" fill="none" d="M816.661 252.173h7.863v16.402h-7.863z"/><path data-name="Rectangle 403" stroke="#f8a12b" stroke-linecap="round" stroke-linejoin="round" fill="none" d="M926.155 274.577h7.099v11.326h-7.099z"/><path data-name="Path 81" d="M929.704 250.288l-3.549 24.289h7.1z" fill="none" stroke="#f8a12b" stroke-linecap="round" stroke-linejoin="round"/><path data-name="Rectangle 404" stroke="#f8a12b" stroke-linecap="round" stroke-linejoin="round" fill="none" d="M722.31 257.856h6.296v22.361h-6.296z"/><path data-name="Rectangle 405" stroke="#f8a12b" stroke-linecap="round" stroke-linejoin="round" fill="none" d="M733.104 257.856h6.296v22.361h-6.296z"/><path data-name="Rectangle 406" stroke="#f8a12b" stroke-linecap="round" stroke-linejoin="round" fill="none" d="M743.897 257.856h6.296v22.361h-6.296z"/><path data-name="Rectangle 407" stroke="#f8a12b" stroke-linecap="round" stroke-linejoin="round" fill="none" d="M754.691 257.856h6.296v22.361h-6.296z"/><path data-name="Rectangle 408" stroke="#f8a12b" stroke-linecap="round" stroke-linejoin="round" fill="none" d="M765.484 257.856h6.296v22.361h-6.296z"/><path data-name="Rectangle 409" stroke="#f8a12b" stroke-linecap="round" stroke-linejoin="round" fill="none" d="M776.278 257.856h6.296v22.361h-6.296z"/><path data-name="Rectangle 410" stroke="#f8a12b" stroke-linecap="round" stroke-linejoin="round" fill="none" d="M447.849 140.748h52.387v7.518h-52.387z"/><path data-name="Rectangle 411" stroke="#f8a12b" stroke-linecap="round" stroke-linejoin="round" fill="none" d="M458.384 148.266h31.888v37.879h-31.888z"/><path data-name="Rectangle 412" stroke="#f8a12b" stroke-linecap="round" stroke-linejoin="round" fill="none" d="M443.863 186.145h62.636v6.94h-62.636z"/><path data-name="Path 82" d="M472.391 109.505l2.79-20.8 2.39 20.8z" fill="none" stroke="#f8a12b" stroke-linecap="round" stroke-linejoin="round"/><path data-name="Path 83" d="M405.344 25.836c.564-.3 3.093-25.839 3.093-25.839l3.093 25.839z" fill="none" stroke="#f8a12b" stroke-linecap="round" stroke-linejoin="round"/><path data-name="Rectangle 413" stroke="#f8a12b" stroke-linecap="round" stroke-linejoin="round" fill="none" d="M374.298 68.395h66.434v8.16h-66.434z"/><path data-name="Rectangle 414" stroke="#f8a12b" stroke-linecap="round" stroke-linejoin="round" fill="none" d="M385.213 76.555h46.408v34.41h-46.408z"/><g data-name="Group 15"><path data-name="Path 84" d="M395.56 81.469s-.02-.714-.045-.411c-.024-.3-.045.411-.045.411-.221 2.055-.992 5.4-3.681 7.352v12.961a6.112 6.112 0 0 1 3.678 4.109s.022.878.048.584c.028.294.049-.584.049-.584a6.111 6.111 0 0 1 3.677-4.109V88.821c-2.688-1.952-3.46-5.297-3.681-7.352z" fill="none" stroke="#f8a12b" stroke-linecap="round" stroke-linejoin="round"/></g><g data-name="Group 16"><path data-name="Path 85" d="M408.481 81.469s-.02-.714-.045-.411c-.025-.3-.045.411-.045.411-.221 2.055-.992 5.4-3.681 7.352v12.961a6.111 6.111 0 0 1 3.677 4.109s.022.878.049.584c.028.294.049-.584.049-.584a6.109 6.109 0 0 1 3.677-4.109V88.821c-2.689-1.952-3.46-5.297-3.681-7.352z" fill="none" stroke="#f8a12b" stroke-linecap="round" stroke-linejoin="round"/></g><g data-name="Group 17"><path data-name="Path 86" d="M421.403 81.469s-.021-.714-.045-.411c-.025-.3-.046.411-.046.411-.221 2.055-.992 5.4-3.68 7.352v12.961a6.111 6.111 0 0 1 3.677 4.109s.022.878.049.584c.027.294.048-.584.048-.584a6.111 6.111 0 0 1 3.677-4.109V88.821c-2.688-1.952-3.459-5.297-3.68-7.352z" fill="none" stroke="#f8a12b" stroke-linecap="round" stroke-linejoin="round"/></g><path data-name="Rectangle 415" stroke="#f8a12b" stroke-linecap="round" stroke-linejoin="round" fill="none" d="M376.529 110.965h62.494v13.405h-62.494z"/><path data-name="Path 87" d="M382.827 132.076l-6.3-7.7h62.494l-5.49 7.7z" fill="none" stroke="#f8a12b" stroke-linecap="round" stroke-linejoin="round"/><path data-name="Rectangle 416" stroke="#f8a12b" stroke-linecap="round" stroke-linejoin="round" fill="none" d="M382.735 132.073h50.798v79.087h-50.798z"/><path data-name="Rectangle 417" stroke="#f8a12b" stroke-linecap="round" stroke-linejoin="round" fill="none" d="M368.557 211.735h76.16v20.675h-76.16z"/><path data-name="Rectangle 418" stroke="#f8a12b" stroke-linecap="round" stroke-linejoin="round" fill="none" d="M374.298 232.41h67.715v4.771h-67.715z"/><path data-name="Path 88" d="M313.557 47.326l-5.94 73.855h12.528l-5.94-73.855a.325.325 0 0 0-.648 0z" fill="none" stroke="#f8a12b" stroke-linecap="round" stroke-linejoin="round"/><path data-name="Rectangle 419" stroke="#f8a12b" stroke-linecap="round" stroke-linejoin="round" fill="none" d="M306.729 141.882h14.519v31.347h-14.519z"/><path data-name="Rectangle 420" stroke="#f8a12b" stroke-linecap="round" stroke-linejoin="round" fill="none" d="M303.984 193.604H323.2v32.156h-19.216z"/><path data-name="Path 89" d="M301.298 136.129l5.664 5.753h14.286l5.214-5.3a9.838 9.838 0 0 0 2.828-6.9v-5.857a2.644 2.644 0 0 0-2.643-2.644h-25.533a2.644 2.644 0 0 0-2.643 2.644v5.4a9.838 9.838 0 0 0 2.827 6.904z" fill="none" stroke="#f8a12b" stroke-linecap="round" stroke-linejoin="round"/><path data-name="Path 90" d="M294.225 185.112l10.537 8.489h17.723l9.979-8.039v-12.335h-38.24z" fill="none" stroke="#f8a12b" stroke-linecap="round" stroke-linejoin="round"/><path data-name="Path 91" d="M294.225 240.099l10.537 10.243h17.723l9.979-9.7v-14.883h-38.24z" fill="none" stroke="#f8a12b" stroke-linecap="round" stroke-linejoin="round"/><path data-name="Line 4" fill="none" stroke="#f8a12b" stroke-linecap="round" stroke-linejoin="round" d="M335.896 272.625v43.751"/><path data-name="Line 5" fill="none" stroke="#f8a12b" stroke-linecap="round" stroke-linejoin="round" d="M338.984 287.037v29.339"/><path data-name="Line 6" fill="none" stroke="#f8a12b" stroke-linecap="round" stroke-linejoin="round" d="M329.237 258.218h17.982"/><path data-name="Line 7" fill="none" stroke="#f8a12b" stroke-linecap="round" stroke-linejoin="round" d="M332.75 252.029h10.867"/><path data-name="Line 8" fill="none" stroke="#f8a12b" stroke-linecap="round" stroke-linejoin="round" d="M335.025 247.549h5.16"/><path data-name="Line 9" fill="none" stroke="#f8a12b" stroke-linecap="round" stroke-linejoin="round" d="M379.733 59.877h21.875"/><path data-name="Line 10" fill="none" stroke="#f8a12b" stroke-linecap="round" stroke-linejoin="round" d="M379.071 56.445h17.379"/><path data-name="Line 11" fill="none" stroke="#f8a12b" stroke-linecap="round" stroke-linejoin="round" d="M379.818 52.962h25.657"/><path data-name="Line 12" fill="none" stroke="#f8a12b" stroke-linecap="round" stroke-linejoin="round" d="M383.91 202.759h21.875"/><path data-name="Line 13" fill="none" stroke="#f8a12b" stroke-linecap="round" stroke-linejoin="round" d="M383.249 199.327h17.379"/><path data-name="Line 14" fill="none" stroke="#f8a12b" stroke-linecap="round" stroke-linejoin="round" d="M383.995 195.844h25.657"/><path data-name="Line 15" fill="none" stroke="#f8a12b" stroke-linecap="round" stroke-linejoin="round" d="M383.91 192.416h21.875"/><path data-name="Line 16" fill="none" stroke="#f8a12b" stroke-linecap="round" stroke-linejoin="round" d="M383.249 188.985h17.379"/><path data-name="Line 17" fill="none" stroke="#f8a12b" stroke-linecap="round" stroke-linejoin="round" d="M383.995 185.501h25.657"/><path data-name="Line 18" fill="none" stroke="#f8a12b" stroke-linecap="round" stroke-linejoin="round" d="M383.91 182.815h21.875"/><path data-name="Line 19" fill="none" stroke="#f8a12b" stroke-linecap="round" stroke-linejoin="round" d="M383.249 179.384h17.379"/><path data-name="Line 20" fill="none" stroke="#f8a12b" stroke-linecap="round" stroke-linejoin="round" d="M383.995 175.901h25.657"/><path data-name="Path 92" d="M461.657 136.08s-1.106-12.267 8.922-18.412" fill="none" stroke="#f8a12b" stroke-linecap="round" stroke-linejoin="round"/><path data-name="Line 21" fill="none" stroke="#f8a12b" stroke-linecap="round" stroke-linejoin="round" d="M458.384 182.815h10.823"/><path data-name="Line 22" fill="none" stroke="#f8a12b" stroke-linecap="round" stroke-linejoin="round" d="M458.384 179.032h19.188"/><path data-name="Line 23" fill="none" stroke="#f8a12b" stroke-linecap="round" stroke-linejoin="round" d="M458.384 173.229h10.823"/><path data-name="Line 24" fill="none" stroke="#f8a12b" stroke-linecap="round" stroke-linejoin="round" d="M458.384 168.274h7.717"/><path data-name="Path 93" d="M451.021 198.723s2 17.038 16.957 18.362" fill="none" stroke="#f8a12b" stroke-linecap="round" stroke-linejoin="round"/><path data-name="Line 25" fill="none" stroke="#f8a12b" stroke-linecap="round" stroke-linejoin="round" d="M635.869 239.35h16.404"/><path data-name="Line 26" fill="none" stroke="#f8a12b" stroke-linecap="round" stroke-linejoin="round" d="M634.419 210.741h12.878"/><path data-name="Line 27" fill="none" stroke="#f8a12b" stroke-linecap="round" stroke-linejoin="round" d="M635.869 214.033h8.202"/><path data-name="Line 28" fill="none" stroke="#f8a12b" stroke-linecap="round" stroke-linejoin="round" d="M695.509 273.998v42.893"/><path data-name="Line 29" fill="none" stroke="#f8a12b" stroke-linecap="round" stroke-linejoin="round" d="M691.563 278.116v35.344"/><path data-name="Line 30" fill="none" stroke="#f8a12b" stroke-linecap="round" stroke-linejoin="round" d="M686.073 289.611v9.093"/><path data-name="Path 94" d="M664.455 263.703s-4.29-16.246 13.9-25.366" fill="none" stroke="#f8a12b" stroke-linecap="round" stroke-linejoin="round"/><path data-name="Path 95" d="M853.934 300.466s-3.9-14.79 12.652-23.092" fill="none" stroke="#f8a12b" stroke-linecap="round" stroke-linejoin="round"/><path data-name="Line 31" fill="none" stroke="#f8a12b" stroke-linecap="round" stroke-linejoin="round" d="M719.872 287.109h66.57"/><path data-name="Line 32" fill="none" stroke="#f8a12b" stroke-linecap="round" stroke-linejoin="round" d="M719.872 293.042h17.473"/><path data-name="Line 33" fill="none" stroke="#f8a12b" stroke-linecap="round" stroke-linejoin="round" d="M719.872 298.704h6.52"/><path data-name="Line 34" fill="none" stroke="#f8a12b" stroke-linecap="round" stroke-linejoin="round" d="M852.325 318.263h-5.027"/><path data-name="Line 35" fill="none" stroke="#f8a12b" stroke-linecap="round" stroke-linejoin="round" d="M857.987 315.003h-10.689"/><path data-name="Line 36" fill="none" stroke="#f8a12b" stroke-linecap="round" stroke-linejoin="round" d="M852.642 312.258h-5.344"/><path data-name="Path 96" d="M895.961 329.812s-16.936-19.673 30.193-38.889" fill="none" stroke="#f8a12b" stroke-linecap="round" stroke-linejoin="round"/><path data-name="Path 97" d="M900.309 327.64s-6.749-15.442 14.869-24.936" fill="none" stroke="#f8a12b" stroke-linecap="round" stroke-linejoin="round"/><path data-name="Path 98" d="M983.238 334.619s-6.062-14.412 13.841-19.445" fill="none" stroke="#f8a12b" stroke-linecap="round" stroke-linejoin="round"/><path data-name="Path 99" d="M989.72 334.62s-5.457-10.181 5.067-14.069" fill="none" stroke="#f8a12b" stroke-linecap="round" stroke-linejoin="round"/></g></g><path data-name="Path 100" d="M385.4 4011.361s-14.838-36.371 33.628-59.021" fill="none" stroke="#f8a12b" stroke-linecap="round" stroke-linejoin="round"/><path data-name="Path 101" d="M393.728 4004.273s-10.845-25.021 22.453-41.469" fill="none" stroke="#f8a12b" stroke-linecap="round" stroke-linejoin="round"/><path data-name="Path 102" d="M505.409 4009.04s-29.171-46.7 42.318-86.85" fill="none" stroke="#f8a12b" stroke-linecap="round" stroke-linejoin="round"/><path data-name="Path 103" d="M517.156 3997.787s-21.057-32 27.907-60.8" fill="none" stroke="#f8a12b" stroke-linecap="round" stroke-linejoin="round"/><path data-name="Path 104" d="M880.547 3977.355s-28.147-46.136 33.13-91.368" fill="none" stroke="#f8a12b" stroke-linecap="round" stroke-linejoin="round"/><path data-name="Path 105" d="M890.384 3965.156s-20.233-31.556 21.673-63.859" fill="none" stroke="#f8a12b" stroke-linecap="round" stroke-linejoin="round"/><path data-name="Path 106" d="M1090.508 3939.916s-14.074-23.068 16.565-45.684" fill="none" stroke="#f8a12b" stroke-linecap="round" stroke-linejoin="round"/><path data-name="Path 107" d="M1095.427 3933.814s-10.117-15.777 10.836-31.93" fill="none" stroke="#f8a12b" stroke-linecap="round" stroke-linejoin="round"/><path data-name="Line 37" fill="none" stroke="#f8a12b" stroke-linecap="round" stroke-linejoin="round" d="M669.008 3855.772h9.894"/><path data-name="Line 38" fill="none" stroke="#f8a12b" stroke-linecap="round" stroke-linejoin="round" d="M669.008 3851.799h7.26"/><path data-name="Line 39" fill="none" stroke="#f8a12b" stroke-linecap="round" stroke-linejoin="round" d="M669.008 3848.307h4.947"/><path data-name="Line 40" fill="none" stroke="#f8a12b" stroke-linecap="round" stroke-linejoin="round" d="M666.534 3908.758h13.74"/><path data-name="Line 41" fill="none" stroke="#f8a12b" stroke-linecap="round" stroke-linejoin="round" d="M666.534 3904.559h10.082"/><path data-name="Line 42" fill="none" stroke="#f8a12b" stroke-linecap="round" stroke-linejoin="round" d="M666.44 3899.839h10.082"/><path data-name="Line 43" fill="none" stroke="#f8a12b" stroke-linecap="round" stroke-linejoin="round" d="M666.534 3892.976h6.87"/><path data-name="Line 44" fill="none" stroke="#f8a12b" stroke-linecap="round" stroke-linejoin="round" d="M659.743 3924.445l10.226 9.194"/></g><path data-name="Path 108" d="M618.184 3776.297a3.906 3.906 0 1 1-4.258 3.52 3.906 3.906 0 0 1 4.258-3.52z" fill="none" stroke="#f8a12b" stroke-linecap="round" stroke-linejoin="round"/></g></svg><svg width="300" height="114" viewBox="0 0 577 220" id="header-logo" y="201"><g data-name="Group 9" fill="#dfb448"><text data-name="&#x645;&#x648;&#x642;&#x639; &#x641;&#x636;&#x64A;&#x644;&#x629; &#x627;&#x644;&#x634;&#x64A;&#x62E;" transform="translate(489.69 20)" font-size="16" font-family="JFFlat-Regular, JF Flat"><tspan x="-66.27" y="0">&#x645;&#x648;&#x642;&#x639; &#x641;&#x636;&#x64A;&#x644;&#x629; &#x627;&#x644;&#x634;&#x64A;&#x62E;</tspan></text><text data-name="&#x62D;&#x641;&#x638;&#x647; &#x627;&#x644;&#x644;&#x647;" transform="translate(36 212.07)" font-size="16" font-family="JFFlat-Regular, JF Flat"><tspan x="-35.094" y="0">&#x62D;&#x641;&#x638;&#x647; &#x627;&#x644;&#x644;&#x647;</tspan></text><g data-name="Group 7"><path data-name="Path 5" d="M230.039 134.299a14.8 14.8 0 0 0 .9-3.117c.394-6.089 4.083-10.906 9.63-14.983 2.823-2.075 5-1.96 7.668.275 1.625 1.365 3.127 2.819 4.65 4.255 3.878 3.656 9.547 3.391 12.549-.731a17.708 17.708 0 0 0 3.425-12.591c-1.117-10.275-2.633-20.523-3.942-30.786a90.1 90.1 0 0 1-1.071-10.825c-.012-2.267.928-4.538 2.054-6.984a5.93 5.93 0 0 1 1.032 1.638c1.478 6.993 2.989 13.982 4.3 20.995 1.737 9.308 2.627 18.748 5.182 27.915 1.657 5.944 7 10.449 14.872 12.782a118.922 118.922 0 0 0 37.692 4.834 123.311 123.311 0 0 0 17.258-2.082 26.115 26.115 0 0 0 14.4-7.71c.833-.845 1.863-1.576 2.8-2.359l.836.3c-.5 2.371-.993 4.742-1.485 7.094 6.741 1.04 14.2-2.545 15.79-7.343a51.208 51.208 0 0 1 2.034-5.553c.23-.494 1.342-.743 2.049-1.105.324.542.666 1.079.962 1.63.073.137 0 .319-.005.481-.092 1.407-.97 3.358-.105 4.1 1.555 1.34 4.154 1.956 7.21 3.254-1.64-4.631-.056-8.258 1.918-12.273 2.958 2.074 3.083 4.669 2.911 6.844-.307 3.91-1.522 7.78-2.407 11.66-.4 1.741-1.809 2.255-3.914 1.7-2.469-.653-4.971-1.249-7.373-2.027-1.728-.559-2.847-.5-3.845.89-2.939 4.1-7.658 6.013-13.607 6.281-3.938.177-7.9.207-11.807.576a39.026 39.026 0 0 0-7.218 1.512 63.6 63.6 0 0 1-17.685 2.794c-12.18.072-24.229-.367-35.786-3.776-8.782-2.591-15.79-6.582-18.851-13.818a15.384 15.384 0 0 0-1.526-2.084c-.832 3.219-1.505 5.817-2.175 8.416-1.174 4.561-6.146 8.445-11.077 8.13a13.657 13.657 0 0 1-5.964-2.158 62.521 62.521 0 0 1-6.3-5.053c-2.041-1.672-4.517-1.8-6.266-.122a22.9 22.9 0 0 0-5.045 6.761c-.475 1.051.738 3.063 1.993 3.973a65.513 65.513 0 0 0 9.665 5.718c2.725 1.33 3.892 2.572 3.1 5.272-1.695 5.754-1.407 5.715-8.6 3.917-10.513-2.628-16.5-8.388-18.583-16.465-1.887-7.328-3.1-14.765-4.413-22.174-2.22-12.527-4.191-25.08-6.495-37.6-.45-2.445-1.942-4.776-2.952-7.16l-1.446.053-2.45 12.63-1.125.059c-.411-.814-1.216-1.643-1.166-2.44a132.317 132.317 0 0 1 1.327-13.941c.309-1.813 1.756-3.589 3.056-5.2 1.5-1.858 2.583-1.758 4.1.089a25.943 25.943 0 0 1 5.306 12.778c2.2 13.58 4.143 27.186 6.4 40.759.994 5.976 2.394 11.916 3.86 17.836.381 1.538 1.708 2.936 2.6 4.4z"/><path data-name="Path 6" d="M525.982 117.112c-5.625-5.056-13.321-4.169-20.483-6.11a28.273 28.273 0 0 1 2.388-4c3.5-4.258 10.144-5.349 15.5-2.51 4.392 2.33 8.613 4.852 12.932 7.265a62 62 0 0 0 18.524 6.9c2.305.448 2.586 1.195 1.726 2.739-2.923 5.244-2.922 5.352-10.023 3.807a51.362 51.362 0 0 0-36.358 4.914c-3.172 1.7-3.132 2.075.208 3.474 8.094 3.387 10.3 8.167 6.949 14.817-.754 1.5-1.642 1.771-3.534 1-4.716-1.916-8.676-4.429-11.568-8.414-.835.939-1.361 1.581-1.951 2.186a62.436 62.436 0 0 1-5.341 5.334c-5.354 4.314-14.989 2.74-17.111-3.052-1.686-4.6-2.2-9.457-3.144-14.21a15.732 15.732 0 0 1-.028-3.06l-.781-.165c-.375.671-.813 1.326-1.116 2.015-4.341 9.888-12.7 17.329-23.762 23.061a19.024 19.024 0 0 1-6.042 1.816c-3.492.468-6.056-.8-7.6-3.258-3.329-5.31-1.191-16.366 4.533-21.257a19.477 19.477 0 0 1 .133 2.531c-.263 2.9-.631 5.788-.876 8.685-.264 3.131 2.514 5.069 6.46 4.321a21.111 21.111 0 0 0 5.981-1.987c7.8-4.228 14.738-9.264 18.619-16.033 1.565-2.729 1.1-6.292.907-9.452-.392-6.305-3.981-11.849-8.305-17.013-3.883-4.637-1.491-8.9.687-13.581a20.633 20.633 0 0 1 1.779 1.939 68 68 0 0 1 12.706 34.113 65.567 65.567 0 0 0 2.474 11.9c.712 2.566 2.292 5.07 6.014 5.675 4.3.7 8.508.124 11.326-2.763 2.505-2.564 5.18-5.2 6.677-8.144 3.31-6.508 10.228-9.522 17.758-12.167z"/><path data-name="Path 7" d="M441.813 115.977c-.46-1.415-.9-2.753-1.33-4.091l-1.066-.2c-.557 1.143-1.069 2.3-1.68 3.427-1.311 2.412-2.581 4.842-4.074 7.187a4.13 4.13 0 0 1-2.385 1.5c-3.735.786-4.442 2.989-4.873 5.5-.383 2.229-1.022 4.433-1.588 6.643-1.181 4.611-4.636 8.064-9.469 10.73a125.03 125.03 0 0 1-40.5 13.616 245.373 245.373 0 0 1-36.333 3.414 167.93 167.93 0 0 1-43.953-5.584c-11.935-3.029-18.59-9.947-23.226-18.384-.487-.886-.066-2.07-.066-3.115l.788-.279c1.505 1.051 3.1 2.037 4.5 3.164 8.895 7.134 20.22 10.628 32.29 13.151 15.51 3.243 31.221 2.858 47.017 2.058 15.927-.807 31.23-3.551 45.489-9.057a91.054 91.054 0 0 0 16.276-8.461c5.037-3.237 5.507-6.651 2.943-11.335-.813-1.484-1.766-2.925-2.706-4.365-1.715-2.627-1.344-7.135 2-10.677.715.98 1.415 1.967 2.148 2.94 3.036 4.031 11.581 2.294 13.208-1.486.921-2.138 1.81-4.289 2.882-6.382a38.894 38.894 0 0 1 2.515-3.774c4.514 2.569 5.065 11.04 1.193 13.86z"/><path data-name="Path 8" d="M144.366 129.997c.451-2.162.846-4.332 1.367-6.484s1.284-4.242 1.682-6.39a2.378 2.378 0 0 0-.861-2.283 4.573 4.573 0 0 0-3.141.079 25.347 25.347 0 0 0-4.159 2.533c-3.612 2.444-6.98 5.14-10.846 7.31-3.128 1.756-4.827 3.813-5.344 6.707-1.441 8.075-7.8 13.81-15.724 18.54a129.388 129.388 0 0 1-29.757 12.751 50.688 50.688 0 0 1-7.916 1.264c-4.809.6-9.635 1.122-14.455 1.67-1.189.135-2.382.248-3.574.371l-.424-.707a22.97 22.97 0 0 1 2.64-1.362c14.027-5.187 28.1-10.3 42.1-15.528 8.321-3.1 14.975-7.921 21.313-12.979a5.621 5.621 0 0 0 1.908-3.438c.434-2.988-.174-3.321-3.983-2.87-7.2.852-12.258-.823-12.961-5.334-.916-5.883.158-11.769 5.761-16.456 1.73-1.447 3.838-.869 5.784-.131 4.869 1.847 6.7 5.337 8.148 9.033 1.173 2.99 2 3.321 5.277 1.319 4.911-3 9.546-6.262 14.3-9.416 2.469-1.64 4.942-3.679 8.524-2 3.371 1.575 2.106 4.072 1.407 6.327q-2.436 7.866-4.984 15.712a10.406 10.406 0 0 1-1.192 1.981zm-31.878-11.34c-.1-2.439-1.7-3.252-3.487-2.974-1.051.164-1.785 1.539-2.662 2.369 1.179.7 2.26 1.75 3.573 1.966.806.133 1.965-1.012 2.576-1.361z"/><path data-name="Path 9" d="M77.2 143.867c.186-1.113.06-2.328.611-3.318 2.181-3.922 4.585-7.771 6.878-11.656a15.171 15.171 0 0 0 1.6-3.137c.215-.71.22-1.8-.324-2.206a3.927 3.927 0 0 0-2.833-.122 112.3 112.3 0 0 0-10.679 4.5c-8.273 4.226-16.072 9.109-25.592 11.619-6.508 1.716-13.2 3.142-20.224 2.668-10.675-.72-25.682-8.917-22.417-21.412.35-1.338.435-2.716.753-4.06.412-1.745-.093-3.067-1.6-4.574a10.342 10.342 0 0 1-2.688-5.49C-.803 97.938 2.5 89.947 7.68 82.308c1.46-2.152 2.9-4.31 4.352-6.465l1 .241a6.511 6.511 0 0 1-.336 2.062c-1.528 3-3.2 5.948-4.757 8.933-2.7 5.165-3.53 10.443-.923 15.757.522 1.064 2.071 1.827 3.147 2.73.984-.88 2.05-1.716 2.933-2.654.955-1.015 1.74-2.125 3.067-3.775.466 1.2.847 1.633.7 1.9-1.979 3.692-3.491 7.624-6.213 10.964-2.862 3.511-3.786 9.043-.8 12.595 5.455 6.486 13.7 8.549 23.132 8.751 12.018.257 21.94-3.91 31.542-8.841 6.082-3.123 12.286-6.106 18.482-9.094a15.435 15.435 0 0 1 3.741-1.177c2.962-.565 5.6.89 5.007 3.166a66.716 66.716 0 0 1-4.464 12.744c-2.172 4.433-5.206 8.615-7.9 12.9a6.445 6.445 0 0 1-1.094 1.045z"/><path data-name="Path 10" d="M140.317 127.321c0 2.188.106 4.379-.023 6.563-.234 3.992-1.224 7.962.958 11.887 2.849 5.124 7.4 8.1 14.857 8.519 19.524 1.093 34.6-5.5 47.6-15.949 2.916-2.344 3.41-4.791 1.531-7.683-1.868-2.875-3.542-5.825-5.426-8.95l-4.505 1.614-.885-.336c.471-.965.628-2.162 1.479-2.846 1.706-1.371 1.91-2.656 1.013-4.365-2.211-4.214-1.6-8.489-.308-13.081 4.024 2.372 3.494 6.95 8.442 8.7a6.6 6.6 0 0 0-.366 1.871c.088 1.365-.172 2.969.652 4.046 8.635 11.287 5.76 24.393-7.146 32.874a81.2 81.2 0 0 1-31.961 12.7c-8.9 1.455-17.443 1.162-24.161-4.289-4.869-3.952-7.354-8.694-6.2-14.359.939-4.612 1.486-9.271 2.329-13.9a14.707 14.707 0 0 1 1.356-3.1z"/><path data-name="Path 11" d="M564.327 64.648c1.978.379 6.059 9.315 5.3 12.3 2.178.833 2.467 1.845 1 3.653a5.745 5.745 0 0 0-.772 4.6c1.966 9.307 4.48 18.55 6.178 27.883 1.436 7.89 1.049 15.868-2.979 23.334-1.595 2.955-4.583 5.5-7.186 8.078-1.258 1.247-3.031 1.361-5.061.473a9.309 9.309 0 0 0-4.064-.162 18.917 18.917 0 0 0-3.2.833l-.757-.544c.65-.656 1.128-1.529 1.979-1.93a147.232 147.232 0 0 1 9.31-4.005c5.094-1.983 7.245-5.179 7.76-9.5.673-5.634-.188-11.111-1.539-16.6-1.812-7.371-3.51-14.759-5.285-22.136-.243-1.012-.648-2-1.033-3.169l-3.846.966-.727-.482c.562-.917.847-2.064 1.742-2.7 1.979-1.417 2.519-2.925 2.074-4.964-1.166-5.364-1.952-10.736 1.106-15.928z"/><path data-name="Path 12" d="M150.837 83.481l-3.522 1.62-.715-.368c.354-.71.457-1.629 1.106-2.093 2.6-1.856 2.472-4.029 1.969-6.465-1.185-5.738-2.3-11.505-.4-17.292a9.3 9.3 0 0 1 .887-1.612c2.172 3.017 4.234 5.806 6.173 8.646a2.892 2.892 0 0 1 .214 1.819c-.1 1.353-1.226 2.876 1.469 3.641.325.092.49 1.5.093 1.979-3.763 4.563-2.122 9.337-1.151 14.1 2.464 12.1 5.776 24.123 5.513 36.481-.113 5.337-.844 10.652-4.742 15.074-2.1 2.378-5.93 3.856-9.05 5.669a2.005 2.005 0 0 1-1.576-.3 1.188 1.188 0 0 1 .229-1.311 28.579 28.579 0 0 1 3.887-3.48c6.566-4.529 8.3-10.247 7.125-16.709-1.585-8.692-3.226-17.379-4.82-26.07-.687-3.747-1.3-7.5-1.986-11.25a16.389 16.389 0 0 0-.703-2.079z"/><path data-name="Path 13" d="M311.947 65.793a81.388 81.388 0 0 1 2.062-8.166c1.16-3.2 3.684-4.439 6.384-3.516 2.918 1 3.807 3.985 1.964 6.6-5.928-1.322-6.557-.838-7.1 4.233-.377 3.555-.23 6.817 3 9.737a6.718 6.718 0 0 1 1.893 3.988c.459 3.21-.315 3.846-4.394 4.488-5.551.874-7.52 3.465-6.439 7.749 1.753 6.945 3.242 13.929 4.785 20.9a12.189 12.189 0 0 1 .026 2.617l-.8.138c-.263-.674-.567-1.341-.784-2.024-2.063-6.5-4.332-12.959-6.059-19.508a16.764 16.764 0 0 1-.136-8.365c.528-2.019 2.792-3.77 4.3-5.633.5-.625 1.052-1.23 1.58-1.843l-.737-.447-3.4 2.075c-2-1.792-1.1-3.551.088-4.956 2.585-3.054.782-5.319-1.768-7.511a5.689 5.689 0 0 0-5.2-1.448c-1.3.227-4.094-.719-4.3-1.457a10.6 10.6 0 0 1 .436-5.721c.084-.286 3.387-.587 4.379-.021a77.225 77.225 0 0 1 8.183 5.76 15.649 15.649 0 0 1 2.037 2.331z"/><path data-name="Path 14" d="M76.98 74.779l-3.668 1.1c-1.475-2.091-.308-3.765.932-5.15 2.611-2.915-.421-4.828-1.737-7.028-.974-1.629-2.689-1.482-4.771-1.2-1.185.159-3.439-.622-3.776-1.368a4.209 4.209 0 0 1 .41-4.039c.488-.621 3.436-.879 4.364-.349a36.791 36.791 0 0 1 5.942 4.795 15.319 15.319 0 0 1 1.723 2.144c.863-2.775 1.345-5.409 2.538-7.835a3.966 3.966 0 0 1 5.819-1.422 2.8 2.8 0 0 1 1.138 2.454c-.054.426-1.678 1.1-2.493 1.027-1.867-.173-2.821.218-3.021 1.66-.388 2.791-.847 5.578-1.109 8.376-.047.492.585 1.152 1.139 1.526 3.153 2.13 4.108 4.951 4.356 8 .128 1.562-.936 2.344-2.942 2.549a23.912 23.912 0 0 0-4.557.793c-2.554.789-4.043 2.305-3.738 4.516.532 3.848 1.355 7.674 1.755 11.529a70.572 70.572 0 0 1 .091 8.453 6.9 6.9 0 0 1-.614 1.907l-.843-.023c-.326-1.464-.685-2.925-.972-4.393-.84-4.3-1.6-8.619-2.489-12.916-1.117-5.383-.725-10.342 5.859-13.756a1.727 1.727 0 0 0 .579-.556c.087-.137.042-.317.085-.794z"/><path data-name="Path 15" d="M379.221 75.035c-4.288 7.311-10.938 13.158-18.863 18.156-5.787 3.651-11.768 7.119-17.662 10.668l-.986-.6a10.437 10.437 0 0 1 1.665-1.99c7.668-5.713 15.585-11.237 23-17.134 3.737-2.971 6.6-6.6 9.852-9.932 1.351-1.383.765-2.474-.708-3.588-5.282-3.994-5.51-10.908-.236-14.983a8.247 8.247 0 0 1 5.413-1.553 4.61 4.61 0 0 1 2.9 3.51c.166 2.932-.574 5.888-.773 8.842-.077 1.151.445 2.32.463 3.483a17.111 17.111 0 0 1-.408 4.865c-.109.388-1.971.484-3.027.713zm-.973-8.8l1.982-.939a13.428 13.428 0 0 0-.577-3.817 3.218 3.218 0 0 0-2.475-1.286c-1.7.349-2.47 1.473-1.536 2.83.766 1.118 1.73 2.149 2.606 3.216z"/><path data-name="Path 16" d="M172.522 98.354c1.4-5.173 8.693-5.453 11.641-9.964l-13.041 1.058c-1.064-4.066 4.1-9.407 9.282-9.342a37.162 37.162 0 0 1 9.165.932c4.305 1.186 4.86 4 2.6 7.177-3.021 4.234-7.838 6.488-13.379 8.148-1.907.571-3.782 1.199-6.268 1.991z"/><path data-name="Path 17" d="M422.871 75.124c2.933-4.994 10.371-5.5 13.03-10.075-4.856-1.423-9.416-2.388-14.327.848-.182-1.15-.66-1.979-.348-2.554 2.163-4 5.192-7.988 12.883-7.421 1.869.138 3.758.177 5.606.409 4.388.552 6.512 4.086 4.047 6.927a77.589 77.589 0 0 1-6.271 6.322c-3.615 3.303-8.749 4.234-14.62 5.544z"/><path data-name="Path 18" d="M239.68 99.717c2.467-1.537 4.982-3.033 7.376-4.637a11.918 11.918 0 0 0 1.947-2.043 12.025 12.025 0 0 0-3.435-1.264 20.654 20.654 0 0 0-5.159.564c-2.319.486-2.89-.227-2.495-1.824.834-3.368 5.822-6.6 10.232-6.592a42.21 42.21 0 0 1 5.318.193c4.486.582 6.517 3.926 4.159 6.9-3.031 3.822-6.687 7.209-12.359 8.811a40.929 40.929 0 0 1-5.073.779z"/><path data-name="Path 19" d="M40.683 113.691a23.33 23.33 0 0 1 2.222-1.7c2.8-1.682 5.705-3.257 8.433-5 .673-.43 1.346-1.524 1.079-1.995a3.4 3.4 0 0 0-2.535-1.075c-3.492.246-6.955.729-10.554 1.139-1-2.844 4.286-8.361 9.427-8.659a37.091 37.091 0 0 1 8.316.692c2.521.436 3.38 1.972 2.958 3.933-1.252 5.816-10.921 12.564-19.346 12.665z"/><path data-name="Path 20" d="M113.96 71.931l-2.388-1.275c-5.674 7.4-14.008 12.434-22.743 17.132l-.835-.611c1.2-.991 2.37-2 3.6-2.968 5.272-4.122 10.678-8.146 15.8-12.374 3.285-2.709 3.1-2.935-.376-5.42-5.143-3.681-4.436-8.994 1.578-11.861 3.043-1.45 6.049-.456 6.263 2.344.17 2.212-.566 4.457-.659 6.694a12.522 12.522 0 0 0 .582 4.1c.461 1.496 1.33 2.941-.822 4.239zm-2.479-7.543c.384-2.464 2.39-4.7-.8-6.145-.682-.31-3.71 1-3.958 1.853-.75 2.578 2.832 2.677 4.758 4.292z"/><path data-name="Path 21" d="M19.988 85.924a13.459 13.459 0 0 1 1.536-1.722c2.083-1.7 4.326-3.282 6.345-5.022 4.686-4.038 3.938-10.412-1.622-13.766a5.824 5.824 0 0 0-2.6-.372c-3.789-.038-5.958-2.667-4.019-5.195 1.382-1.8 3.458-1.083 5.162-.2a15.445 15.445 0 0 1 2.925 2.172c.877.756 1.628 1.6 2.935 2.9.468-2.564.516-4.654 1.317-6.555a5.443 5.443 0 0 1 3.307-3.032c2.33-.413 3.635 1.263 4.259 2.893.854 2.23-.133 2.979-3.135 2.521-.489-.075-.975-.162-2.19-.365-.181 2.964-.432 5.732-.5 8.5-.171 6.669-2.3 12.614-9.958 16.584-.92.477-1.965.811-2.952 1.211z"/><path data-name="Path 22" d="M256.296 164.444c-2.51-1.409-4.917-2.457-6.713-3.943-.575-.476.449-2.118.774-3.221a2.835 2.835 0 0 1 .415-.65c2.375-3.61 2.375-3.61 6.866-1.51 3.651 1.708 3.643 1.7 5.947-1.063 3.254-3.908 2.177-4.178 7.756-1.183 1.338.718 3.479 2.225 3.211 2.749a23.433 23.433 0 0 1-4.583 5.647c-.237.233-2.245-.377-3.217-.857-4.9-2.425-4.862-2.447-7.879 1.326-.679.849-1.531 1.616-2.577 2.705z"/><path data-name="Path 23" d="M496.434 90.255l11.119-7.662c-4.4-2.572-8.174-1.808-11.933-.048-.644-4.33 5.3-9.5 10.495-9.011 2.979.278 6.727-.039 8.333 2.549s-.994 4.566-2.614 6.581a22.623 22.623 0 0 1-10.81 7.448c-1.26.415-2.639.615-3.963.913z"/><path data-name="Path 24" d="M133.335 156.518c-1.671 2.288-2.928 4.121-4.364 5.866-.252.307-1.25.318-1.908.328a2.965 2.965 0 0 1-1.1-.429c-1.78-.806-3.736-2.4-5.281-2.192-1.366.186-2.385 2.335-3.354 3.7-1.027 1.449-2.29 1.663-4.119.961-5.4-2.074-6.058-6.353-1.319-9.351a4.688 4.688 0 0 1 2.22-.239c.354.008.689.336 1.047.5 5.046 2.333 5.047 2.332 7.731-1.584 1.708-2.492 1.97-2.583 5.149-.891 1.792.957 3.391 2.121 5.298 3.331z"/><path data-name="Path 25" d="M556.674 56.838c-.5.645-.931 1.182-1.332 1.732-3.878 5.317-10.168 8.633-16.442 12.016-4.53 2.442-8.79 5.181-13.245 7.708a13.772 13.772 0 0 1-3.062.854c.249-.858.123-2.017.807-2.524 4.8-3.555 9.687-7.047 14.7-10.418 4.871-3.273 9.907-6.4 14.938-9.53a7.67 7.67 0 0 1 2.725-.728c.207-.031.563.535.911.89z"/><path data-name="Path 26" d="M110.561 81.606a31.054 31.054 0 0 0 1.192 5.339c.394.99 1.657 1.774 2.53 2.65 1.015-1.006 2.693-1.939 2.894-3.033.327-1.78-.393-3.663-.514-5.509a19.8 19.8 0 0 1 .277-3.17l1.406-.135c.608 2.013 1.36 4.01 1.782 6.046s1.3 3.673 4.726 4.368c.624-4.352-4.4-7.893-2.867-12.06l.979-.239a42.079 42.079 0 0 1 2.576 4.884c.859 2.288 1.874 4.642 1.939 6.982.109 3.97-2.6 4.985-7.212 3.243-.683-.258-2 .336-2.944.674-1.578.567-3.443 2-4.541 1.691a5.153 5.153 0 0 1-3.259-3.313c-.488-2.713-.15-5.514-.15-8.28z"/><path data-name="Path 27" d="M181.232 62.84c.267-.908.455-1.66.714-2.4a20.462 20.462 0 0 1 1.573-4.142c1.667-2.709 2.928-3.091 5.443-2.028 2.466 1.041 2.989 2.857 1.471 5.113a1.66 1.66 0 0 1-.608.018c-4.641-2-4.873-1.839-5.431 2.472-.366 2.83-.423 5.807-3.728 8.38-.545-1.046-.884-1.83-1.353-2.567a27.141 27.141 0 0 0-2.926-4.2c-.445-.476-1.83-.44-2.795-.61-1.717-.3-4.411-.187-4.942-.963a5.8 5.8 0 0 1-.346-4.747c.41-1.347 3.8-1.549 5.657-.257 2.455 1.716 4.58 3.709 7.271 5.931z"/><path data-name="Path 28" d="M342.608 55.764c4.369 2.8 6.881 5.9 6.708 9.907-.118 2.71-1.105 5.392-1.4 8.107-.142 1.317.416 2.678.657 4.019l4.768-1.41c1.223 1.8-1.38 7.344-4.174 8.034-2.169.536-4.5-.71-4.551-2.934a32.532 32.532 0 0 1 .839-8.843c.861-3.365.837-6.4-2.359-9.012-2.847-2.331-2.146-4.796-.488-7.868z"/><path data-name="Path 29" d="M510.535 56.407a8.215 8.215 0 0 1-4.285 6.448c-7.05 4.293-14.24 8.451-21.4 12.63-2.29 1.336-4.674 2.576-7.4 4.071-.65-2.634 1.084-3.86 2.8-4.948 5.971-3.792 12.04-7.492 18.05-11.247 2.273-1.42 4.426-2.957 6.748-4.325 1.473-.873 3.165-1.532 5.487-2.629z"/><path data-name="Path 30" d="M58.691 74.183c-.556 2.452-.895 4.34-1.432 6.195a3.156 3.156 0 0 1-3.933 2.054c-1.433-.335-3.5-1.48-3.592-2.368a25.274 25.274 0 0 1 .466-8.817c1-3.876.838-7.322-2.843-10.329-1.994-1.629-1.648-3.532-.923-5.443.545-1.435 1.549-1.386 2.643-.367 3.663 3.411 5.962 7.136 4.7 11.754a39.789 39.789 0 0 0-1.3 6.675c-.082.857.741 1.766 1.153 2.652 1.057-.393 2.117-.78 3.169-1.181.362-.134.696-.298 1.892-.825z"/><path data-name="Path 31" d="M469.404 63.893a65.845 65.845 0 0 1 2.54-7.054 4.143 4.143 0 0 1 2.921-2.007 9.706 9.706 0 0 1 4.283 1.689c.357.216.1 1.382-.315 1.907a2.592 2.592 0 0 1-1.991.634c-3.645-1.259-4.022.629-4.407 2.582-.421 2.139-.709 4.3-1.342 6.4-.246.818-1.276 1.5-1.95 2.237-.652-.714-1.377-1.4-1.94-2.149a39.247 39.247 0 0 0-3-4.17c-1.158-1.2-2.575-1.965-4.688-.536-1.546 1.045-3.534.443-3.752-1.129-.206-1.48-.011-3.435 1.12-4.424.714-.625 3.949-.352 5.208.382 2.742 1.601 4.94 3.751 7.313 5.638z"/><path data-name="Path 32" d="M188.424 167.617c5.11-2.456 10.174-4.972 15.344-7.35 4.726-2.174 8.341-5.018 10.515-8.98.86-1.568 1.679-3.622 4.615-3.367 3.347.291 2.892 2.608 3.12 4.363a6.953 6.953 0 0 1-.415 3.309c-.711 1.869-2.654 2.455-4.636 1.43-2.436-1.259-3.737-.451-5.213.926-5.407 5.044-13.286 7.092-20.49 9.946a11.258 11.258 0 0 1-2.573.346z"/><path data-name="Path 33" d="M233.14 76.521a21.51 21.51 0 0 1 2.776-3.422c5.058-4.069 10.243-8.044 15.362-12.067 2.412-1.9 4.747-3.852 7.188-5.725a22.093 22.093 0 0 1 2.848-1.528c-.468 5.53-20.236 21.609-28.174 22.742z"/><path data-name="Path 34" d="M471.552 167.177c4.016-1.282 8.018-2.594 12.052-3.84 5.921-1.828 11.466-3.864 13.643-9.147.417-1.011 2.577-1.6 3.932-2.376.794 1.225 1.91 2.4 2.279 3.694a5.591 5.591 0 0 1-.6 3.3c-.909 2.333-1.852 2.553-4.792 1.678a3.884 3.884 0 0 0-2.692.242c-6.554 5.041-14.862 6.4-23.549 7.033z"/><path data-name="Path 35" d="M348.833 146.622c.7-.248 1.432-.454 2.095-.753 5.552-2.5 11.2-4.889 16.59-7.586 3.278-1.641 6.2-3.363 10.247-1.42a2.849 2.849 0 0 0 2.213-.3c1.721-2.114 4.824-2.094 7.271-3.086.892 2.491-.55 4.55-3.422 5.178-1.269.278-2.406.972-3.681 1.162a40.957 40.957 0 0 1-5.19.258c-1.545.029-3.389-.453-4.586.039-3.841 1.58-7.286 3.758-11.188 5.22-3.07 1.15-6.591 1.582-9.913 2.333z"/><path data-name="Path 36" d="M552.179 77.411c-1.938-.976-3.616-2.419-5.1-.158-.979 1.5-.669 2.544 1.721 2.7 2.718.175 5.423.268 7.6-1.453a5.315 5.315 0 0 1 2.821-.916c-1.2 4.856-7.816 6.126-10.218 10.131l-.791-.344c-.081-.433-.414-.969-.2-1.284 1.247-1.848-.2-2.481-2.091-2.911-3.045-.692-3.708-2.565-2.688-4.382a26.1 26.1 0 0 1 5.081-6.007 4.91 4.91 0 0 1 3.728-.83c.915.455 1.241 1.915 1.326 2.964.057.746-.701 1.533-1.189 2.49z"/><path data-name="Path 37" d="M144.637 72.01c-1.779 4.773-9.554 5.715-11.41 10.439-.82-2.355-2.044-3.258-4.589-5.267a4.078 4.078 0 0 1-.944-4.089 9.921 9.921 0 0 1 3.479-4.488 7.512 7.512 0 0 1 4.755-.807c1.005.155 1.912 1.511 2.409 2.469.26.5-.462 1.3-.741 1.967a17.922 17.922 0 0 0-2.387-.582c-1.171-.13-2.629-.469-3.5-.088-1.9.831-1.567 2.178.53 2.787a9.651 9.651 0 0 0 7.642-1.022c1.237-.682 2.508-1.325 3.764-1.986z"/><path data-name="Path 38" d="M534.356 78.737a10.825 10.825 0 0 1-.963 2.9c-1.21 1.826-1.607 3.295.238 5.226 2.589 2.709 1.5 7.37-1.663 9.824-1.931 1.5-3.784 1.3-4.9-.633-2.15-3.715-.672-7.316 1.069-10.769a64.584 64.584 0 0 1 4.677-6.945zm-1.717 12.549l-3.128-2.251c-1.086 1.826-1.657 3.209.624 4.443z"/><path data-name="Path 39" d="M403.818 95.708c4.359.156 7.976 4.774 6.158 7.5-3.035 4.548-3.31 4.612-8.273 1.2-1.095-.753-2.855-1.993-2.618-2.639a27.654 27.654 0 0 1 3.58-5.793c.165-.236.933-.222 1.153-.268z"/><path data-name="Path 40" d="M294.285 96.955c.433 2.754-.966 4.822-2.956 6.541-.531.459-2.841.3-3.67-.213a5.39 5.39 0 0 1-1.9-2.944c-1.448-4.235 3.516-16.519 8.481-19.541-.8 1.979-1.546 3.973-2.429 5.931-.788 1.745-1.775 3.436-2.583 5.175a7.2 7.2 0 0 0-.669 2.351c-.275 3.097 1.609 4.105 5.726 2.7z"/><path data-name="Path 41" d="M185.8 128.269c-1.226 1.928-2.362 3.807-3.641 5.626a2.026 2.026 0 0 1-1.583.3 50.7 50.7 0 0 1-6.241-3.557 2.267 2.267 0 0 1-.427-2.4c2.368-5.538 5.219-6.046 10.444-1.918a9.366 9.366 0 0 1 1.448 1.949z"/><path data-name="Path 42" d="M41.605 163.312c-2.7-1.48-4.959-2.612-7.029-3.921a1.713 1.713 0 0 1-.6-1.842 46.236 46.236 0 0 1 3.163-4.694c.186-.259.756-.646.889-.592a56.911 56.911 0 0 1 6.851 3.022 2.266 2.266 0 0 1 .424 2.519 55.163 55.163 0 0 1-3.698 5.508z"/><path data-name="Path 43" d="M428.615 153.463c-1.593 2.481-2.788 4.35-4 6.213-.084.129-.384.314-.462.285a49.1 49.1 0 0 1-6.161-2.511 2.4 2.4 0 0 1-.678-2.435 7.719 7.719 0 0 1 1.9-3.028c.771-.811 2.422-2.128 2.85-1.959a58.262 58.262 0 0 1 6.551 3.435z"/><path data-name="Path 44" d="M385.128 80.393c-.779 1.767-1.625 3.518-2.319 5.3-.66 1.7-2.228 3.405-.225 5.347l2.7-1.34c1.3 2.361-.962 6.963-3.8 7.7-.656.17-2.294-.384-2.423-.8-.586-1.9-1.334-3.921-1.032-5.8a17.948 17.948 0 0 1 6.2-10.671z"/><path data-name="Path 45" d="M228.494 83.486c0-3.673.17-6.793-.042-9.9-.274-4.011-1.373-7.743-5.96-10.443-.928-.546-.487-2.478-.716-4.035 8.463 2.324 13.251 19.462 6.718 24.378z"/><path data-name="Path 46" d="M405.387 60.065c.217 4.146-5.483 7.414-2.262 11.58l3.557-.313a24.379 24.379 0 0 1-.3 3.175 4.8 4.8 0 0 1-1 1.766c-1.313 1.679-3.418 1.909-4.768.285-1.02-1.226-2.129-2.955-1.769-4.217a106.713 106.713 0 0 1 4.41-11.25c.114-.274.524-.5.853-.689a7.334 7.334 0 0 1 1.279-.337z"/><path data-name="Path 47" d="M121.413 66.286c6.312-5.5 14.655-8.887 22.363-12.934l1 .609c-.71 1.021-1.145 2.273-2.189 3.013a66.183 66.183 0 0 1-6.483 3.736c-3.724 2.041-7.437 4.1-11.245 6.044a11.361 11.361 0 0 1-3.019.541z"/><path data-name="Path 48" d="M538.054 150.979c-.456 2.1-4.386 4.313-6.925 3.977-3.044-.4-2.905-2.357-2.511-3.981a28.339 28.339 0 0 1 2.3-5.472c.8-1.638.354-2.394-2.084-2.442a7.548 7.548 0 0 1-2.531-1.072c.669-.748 1.124-1.843 2.046-2.182 3.208-1.182 6 .387 5.476 3.11-.394 2.047-1.487 4.008-2.049 6.043-.794 2.878.261 3.526 3.917 2.583.731-.189 1.471-.352 2.361-.564z"/><path data-name="Path 49" d="M332.981 102.159l2.874-1.166c1.009 1.9-1.278 6.674-3.521 6.923a3.924 3.924 0 0 1-3.057-1.659 7.555 7.555 0 0 1-.167-4.964 81.408 81.408 0 0 1 4.8-9.094c.2-.361.833-.578 1.622-1.1.176 3.972-4.584 6.88-2.551 11.06z"/><path data-name="Path 50" d="M431.634 90.823l3.607-.353a4.729 4.729 0 0 1-2.264 5.817c-1.616.792-3.152.85-4.234-.625-2.4-3.277.294-10.012 5.618-11.716-.854 2.15-1.711 4.304-2.727 6.877z"/><path data-name="Path 51" d="M551.175 93.211c.454 3.682-3.816 6.776-1.847 10.806.943-.575 1.675-1.02 2.409-1.465 2.294 2.414 1.348 5.183-2.2 6.062a3.259 3.259 0 0 1-2.339-.6 4.1 4.1 0 0 1-1.368-2.381c-.433-4.4.36-8.585 4.375-12.039a4.166 4.166 0 0 1 .97-.383z"/><path data-name="Path 52" d="M492.08 99.066c-1.59 5.35-7.3 10.013-2.221 16.36l2.844-3.552c1.282 1.919-.257 6.164-2.457 6.45-1.086.141-3.287-.756-3.5-1.454-.681-2.229-1.4-4.715-.758-6.861 1.038-3.466 3.126-6.748 4.841-10.086.182-.357.822-.575 1.251-.857z"/><path data-name="Path 53" d="M20.481 149.663l-.745 7.906.82.135 2.352-1.515c2.293 1.155 1.657 2.72.763 4.006-.595.855-2.4 2.084-2.98 1.9-1.406-.459-3.116-1.515-3.449-2.568-1.1-3.477-.139-6.839 1.725-10z"/><path data-name="Path 54" d="M464.578 162.339c-.308-3.056 5.819-5.07 2.544-8.766l-2.623.667c-.241-2.079 1.62-4.357 3.918-4.838 1.966-.412 3.337.267 3.177 1.735a17.626 17.626 0 0 1-1.672 6.273c-1 1.919-2.848 3.574-4.324 5.344z"/><path data-name="Path 55" d="M54.13 148.024a6.377 6.377 0 0 1 2.76-6.222c1.891-1.344 3.663-.493 3.907 1.044a23.158 23.158 0 0 1-.124 7.347c-.255 1.545-1.408 3-2.158 4.5l-1.173-.247c.191-.921.359-1.845.578-2.762a22.913 22.913 0 0 0 .922-3.969c.03-.586-.859-1.2-1.331-1.8-.689.388-1.385.769-2.062 1.169-.293.17-.545.383-1.319.94z"/><path data-name="Path 56" d="M24.883 109.577c3.177 2.569-1.09 5.111 1.2 7.457.973-.667 1.84-1.26 2.709-1.851a3.661 3.661 0 0 1-.836 5.632c-1.817 1-3.858.4-4.44-1.514-.948-3.126-.308-6.175 1.367-9.724z"/><path data-name="Path 57" d="M454.162 124.763l3.033-1.775c1.509 1.916 1.033 4.551-1.215 5.174a5.215 5.215 0 0 1-3.786-.9c-1.493-1.344-.8-7.444.661-8.84a1.8 1.8 0 0 1 1.255-.434c.414.185.882.691.837 1.022-.12.869-.612 1.705-.754 2.574a22.912 22.912 0 0 0-.031 3.179z"/></g></g></svg><svg width="24" height="20" id="home" y="315"><path d="M9.623 20.45v-7.218h4.812v7.218h6.015v-9.624h3.609L12.029 0 0 10.826h3.609v9.624z" fill="#dfb448"/></svg><svg viewBox="0 0 28.3 33" width="32" height="32" id="magnify" y="335"><path d="M24.5 3.8C22 1.4 18.8 0 15.3 0c-1.7 0-3.4.3-5 1-4.9 2-8.1 6.8-8.1 12 0 3.5 1.4 6.8 3.8 9.2l.6.6-6.6 9L1.6 33l6.7-8.9c2.1 1.3 4.5 2 7 2 7.2 0 13.1-5.8 13.1-13-.1-3.5-1.4-6.8-3.9-9.3zm-1.4 17.1c-2 2-4.8 3.2-7.8 3.2S9.6 23 7.5 20.9C5.4 18.8 4.2 16 4.2 13c0-4.5 2.7-8.5 6.8-10.2 1.4-.5 2.8-.8 4.3-.8 3 0 5.7 1.1 7.8 3.2 2.1 2.1 3.2 4.9 3.2 7.8 0 3.1-1.2 5.9-3.2 7.9z" fill="#272727"/></svg><svg width="16" height="24" id="mic" y="367"><defs><linearGradient id="mic-a" x1=".5" x2=".5" y2="1" gradientUnits="objectBoundingBox"><stop offset="0" stop-color="#29b3ba"/><stop offset="1" stop-color="#46eeaa"/></linearGradient></defs><path d="M13.084 17.01a3.6 3.6 0 0 0 3.453-3.752l.012-7.5A3.612 3.612 0 0 0 13.084 2a3.612 3.612 0 0 0-3.465 3.752v7.5a3.612 3.612 0 0 0 3.465 3.758zm6.116-3.753a6.231 6.231 0 0 1-6.121 6.379 6.231 6.231 0 0 1-6.121-6.379H5a8.519 8.519 0 0 0 6.929 8.405v4.1h2.31v-4.1a8.5 8.5 0 0 0 6.929-8.405z" transform="translate(-5 -2)" fill="url(#mic-a)"/></svg><svg data-name="Group 54" width="21" height="38" id="minbar" y="391"><defs><linearGradient id="minbar-a" x1=".5" x2=".5" y2="1" gradientUnits="objectBoundingBox"><stop offset="0" stop-color="#29b3ba"/><stop offset="1" stop-color="#46eeaa"/></linearGradient></defs><path data-name="Path 8199" d="M132.753 77.61a.323.323 0 0 0 .323-.323 1.763 1.763 0 0 1 1.761-1.761.323.323 0 0 0 0-.647 2.41 2.41 0 0 0-2.408 2.408.323.323 0 0 0 .324.323z" transform="translate(-130.689 -69.181)" fill="url(#minbar-a)"/><path data-name="Path 8200" d="M130.575 23.164a1.071 1.071 0 0 0-.745-1.019v-1.217a.323.323 0 1 0-.647 0v1.218a1.073 1.073 0 0 0-.629.535l-4.709-3.469a1.067 1.067 0 0 0-.61-1.538v-1.218a.323.323 0 1 0-.647 0v1.218a1.069 1.069 0 0 0-.447.279l-4.786-3.515V8.105a3.661 3.661 0 0 0-3.338-3.647V3.025a1.068 1.068 0 0 0 0-2.037V.323a.323.323 0 1 0-.647 0v.665a1.069 1.069 0 0 0 0 2.037v1.434a3.666 3.666 0 0 0-3.338 3.647v12.061a1.181 1.181 0 0 0-.487.955v16.256a.323.323 0 0 0 .323.323h19.179a1.185 1.185 0 0 0 1.183-1.183V30.1a1.18 1.18 0 0 0-.4-.886v-5.032a1.071 1.071 0 0 0 .745-1.018zm-1.069-.422a.422.422 0 1 1-.422.422.422.422 0 0 1 .422-.422zm-6.594-4.472a.422.422 0 1 1-.422.422.422.422 0 0 1 .422-.422zm-1.057.274a1.058 1.058 0 0 0 .734 1.167v4.716h-4.743v-3.3a1.182 1.182 0 0 0-.49-.957v-4.93zm-8.161-16.96a.422.422 0 1 1-.422.422.422.422 0 0 1 .422-.422zm-3.015 6.521a3.015 3.015 0 1 1 6.03 0v11.836h-.809v-9.9a.846.846 0 0 0-.845-.845h-2.713a.846.846 0 0 0-.845.845v9.9H110.684V8.105zm4.569 11.833h-3.108v-9.9a.2.2 0 0 1 .2-.2h2.713a.2.2 0 0 1 .2.2zm13.8 17.116h-2.655v-5.03a.323.323 0 0 0-.647 0v5.03h-15.554v-1.332h10.054a.323.323 0 0 0 0-.647h-10.054v-1.589h2.486a.323.323 0 0 0 0-.647h-2.486V22.363h.878v6.812a.323.323 0 1 0 .647 0v-6.812h1.183v1.942a.323.323 0 0 0 .647 0v-1.942h1.6a.323.323 0 0 0 0-.647h-4.951v-.594a.537.537 0 0 1 .537-.537h5.934a.537.537 0 0 1 .537.537v3.627a.323.323 0 0 0 .323.323h5.332a.537.537 0 0 1 .537.537v1.21h-3.436a.323.323 0 0 0 0 .647h3.432v1.77a.323.323 0 0 0 .323.323h5.332a.537.537 0 0 1 .537.537v.737h-3.317a.323.323 0 0 0 0 .647h3.317v1.073h-1.769a.323.323 0 1 0 0 .647h1.769v3.318a.537.537 0 0 1-.537.536zm0-8.142h-5.009v-3.3a1.185 1.185 0 0 0-.8-1.12V19.71a1.048 1.048 0 0 0 .127-.051l5.108 3.763a1.072 1.072 0 0 0 .712.76v4.738a1.2 1.2 0 0 0-.139-.008z" transform="translate(-109.545)" fill="url(#minbar-a)"/><path data-name="Path 8201" d="M149.8 143.73a.323.323 0 0 0-.323.323v4.013a.323.323 0 0 0 .647 0v-4.013a.323.323 0 0 0-.324-.323z" transform="translate(-146.44 -132.793)" fill="url(#minbar-a)"/></svg><svg width="23" height="23" id="video-side" y="429"><defs><linearGradient id="video-side-a" x1=".5" x2=".5" y2="1" gradientUnits="objectBoundingBox"><stop offset="0" stop-color="#29b3ba"/><stop offset="1" stop-color="#46eeaa"/></linearGradient></defs><path d="M14.524 10.827l-3.459-2.6v10.209l3.459-2.6 3.345-2.506zm0 0l-3.459-2.6v10.209l3.459-2.6 3.345-2.506zm0 0l-3.459-2.6v10.209l3.459-2.6 3.345-2.506zM12.2 4.341V2.05a11.282 11.282 0 0 0-6.034 2.506l1.61 1.622A9 9 0 0 1 12.2 4.341zM6.178 7.776l-1.622-1.61A11.282 11.282 0 0 0 2.05 12.2h2.291a9 9 0 0 1 1.837-4.424zm-1.837 6.69H2.05A11.282 11.282 0 0 0 4.556 20.5l1.622-1.622a8.922 8.922 0 0 1-1.837-4.411zm1.825 7.644a11.318 11.318 0 0 0 6.034 2.506v-2.291a9 9 0 0 1-4.422-1.837L6.166 22.11zm18.506-8.777a11.357 11.357 0 0 1-10.148 11.283v-2.291a9.071 9.071 0 0 0 0-17.985V2.05a11.357 11.357 0 0 1 10.148 11.283z" transform="translate(-2.05 -2.05)" fill="url(#video-side-a)"/></svg><svg width="28" height="26" id="video" y="452"><defs><linearGradient id="video-a" x1="1" y1=".5" x2="0" y2=".5" gradientUnits="objectBoundingBox"><stop offset="0" stop-color="#29b3ba"/><stop offset="1" stop-color="#46eeaa"/></linearGradient></defs><path data-name="Union 2" d="M7.483 26.41a.55.55 0 0 1-.551-.55v-2.751h-1.65a.55.55 0 0 1-.551-.55v-1.651h-3.08A1.652 1.652 0 0 1 0 19.257v-9.9A1.652 1.652 0 0 1 1.651 7.7h2.374a4.4 4.4 0 1 1 6.759-5.429A4.4 4.4 0 1 1 17.543 7.7h2.045a1.653 1.653 0 0 1 1.651 1.65v.55h1.477l4.59-3.2a.55.55 0 0 1 .865.451v13.2a.55.55 0 0 1-.865.451l-4.59-3.2h-1.478v1.65a1.653 1.653 0 0 1-1.651 1.651h-2.751v1.651a.55.55 0 0 1-.55.55h-1.65v2.756a.55.55 0 0 1-.551.55zm.55-1.1h5.5v-2.2h-5.5zm-2.2-3.3h9.9v-1.1h-9.9zM1.1 9.353v9.9a.551.551 0 0 0 .551.551h17.937a.551.551 0 0 0 .551-.551v-9.9a.551.551 0 0 0-.551-.55H1.651a.551.551 0 0 0-.551.55zm22.339 1.388v6.029l3.632 2.53V8.207zm-2.2 5.765h1.1V11h-1.1zm-9.9-12.1a3.3 3.3 0 1 0 3.3-3.3A3.305 3.305 0 0 0 11.335 4.4zm-1.5 3.3h1.889a4.451 4.451 0 0 1-.945-1.174A4.437 4.437 0 0 1 9.839 7.7zM3.631 4.4a3.3 3.3 0 1 0 3.3-3.3 3.305 3.305 0 0 0-3.3 3.3zm2.752 13.207a.551.551 0 1 1 0-1.1h11a.551.551 0 0 1 0 1.1zm-2.751-.551a.55.55 0 1 1 .551.551.551.551 0 0 1-.552-.55zm13.2-2.2a.55.55 0 1 1 .551.55.551.551 0 0 1-.547-.55zm-12.654.55a.55.55 0 0 1-.551-.55v-3.3A.55.55 0 0 1 4.182 11h7.7a.55.55 0 0 1 .551.551v3.3a.55.55 0 0 1-.551.55zm.55-1.1h6.6V12.1h-6.6zm12.1-2.751a.55.55 0 1 1 .551.55.551.551 0 0 1-.543-.55zM12.985 4.4a1.651 1.651 0 1 1 1.651 1.651A1.653 1.653 0 0 1 12.985 4.4zm1.1 0a.55.55 0 1 0 .55-.55.551.551 0 0 0-.549.55zm-8.8 0a1.651 1.651 0 1 1 1.65 1.651A1.652 1.652 0 0 1 5.282 4.4zm1.1 0a.55.55 0 1 0 .55-.55.551.551 0 0 0-.552.55z" fill="url(#video-a)"/></svg><svg width="27" height="24" id="write" y="478"><defs><linearGradient id="write-a" x1=".5" x2=".5" y2="1" gradientUnits="objectBoundingBox"><stop offset="0" stop-color="#29b3ba"/><stop offset="1" stop-color="#46eeaa"/></linearGradient></defs><path d="M25.72 5.2a13.076 13.076 0 0 0-4.326-.7 10.551 10.551 0 0 0-6.8 2.089A10.551 10.551 0 0 0 7.8 4.5 10.551 10.551 0 0 0 1 6.589v20.4a.711.711 0 0 0 .618.7c.124 0 .185-.07.309-.07A13.7 13.7 0 0 1 7.8 26.082a10.551 10.551 0 0 1 6.8 2.089 13.632 13.632 0 0 1 6.8-2.089 11.419 11.419 0 0 1 5.871 1.462.5.5 0 0 0 .309.07.711.711 0 0 0 .618-.7V6.589A8.1 8.1 0 0 0 25.72 5.2zm0 18.8a12.873 12.873 0 0 0-4.326-.7 13.632 13.632 0 0 0-6.8 2.089V9.373a13.632 13.632 0 0 1 6.8-2.089 12.873 12.873 0 0 1 4.326.7z" transform="translate(-1 -4.5)" fill="url(#write-a)"/></svg></svg>
