<?xml version="1.0" encoding="utf-8"?>
<!-- Generator: Adobe Illustrator 23.0.3, SVG Export Plug-In . SVG Version: 6.00 Build 0)  -->
<svg version="1.1" id="Layer_1" xmlns="http://www.w3.org/2000/svg" xmlns:xlink="http://www.w3.org/1999/xlink" x="0px" y="0px"
	 viewBox="0 0 28.3 33" style="enable-background:new 0 0 28.3 33;" xml:space="preserve">
<style type="text/css">
	.st0{fill:#272727;}
</style>
<g id="Path_109">
	<path class="st0" d="M24.5,3.8C22,1.4,18.8,0,15.3,0h0c-1.7,0-3.4,0.3-5,1C5.4,3,2.2,7.8,2.2,13c0,3.5,1.4,6.8,3.8,9.2
		c0.2,0.2,0.4,0.4,0.6,0.6L0,31.8L1.6,33l6.7-8.9c2.1,1.3,4.5,2,7,2c7.2,0,13.1-5.8,13.1-13C28.3,9.6,27,6.3,24.5,3.8z M23.1,20.9
		c-2,2-4.8,3.2-7.8,3.2c-3,0-5.7-1.1-7.8-3.2C5.4,18.8,4.2,16,4.2,13c0-4.5,2.7-8.5,6.8-10.2C12.4,2.3,13.8,2,15.3,2h0
		c3,0,5.7,1.1,7.8,3.2c2.1,2.1,3.2,4.9,3.2,7.8C26.3,16.1,25.1,18.9,23.1,20.9z"/>
</g>
</svg>
