<svg xmlns="http://www.w3.org/2000/svg" xmlns:xlink="http://www.w3.org/1999/xlink" width="22.622" height="22.566" viewBox="0 0 22.622 22.566">
  <defs>
    <linearGradient id="linear-gradient" x1="0.5" x2="0.5" y2="1" gradientUnits="objectBoundingBox">
      <stop offset="0" stop-color="#29b3ba"/>
      <stop offset="1" stop-color="#46eeaa"/>
    </linearGradient>
  </defs>
  <path id="ic_slow_motion_video_24px" d="M14.524,10.827l-3.459-2.6V18.436l3.459-2.6,3.345-2.506Zm0,0-3.459-2.6V18.436l3.459-2.6,3.345-2.506Zm0,0-3.459-2.6V18.436l3.459-2.6,3.345-2.506ZM12.2,4.341V2.05A11.282,11.282,0,0,0,6.166,4.556l1.61,1.622A9,9,0,0,1,12.2,4.341ZM6.178,7.776,4.556,6.166A11.282,11.282,0,0,0,2.05,12.2H4.341A9,9,0,0,1,6.178,7.776Zm-1.837,6.69H2.05A11.282,11.282,0,0,0,4.556,20.5l1.622-1.622a8.922,8.922,0,0,1-1.837-4.411ZM6.166,22.11A11.318,11.318,0,0,0,12.2,24.616V22.325a9,9,0,0,1-4.422-1.837L6.166,22.11Zm18.506-8.777A11.357,11.357,0,0,1,14.524,24.616V22.325a9.071,9.071,0,0,0,0-17.985V2.05A11.357,11.357,0,0,1,24.672,13.333Z" transform="translate(-2.05 -2.05)" fill="url(#linear-gradient)"/>
</svg>
