<svg xmlns="http://www.w3.org/2000/svg" xmlns:xlink="http://www.w3.org/1999/xlink" width="28.171" height="26.41" viewBox="0 0 28.171 26.41">
  <defs>
    <linearGradient id="linear-gradient" x1="1" y1="0.5" x2="0" y2="0.5" gradientUnits="objectBoundingBox">
      <stop offset="0" stop-color="#29b3ba"/>
      <stop offset="1" stop-color="#46eeaa"/>
    </linearGradient>
  </defs>
  <path id="Union_2" data-name="Union 2" d="M7.483,26.41a.55.55,0,0,1-.551-.55V23.109H5.282a.55.55,0,0,1-.551-.55V20.908H1.651A1.652,1.652,0,0,1,0,19.257v-9.9A1.652,1.652,0,0,1,1.651,7.7H4.025a4.4,4.4,0,1,1,6.759-5.429A4.4,4.4,0,1,1,17.543,7.7h2.045a1.653,1.653,0,0,1,1.651,1.65V9.9h1.477l4.59-3.2a.55.55,0,0,1,.865.451v13.2a.55.55,0,0,1-.865.451l-4.59-3.2H21.238v1.65a1.653,1.653,0,0,1-1.651,1.651H16.836v1.651a.55.55,0,0,1-.55.55H14.636V25.86a.55.55,0,0,1-.551.55Zm.55-1.1h5.5v-2.2h-5.5Zm-2.2-3.3h9.9v-1.1h-9.9ZM1.1,9.353v9.9a.551.551,0,0,0,.551.551H19.588a.551.551,0,0,0,.551-.551v-9.9a.551.551,0,0,0-.551-.55H1.651A.551.551,0,0,0,1.1,9.353Zm22.339,1.388V16.77L27.071,19.3V8.207Zm-2.2,5.765h1.1V11h-1.1Zm-9.9-12.1a3.3,3.3,0,1,0,3.3-3.3A3.305,3.305,0,0,0,11.335,4.4Zm-1.5,3.3h1.889a4.451,4.451,0,0,1-.945-1.174A4.437,4.437,0,0,1,9.839,7.7ZM3.631,4.4a3.3,3.3,0,1,0,3.3-3.3A3.305,3.305,0,0,0,3.631,4.4ZM6.383,17.607a.551.551,0,1,1,0-1.1h11a.551.551,0,0,1,0,1.1Zm-2.751-.551a.55.55,0,1,1,.551.551A.551.551,0,0,1,3.631,17.057Zm13.2-2.2a.55.55,0,1,1,.551.55A.551.551,0,0,1,16.836,14.856Zm-12.654.55a.55.55,0,0,1-.551-.55v-3.3A.55.55,0,0,1,4.182,11h7.7a.55.55,0,0,1,.551.551v3.3a.55.55,0,0,1-.551.55Zm.55-1.1h6.6V12.1h-6.6Zm12.1-2.751a.55.55,0,1,1,.551.55A.551.551,0,0,1,16.836,11.555ZM12.985,4.4a1.651,1.651,0,1,1,1.651,1.651A1.653,1.653,0,0,1,12.985,4.4Zm1.1,0a.55.55,0,1,0,.55-.55A.551.551,0,0,0,14.086,4.4Zm-8.8,0a1.651,1.651,0,1,1,1.65,1.651A1.652,1.652,0,0,1,5.282,4.4Zm1.1,0a.55.55,0,1,0,.55-.55A.551.551,0,0,0,6.383,4.4Z" fill="url(#linear-gradient)"/>
</svg>
