<svg xmlns="http://www.w3.org/2000/svg" xmlns:xlink="http://www.w3.org/1999/xlink" width="27.192" height="23.671" viewBox="0 0 27.192 23.671">
  <defs>
    <linearGradient id="linear-gradient" x1="0.5" x2="0.5" y2="1" gradientUnits="objectBoundingBox">
      <stop offset="0" stop-color="#29b3ba"/>
      <stop offset="1" stop-color="#46eeaa"/>
    </linearGradient>
  </defs>
  <path id="ic_import_contacts_24px" d="M25.72,5.2a13.076,13.076,0,0,0-4.326-.7,10.551,10.551,0,0,0-6.8,2.089A10.551,10.551,0,0,0,7.8,4.5,10.551,10.551,0,0,0,1,6.589v20.4a.711.711,0,0,0,.618.7c.124,0,.185-.07.309-.07A13.7,13.7,0,0,1,7.8,26.082a10.551,10.551,0,0,1,6.8,2.089,13.632,13.632,0,0,1,6.8-2.089,11.419,11.419,0,0,1,5.871,1.462.5.5,0,0,0,.309.07.711.711,0,0,0,.618-.7V6.589A8.1,8.1,0,0,0,25.72,5.2Zm0,18.8a12.873,12.873,0,0,0-4.326-.7,13.632,13.632,0,0,0-6.8,2.089V9.373a13.632,13.632,0,0,1,6.8-2.089,12.873,12.873,0,0,1,4.326.7Z" transform="translate(-1 -4.5)" fill="url(#linear-gradient)"/>
</svg>
